<?xml version="1.0" encoding="utf-8"?>
<!-- Generator: Adobe Illustrator 19.0.0, SVG Export Plug-In . SVG Version: 6.00 Build 0)  -->
<svg version="1.1" id="Layer_1" xmlns="http://www.w3.org/2000/svg" xmlns:xlink="http://www.w3.org/1999/xlink" x="0px" y="0px"
	 viewBox="0 0 75.4 74.8" style="enable-background:new 0 0 75.4 74.8;" xml:space="preserve">
<style type="text/css">
	.st0{fill:#E8EAEB;}
	.st1{fill:#FFFFFF;}
	.st2{fill:#c2e1ff;}
	.st3{fill:#0984e3;}
</style>
<g>
	<g>
		<circle class="st0" cx="61.4" cy="32.5" r="14"/>
	</g>
	<g>
		<circle class="st0" cx="29.1" cy="12" r="12"/>
	</g>
	<g>
		<circle class="st0" cx="20" cy="54.8" r="20"/>
	</g>
	<g>
		<g>
			<circle class="st1" cx="36.2" cy="39" r="32"/>
		</g>
		<g>
			<path class="st2" d="M54.5,12.7c3.6,5.2,5.7,11.5,5.7,18.3c0,17.7-14.3,32-32,32c-6.8,0-13.1-2.1-18.3-5.7
				C15.7,65.6,25.3,71,36.2,71c17.7,0,32-14.3,32-32C68.2,28.1,62.8,18.5,54.5,12.7z"/>
		</g>
		<g>
			<path class="st3" d="M36.2,71.7C18.1,71.7,3.4,57.1,3.4,39S18.1,6.2,36.2,6.2c18.1,0,32.8,14.7,32.8,32.8S54.3,71.7,36.2,71.7z
				 M36.2,7.7C19,7.7,4.9,21.8,4.9,39c0,17.2,14,31.3,31.3,31.3c17.2,0,31.3-14,31.3-31.3C67.4,21.8,53.4,7.7,36.2,7.7z"/>
		</g>
		<g>
			<path class="st1" d="M44.2,31c0,0-7.6,0.2-12.6,3.2c-2.8,1.7-5.4,4.5-4.7,8.5c0.5,0.5,1.5,1.5,2.6,2.6
				C31.1,42.8,35.6,36.5,44.2,31z"/>
		</g>
		<g>
			<path class="st2" d="M44.2,31c-9.9,3.3-14.3,7.8-16.4,12.6c0,0,0,0,0,0c0.5,0.5,1.1,1.1,1.7,1.7C31.1,42.8,35.6,36.5,44.2,31z"/>
		</g>
		<g>
			<path class="st3" d="M29.5,46c-0.2,0-0.4-0.1-0.5-0.2c-1.4-1.4-2.2-2.2-2.6-2.6c-0.1-0.1-0.2-0.2-0.2-0.4c-0.6-3.6,1.1-6.9,5-9.3
				c5.1-3.1,12.6-3.3,13-3.3c0.3,0,0.6,0.2,0.7,0.5c0.1,0.3,0,0.7-0.3,0.9c-8.4,5.4-12.9,11.6-14.5,14C30,45.9,29.8,46,29.5,46
				C29.6,46,29.5,46,29.5,46z M27.6,42.3c0.4,0.4,1.1,1.1,1.7,1.8c1.8-2.6,5.6-7.5,12-12.1c-2.6,0.3-6.5,1.1-9.4,2.8
				C29.7,36.2,27.1,38.6,27.6,42.3z"/>
		</g>
		<g>
			<path class="st1" d="M43,38.8c1.1-4,1.2-7.8,1.2-7.8c-8.6,5.5-13.1,11.8-14.7,14.3c1.1,1.1,2.3,2.3,3,3
				C38.5,49.3,41.6,43.6,43,38.8z"/>
		</g>
		<g>
			<path class="st2" d="M43,38.8c1.1-4,1.2-7.8,1.2-7.8s-4.6,12.6-13.3,15.6c0.2,0.2,1.1,1.1,1.7,1.7C38.5,49.3,41.6,43.6,43,38.8z"
				/>
		</g>
		<g>
			<path class="st3" d="M33.9,49.1c-0.5,0-1,0-1.5-0.1c-0.2,0-0.3-0.1-0.4-0.2c-0.4-0.4-1-1-1.6-1.6L29,45.8
				c-0.3-0.2-0.3-0.6-0.1-0.9c1.6-2.5,6.2-8.9,14.9-14.5c0.2-0.2,0.5-0.2,0.8,0c0.2,0.1,0.4,0.4,0.4,0.7c0,0.2-0.1,3.9-1.2,8l0,0
				C41.9,45.5,38.4,49.1,33.9,49.1z M32.9,47.6c5.7,0.8,8.3-5.2,9.4-9v0c0.7-2.4,1-4.7,1.1-6.1c-7.1,4.9-11.2,10.2-12.9,12.7
				l0.9,0.9C32,46.7,32.5,47.2,32.9,47.6z M43,38.8L43,38.8L43,38.8z"/>
		</g>
		<g>
			<path class="st1" d="M28.7,53l-6.5-6.5C15.5,52.1,4,63,4.2,71C12.2,71.2,23.1,59.7,28.7,53z"/>
		</g>
		<g>
			<path class="st2" d="M28.7,53l-2-2c-3.1,4.5-15,15.8-22.5,20C12.2,71.2,23.1,59.7,28.7,53z"/>
		</g>
		<g>
			<path class="st3" d="M4.4,71.7c-0.1,0-0.2,0-0.2,0c-0.4,0-0.7-0.3-0.7-0.7c-0.2-8.3,11.4-19.3,18.3-25.1c0.3-0.3,0.7-0.2,1,0
				l6.5,6.5c0.3,0.3,0.3,0.7,0,1C23.5,60.3,12.7,71.7,4.4,71.7z M22.2,47.5C15.6,53,5.4,62.8,5,70.2c7.4-0.5,17.2-10.7,22.8-17.2
				L22.2,47.5z"/>
		</g>
		<g>
			<path class="st2" d="M32.5,48.3c-1.4-1.4-3-3-5.6-5.6c0,0-2,1.5-4.7,3.8l6.5,6.5C31.1,50.2,32.5,48.3,32.5,48.3z"/>
		</g>
		<g>
			<path class="st1" d="M30.9,46.6c-1.4-1.4-1.3-1.3-3.9-3.9c0,0-2,1.5-4.7,3.8l4.7,4.7C28.9,49.2,30.9,46.6,30.9,46.6z"/>
		</g>
		<g>
			<path class="st3" d="M28.7,53.7c-0.2,0-0.4-0.1-0.5-0.2L21.7,47c-0.1-0.1-0.2-0.4-0.2-0.6c0-0.2,0.1-0.4,0.3-0.5
				c2.8-2.3,4.7-3.8,4.8-3.8c0.3-0.2,0.7-0.2,1,0.1l5.6,5.6c0.3,0.3,0.3,0.7,0.1,1c0,0-1.5,2-3.8,4.8C29.2,53.6,29,53.7,28.7,53.7
				C28.8,53.7,28.7,53.7,28.7,53.7z M23.3,46.5l5.4,5.4c1.3-1.6,2.3-2.9,2.8-3.6l-4.7-4.7C26.2,44.2,24.9,45.2,23.3,46.5z"/>
		</g>
		<g>
			<circle class="st1" cx="36.2" cy="18" r="5.5"/>
		</g>
		<g>
			<path class="st2" d="M38.2,15.5c1.2,0,2.4,0.4,3.3,1.1c-0.6-2.4-2.8-4.1-5.3-4.1c-3,0-5.5,2.5-5.5,5.5c0,1.8,0.9,3.4,2.2,4.4
				c-0.1-0.4-0.2-0.9-0.2-1.4C32.7,18,35.2,15.5,38.2,15.5z"/>
		</g>
		<g>
			<path class="st3" d="M36.2,24.3c-3.4,0-6.3-2.8-6.3-6.3c0-3.4,2.8-6.3,6.3-6.3c3.4,0,6.3,2.8,6.3,6.3
				C42.4,21.4,39.6,24.3,36.2,24.3z M36.2,13.3c-2.6,0-4.8,2.1-4.8,4.8c0,2.6,2.1,4.8,4.8,4.8c2.6,0,4.8-2.1,4.8-4.8
				C40.9,15.4,38.8,13.3,36.2,13.3z"/>
		</g>
		<g>
			<circle class="st1" cx="36.2" cy="60" r="5.5"/>
		</g>
		<g>
			<path class="st2" d="M38.2,57.5c1.2,0,2.4,0.4,3.3,1.1c-0.6-2.4-2.8-4.1-5.3-4.1c-3,0-5.5,2.5-5.5,5.5c0,1.8,0.9,3.4,2.2,4.4
				c-0.1-0.4-0.2-0.9-0.2-1.4C32.7,60,35.2,57.5,38.2,57.5z"/>
		</g>
		<g>
			<path class="st3" d="M36.2,66.2c-3.4,0-6.3-2.8-6.3-6.3c0-3.4,2.8-6.3,6.3-6.3c3.4,0,6.3,2.8,6.3,6.3
				C42.4,63.4,39.6,66.2,36.2,66.2z M36.2,55.2c-2.6,0-4.8,2.1-4.8,4.8s2.1,4.8,4.8,4.8c2.6,0,4.8-2.1,4.8-4.8S38.8,55.2,36.2,55.2z
				"/>
		</g>
		<g>
			<circle class="st1" cx="15.2" cy="39" r="5.5"/>
		</g>
		<g>
			<path class="st2" d="M17.2,36.5c1.2,0,2.4,0.4,3.3,1.1c-0.6-2.4-2.8-4.1-5.3-4.1c-3,0-5.5,2.5-5.5,5.5c0,1.8,0.9,3.4,2.2,4.4
				c-0.1-0.4-0.2-0.9-0.2-1.4C11.7,39,14.2,36.5,17.2,36.5z"/>
		</g>
		<g>
			<path class="st3" d="M15.2,45.2c-3.4,0-6.3-2.8-6.3-6.3s2.8-6.3,6.3-6.3s6.3,2.8,6.3,6.3S18.6,45.2,15.2,45.2z M15.2,34.2
				c-2.6,0-4.8,2.1-4.8,4.8c0,2.6,2.1,4.8,4.8,4.8c2.6,0,4.8-2.1,4.8-4.8C19.9,36.4,17.8,34.2,15.2,34.2z"/>
		</g>
		<g>
			<circle class="st1" cx="57.2" cy="39" r="5.5"/>
		</g>
		<g>
			<path class="st2" d="M59.2,36.5c1.2,0,2.4,0.4,3.3,1.1c-0.6-2.4-2.8-4.1-5.3-4.1c-3,0-5.5,2.5-5.5,5.5c0,1.8,0.9,3.4,2.2,4.4
				c-0.1-0.4-0.2-0.9-0.2-1.4C53.7,39,56.2,36.5,59.2,36.5z"/>
		</g>
		<g>
			<path class="st3" d="M57.2,45.2c-3.4,0-6.3-2.8-6.3-6.3s2.8-6.3,6.3-6.3c3.4,0,6.3,2.8,6.3,6.3S60.6,45.2,57.2,45.2z M57.2,34.2
				c-2.6,0-4.8,2.1-4.8,4.8c0,2.6,2.1,4.8,4.8,4.8c2.6,0,4.8-2.1,4.8-4.8C61.9,36.4,59.8,34.2,57.2,34.2z"/>
		</g>
		<g>
			<circle class="st1" cx="51" cy="24.2" r="5.5"/>
		</g>
		<g>
			<path class="st2" d="M47.7,28.5c-0.1-0.4-0.2-0.9-0.2-1.4c0-3,2.5-5.5,5.5-5.5c1.2,0,2.4,0.4,3.3,1.1c-0.6-2.4-2.8-4.1-5.3-4.1
				c-3,0-5.5,2.5-5.5,5.5C45.5,25.9,46.4,27.5,47.7,28.5z"/>
		</g>
		<g>
			<path class="st3" d="M51,30.4c-3.4,0-6.3-2.8-6.3-6.3s2.8-6.3,6.3-6.3c3.4,0,6.3,2.8,6.3,6.3S54.5,30.4,51,30.4z M51,19.4
				c-2.6,0-4.8,2.1-4.8,4.8c0,2.6,2.1,4.8,4.8,4.8c2.6,0,4.8-2.1,4.8-4.8C55.8,21.5,53.7,19.4,51,19.4z"/>
		</g>
		<g>
			<circle class="st1" cx="51" cy="53.8" r="5.5"/>
		</g>
		<g>
			<path class="st2" d="M53,51.3c1.2,0,2.4,0.4,3.3,1.1c-0.6-2.4-2.8-4.1-5.3-4.1c-3,0-5.5,2.5-5.5,5.5c0,1.8,0.9,3.4,2.2,4.4
				c-0.1-0.4-0.2-0.9-0.2-1.4C47.5,53.8,50,51.3,53,51.3z"/>
		</g>
		<g>
			<path class="st3" d="M51,60.1c-3.4,0-6.3-2.8-6.3-6.3c0-3.4,2.8-6.3,6.3-6.3c3.4,0,6.3,2.8,6.3,6.3C57.3,57.3,54.5,60.1,51,60.1z
				 M51,49.1c-2.6,0-4.8,2.1-4.8,4.8c0,2.6,2.1,4.8,4.8,4.8c2.6,0,4.8-2.1,4.8-4.8C55.8,51.2,53.7,49.1,51,49.1z"/>
		</g>
		<g>
			<circle class="st1" cx="21.3" cy="24.2" r="5.5"/>
		</g>
		<g>
			<path class="st2" d="M23.3,21.7c1.2,0,2.4,0.4,3.3,1.1c-0.6-2.4-2.8-4.1-5.3-4.1c-3,0-5.5,2.5-5.5,5.5c0,1.8,0.9,3.4,2.2,4.4
				c-0.1-0.4-0.2-0.9-0.2-1.4C17.8,24.1,20.3,21.7,23.3,21.7z"/>
		</g>
		<g>
			<path class="st3" d="M21.3,30.4c-3.4,0-6.3-2.8-6.3-6.3s2.8-6.3,6.3-6.3s6.3,2.8,6.3,6.3S24.8,30.4,21.3,30.4z M21.3,19.4
				c-2.6,0-4.8,2.1-4.8,4.8c0,2.6,2.1,4.8,4.8,4.8c2.6,0,4.8-2.1,4.8-4.8C26.1,21.5,24,19.4,21.3,19.4z"/>
		</g>
		<g>
			<circle class="st1" cx="63.2" cy="12" r="2"/>
		</g>
		<g>
			<path class="st3" d="M63.2,14.8c-1.5,0-2.8-1.2-2.8-2.8c0-1.5,1.2-2.8,2.8-2.8c1.5,0,2.8,1.2,2.8,2.8
				C65.9,13.5,64.7,14.8,63.2,14.8z M63.2,10.8c-0.7,0-1.3,0.6-1.3,1.3c0,0.7,0.6,1.3,1.3,1.3c0.7,0,1.3-0.6,1.3-1.3
				C64.4,11.3,63.9,10.8,63.2,10.8z"/>
		</g>
		<g>
			<circle class="st1" cx="12.2" cy="9" r="2"/>
		</g>
		<g>
			<path class="st3" d="M12.2,11.7c-1.5,0-2.8-1.2-2.8-2.8s1.2-2.7,2.8-2.7s2.8,1.2,2.8,2.7S13.7,11.7,12.2,11.7z M12.2,7.7
				c-0.7,0-1.3,0.6-1.3,1.2c0,0.7,0.6,1.3,1.3,1.3c0.7,0,1.3-0.6,1.3-1.3C13.4,8.3,12.9,7.7,12.2,7.7z"/>
		</g>
		<g>
			<circle class="st1" cx="6.2" cy="16" r="2"/>
		</g>
		<g>
			<path class="st3" d="M6.2,18.8c-1.5,0-2.7-1.2-2.7-2.8s1.2-2.8,2.7-2.8c1.5,0,2.8,1.2,2.8,2.8S7.7,18.8,6.2,18.8z M6.2,14.8
				c-0.7,0-1.3,0.6-1.3,1.3c0,0.7,0.6,1.3,1.3,1.3c0.7,0,1.3-0.6,1.3-1.3C7.4,15.3,6.9,14.8,6.2,14.8z"/>
		</g>
		<g>
			<circle class="st1" cx="66.2" cy="63" r="2"/>
		</g>
		<g>
			<path class="st3" d="M66.2,65.7c-1.5,0-2.8-1.2-2.8-2.8c0-1.5,1.2-2.8,2.8-2.8c1.5,0,2.8,1.2,2.8,2.8
				C68.9,64.5,67.7,65.7,66.2,65.7z M66.2,61.7c-0.7,0-1.3,0.6-1.3,1.3c0,0.7,0.6,1.3,1.3,1.3c0.7,0,1.3-0.6,1.3-1.3
				C67.4,62.3,66.9,61.7,66.2,61.7z"/>
		</g>
		<g>
			<circle class="st1" cx="58.2" cy="69" r="2"/>
		</g>
		<g>
			<path class="st3" d="M58.2,71.7c-1.5,0-2.7-1.2-2.7-2.8s1.2-2.8,2.7-2.8c1.5,0,2.8,1.2,2.8,2.8S59.7,71.7,58.2,71.7z M58.2,67.7
				c-0.7,0-1.3,0.6-1.3,1.3c0,0.7,0.6,1.3,1.3,1.3c0.7,0,1.3-0.6,1.3-1.3C59.4,68.3,58.9,67.7,58.2,67.7z"/>
		</g>
	</g>
</g>
</svg>
