<?xml version="1.0" encoding="utf-8"?>
<!-- Generator: Adobe Illustrator 19.0.0, SVG Export Plug-In . SVG Version: 6.00 Build 0)  -->
<svg version="1.1" id="Layer_1" xmlns="http://www.w3.org/2000/svg" xmlns:xlink="http://www.w3.org/1999/xlink" x="0px" y="0px"
	 viewBox="0 0 73.8 78.5" style="enable-background:new 0 0 73.8 78.5;" xml:space="preserve">
<style type="text/css">
	.st0{fill:#E8EAEB;}
	.st1{fill:#c2e1ff;}
	.st2{fill:#FFFFFF;}
	.st3{fill:#0984e3;}
</style>
<g>
	<g>
		<circle class="st0" cx="49" cy="64.5" r="14"/>
	</g>
	<g>
		<circle class="st0" cx="12" cy="44.4" r="12"/>
	</g>
	<g>
		<circle class="st0" cx="53.8" cy="20" r="20"/>
	</g>
	<g>
		<g>
			<rect x="17.5" y="44.7" class="st1" width="8.9" height="7"/>
		</g>
		<g>
			<path class="st2" d="M23.2,49.7h-5.7v-5h6.7v4C24.2,49.2,23.7,49.7,23.2,49.7z"/>
		</g>
		<g>
			<path class="st3" d="M26.3,52.5h-8.9c-0.4,0-0.8-0.3-0.8-0.8v-7c0-0.4,0.3-0.8,0.8-0.8h8.9c0.4,0,0.8,0.3,0.8,0.8v7
				C27.1,52.2,26.7,52.5,26.3,52.5z M18.2,51h7.4v-5.5h-7.4V51z"/>
		</g>
		<g>
			<rect x="15.8" y="51.8" class="st1" width="12.1" height="13.8"/>
		</g>
		<g>
			<path class="st2" d="M22.9,62.5h-7V51.8h9v8.7C24.9,61.6,24,62.5,22.9,62.5z"/>
		</g>
		<g>
			<path class="st3" d="M27.9,66.3H15.8c-0.4,0-0.8-0.3-0.8-0.8V51.8c0-0.4,0.3-0.8,0.8-0.8h12.1c0.4,0,0.8,0.3,0.8,0.8v13.8
				C28.7,65.9,28.3,66.3,27.9,66.3z M16.6,64.8h10.6V52.5H16.6V64.8z"/>
		</g>
		<g>
			<path class="st2" d="M24.6,70.7h-5.4c-1.9,0-3.4-1.5-3.4-3.4v-1.8h12.1v1.8C27.9,69.2,26.4,70.7,24.6,70.7z"/>
		</g>
		<g>
			<path class="st1" d="M24.9,65.5v1.8c0,1.9-1.5,3.4-3.4,3.4h3c1.9,0,3.4-1.5,3.4-3.4v-1.8L24.9,65.5z"/>
		</g>
		<g>
			<path class="st3" d="M24.6,71.5h-5.4c-2.3,0-4.1-1.8-4.1-4.1v-1.8c0-0.4,0.3-0.8,0.8-0.8h12.1c0.4,0,0.8,0.3,0.8,0.8v1.8
				C28.7,69.6,26.8,71.5,24.6,71.5z M16.6,66.3v1.1c0,1.4,1.2,2.6,2.6,2.6h5.4c1.4,0,2.6-1.2,2.6-2.6v-1.1H16.6z"/>
		</g>
		<g>
			<circle class="st2" cx="21.9" cy="26.7" r="20"/>
		</g>
		<g>
			<path class="st1" d="M28,7.7c3.8,2.2,7,5.7,8.7,10.1c4,10.3-1.1,21.9-11.4,25.9c-4.4,1.7-9.1,1.7-13.3,0.4
				c5.1,2.9,11.3,3.6,17.2,1.3c10.3-4,15.4-15.6,11.4-25.9C38.3,13.6,33.5,9.4,28,7.7z"/>
		</g>
		<g>
			<path class="st3" d="M21.9,47.5c-8.3,0-16.2-5-19.4-13.2c-2-5.2-1.9-10.8,0.4-15.9c2.2-5.1,6.3-9,11.5-11
				c5.2-2,10.8-1.9,15.9,0.4c5.1,2.2,9,6.3,11,11.5c4.1,10.7-1.2,22.7-11.8,26.9C26.9,47,24.4,47.5,21.9,47.5z M21.9,7.5
				c-2.3,0-4.7,0.4-6.9,1.3l0,0c-9.9,3.8-14.8,15-11,24.9c3.8,9.9,15,14.8,24.9,11c9.9-3.8,14.8-15,11-24.9
				C36.9,12.1,29.6,7.5,21.9,7.5z M14.6,8.1L14.6,8.1L14.6,8.1z"/>
		</g>
		<g>
			<circle class="st2" cx="21.9" cy="26.7" r="14"/>
		</g>
		<g>
			<path class="st1" d="M25,13.1c3,2.6,4.9,6.4,4.9,10.7c0,7.7-6.3,14-14,14c-1.1,0-2.1-0.1-3.1-0.3c2.4,2.1,5.6,3.3,9.1,3.3
				c7.7,0,14-6.3,14-14C35.9,20,31.2,14.5,25,13.1z"/>
		</g>
		<g>
			<path class="st3" d="M21.9,41.5c-8.1,0-14.8-6.6-14.8-14.8c0-8.1,6.6-14.8,14.8-14.8s14.8,6.6,14.8,14.8
				C36.6,34.8,30,41.5,21.9,41.5z M21.9,13.5c-7.3,0-13.3,5.9-13.3,13.3C8.6,34,14.6,40,21.9,40c7.3,0,13.3-5.9,13.3-13.3
				C35.1,19.4,29.2,13.5,21.9,13.5z"/>
		</g>
		<g>
			<path class="st2" d="M9.8,19.7c-1.2,2.1-1.9,4.4-1.9,7c0,2.6,0.7,4.9,1.9,7h42.1v-14H9.8z"/>
		</g>
		<g>
			<path class="st1" d="M48.9,19.7v9c0,1.1-0.9,2-2,2H8.5c0.3,1.1,0.8,2.1,1.3,3h42.1v-14H48.9z"/>
		</g>
		<g>
			<path class="st3" d="M51.9,34.5H9.8c-0.3,0-0.5-0.1-0.6-0.4c-1.3-2.2-2-4.8-2-7.4c0-2.6,0.7-5.1,2-7.4C9.3,19.1,9.5,19,9.8,19
				h42.1c0.4,0,0.8,0.3,0.8,0.8v14C52.6,34.1,52.3,34.5,51.9,34.5z M10.2,33h40.9V20.5H10.2c-1,1.9-1.6,4.1-1.6,6.3
				C8.6,28.9,9.2,31,10.2,33z"/>
		</g>
		<g>
			<path class="st1" d="M63.9,19.7h-12v14h12c1.1,0,2-0.9,2-2v-10C65.9,20.6,65,19.7,63.9,19.7z"/>
		</g>
		<g>
			<path class="st2" d="M62.9,19.7h-11v11h9c1.1,0,2-0.9,2-2V19.7z"/>
		</g>
		<g>
			<path class="st3" d="M63.9,34.5h-12c-0.4,0-0.8-0.3-0.8-0.8v-14c0-0.4,0.3-0.8,0.8-0.8h12c1.5,0,2.8,1.2,2.8,2.8v10
				C66.6,33.2,65.4,34.5,63.9,34.5z M52.6,33h11.3c0.7,0,1.3-0.6,1.3-1.3v-10c0-0.7-0.6-1.3-1.3-1.3H52.6V33z"/>
		</g>
		<g>
			<circle class="st2" cx="57.9" cy="25.7" r="2.5"/>
		</g>
		<g>
			<path class="st3" d="M57.9,29c-1.8,0-3.3-1.5-3.3-3.3c0-1.8,1.5-3.3,3.3-3.3s3.3,1.5,3.3,3.3C61.1,27.5,59.7,29,57.9,29z
				 M57.9,24c-1,0-1.8,0.8-1.8,1.8c0,1,0.8,1.8,1.8,1.8c1,0,1.8-0.8,1.8-1.8C59.6,24.7,58.9,24,57.9,24z"/>
		</g>
		<g>
			<path class="st3" d="M62.9,31.5c-0.2,0-0.4-0.1-0.5-0.2L59.1,28c-0.3-0.3-0.3-0.8,0-1.1c0.3-0.3,0.8-0.3,1.1,0l3.2,3.2
				c0.3,0.3,0.3,0.8,0,1.1C63.3,31.4,63.1,31.5,62.9,31.5z"/>
		</g>
		<g>
			<path class="st3" d="M39.9,27.5H25c-0.4,0-0.8-0.3-0.8-0.8c0-0.4,0.3-0.8,0.8-0.8h14.9c0.4,0,0.8,0.3,0.8,0.8
				C40.6,27.1,40.3,27.5,39.9,27.5z"/>
		</g>
		<g>
			<path class="st3" d="M21,27.5h-8.3c-0.4,0-0.8-0.3-0.8-0.8c0-0.4,0.3-0.8,0.8-0.8H21c0.4,0,0.8,0.3,0.8,0.8
				C21.8,27.1,21.4,27.5,21,27.5z"/>
		</g>
		<g>
			<path class="st3" d="M62.9,71.5h-6.5c-0.4,0-0.8-0.3-0.8-0.8c0-0.4,0.3-0.8,0.8-0.8h6.5c0.4,0,0.8,0.3,0.8,0.8
				C63.6,71.1,63.3,71.5,62.9,71.5z"/>
		</g>
		<g>
			<path class="st3" d="M52.4,71.5h-6.3c-0.4,0-0.8-0.3-0.8-0.8c0-0.4,0.3-0.8,0.8-0.8h6.3c0.4,0,0.8,0.3,0.8,0.8
				C53.1,71.1,52.8,71.5,52.4,71.5z"/>
		</g>
		<g>
			<path class="st3" d="M42.1,71.5h-9.5c-0.4,0-0.8-0.3-0.8-0.8c0-0.4,0.3-0.8,0.8-0.8h9.5c0.4,0,0.8,0.3,0.8,0.8
				C42.8,71.1,42.5,71.5,42.1,71.5z"/>
		</g>
		<g>
			<path class="st3" d="M65.9,65.5H55.4c-0.4,0-0.8-0.3-0.8-0.8c0-0.4,0.3-0.8,0.8-0.8h10.5c0.4,0,0.8,0.3,0.8,0.8
				C66.6,65.1,66.3,65.5,65.9,65.5z"/>
		</g>
		<g>
			<path class="st3" d="M51.4,65.5h-9.3c-0.4,0-0.8-0.3-0.8-0.8c0-0.4,0.3-0.8,0.8-0.8h9.3c0.4,0,0.8,0.3,0.8,0.8
				C52.1,65.1,51.8,65.5,51.4,65.5z"/>
		</g>
		<g>
			<path class="st3" d="M38.1,65.5h-5.5c-0.4,0-0.8-0.3-0.8-0.8c0-0.4,0.3-0.8,0.8-0.8h5.5c0.4,0,0.8,0.3,0.8,0.8
				C38.8,65.1,38.5,65.5,38.1,65.5z"/>
		</g>
		<g>
			<path class="st3" d="M59.4,59.5H45.1c-0.4,0-0.8-0.3-0.8-0.8c0-0.4,0.3-0.8,0.8-0.8h14.3c0.4,0,0.8,0.3,0.8,0.8
				C60.1,59.1,59.8,59.5,59.4,59.5z"/>
		</g>
		<g>
			<path class="st3" d="M41.1,59.5h-8.5c-0.4,0-0.8-0.3-0.8-0.8c0-0.4,0.3-0.8,0.8-0.8h8.5c0.4,0,0.8,0.3,0.8,0.8
				C41.8,59.1,41.5,59.5,41.1,59.5z"/>
		</g>
		<g>
			<path class="st3" d="M62.9,53.5H52.4c-0.4,0-0.8-0.3-0.8-0.8S52,52,52.4,52h10.5c0.4,0,0.8,0.3,0.8,0.8S63.3,53.5,62.9,53.5z"/>
		</g>
		<g>
			<path class="st3" d="M48.4,53.5h-4.3c-0.4,0-0.8-0.3-0.8-0.8s0.3-0.8,0.8-0.8h4.3c0.4,0,0.8,0.3,0.8,0.8S48.8,53.5,48.4,53.5z"/>
		</g>
		<g>
			<path class="st3" d="M40.1,53.5h-7.5c-0.4,0-0.8-0.3-0.8-0.8s0.3-0.8,0.8-0.8h7.5c0.4,0,0.8,0.3,0.8,0.8S40.5,53.5,40.1,53.5z"/>
		</g>
		<g>
			<path class="st3" d="M65.9,47.5h-4.5c-0.4,0-0.8-0.3-0.8-0.8S61,46,61.4,46h4.5c0.4,0,0.8,0.3,0.8,0.8S66.3,47.5,65.9,47.5z"/>
		</g>
		<g>
			<path class="st3" d="M57.4,47.5h-8.3c-0.4,0-0.8-0.3-0.8-0.8s0.3-0.8,0.8-0.8h8.3c0.4,0,0.8,0.3,0.8,0.8S57.8,47.5,57.4,47.5z"/>
		</g>
		<g>
			<path class="st3" d="M45.1,47.5h-8.5c-0.4,0-0.8-0.3-0.8-0.8s0.3-0.8,0.8-0.8h8.5c0.4,0,0.8,0.3,0.8,0.8S45.5,47.5,45.1,47.5z"/>
		</g>
		<g>
			<path class="st3" d="M44.8,9.5h-4c-0.4,0-0.8-0.3-0.8-0.8c0-0.4,0.3-0.8,0.8-0.8h4c0.4,0,0.8,0.3,0.8,0.8
				C45.6,9.1,45.2,9.5,44.8,9.5z"/>
		</g>
		<g>
			<path class="st3" d="M42.8,11.5c-0.4,0-0.8-0.3-0.8-0.8v-4c0-0.4,0.3-0.8,0.8-0.8c0.4,0,0.8,0.3,0.8,0.8v4
				C43.6,11.1,43.2,11.5,42.8,11.5z"/>
		</g>
		<g>
			<path class="st3" d="M57.8,14.5h-4c-0.4,0-0.8-0.3-0.8-0.8c0-0.4,0.3-0.8,0.8-0.8h4c0.4,0,0.8,0.3,0.8,0.8
				C58.6,14.1,58.2,14.5,57.8,14.5z"/>
		</g>
		<g>
			<path class="st3" d="M55.8,16.5c-0.4,0-0.8-0.3-0.8-0.8v-4c0-0.4,0.3-0.8,0.8-0.8c0.4,0,0.8,0.3,0.8,0.8v4
				C56.6,16.1,56.2,16.5,55.8,16.5z"/>
		</g>
		<g>
			<path class="st3" d="M65.9,9.5h-4c-0.4,0-0.8-0.3-0.8-0.8c0-0.4,0.3-0.8,0.8-0.8h4c0.4,0,0.8,0.3,0.8,0.8
				C66.6,9.1,66.3,9.5,65.9,9.5z"/>
		</g>
		<g>
			<path class="st3" d="M63.9,11.5c-0.4,0-0.8-0.3-0.8-0.8v-4c0-0.4,0.3-0.8,0.8-0.8c0.4,0,0.8,0.3,0.8,0.8v4
				C64.6,11.1,64.3,11.5,63.9,11.5z"/>
		</g>
	</g>
</g>
</svg>
