<?xml version="1.0" encoding="utf-8"?>
<!-- Generator: Adobe Illustrator 19.0.0, SVG Export Plug-In . SVG Version: 6.00 Build 0)  -->
<svg version="1.1" id="Layer_1" xmlns="http://www.w3.org/2000/svg" xmlns:xlink="http://www.w3.org/1999/xlink" x="0px" y="0px"
	 viewBox="0 0 76.8 78.2" style="enable-background:new 0 0 76.8 78.2;" xml:space="preserve">
<style type="text/css">
	.st0{fill:#E8EAEB;}
	.st1{fill:#c2e1ff;}
	.st2{fill:#FFFFFF;}
	.st3{fill:#0984e3;}
</style>
<g>
	<g>
		<circle class="st0" cx="62.8" cy="42" r="14"/>
	</g>
	<g>
		<circle class="st0" cx="28.5" cy="12" r="12"/>
	</g>
	<g>
		<circle class="st0" cx="20" cy="58.2" r="20"/>
	</g>
	<g>
		<g>
			<path class="st1" d="M69.8,17h-64v42c0,1.1,0.9,2,2,2h60c1.1,0,2-0.9,2-2V17z"/>
		</g>
		<g>
			<path class="st2" d="M62.8,17h-57v35h54c1.7,0,3-1.3,3-3V17z"/>
		</g>
		<g>
			<path class="st3" d="M67.8,61.7h-60C6.2,61.7,5,60.5,5,59V17c0-0.4,0.3-0.8,0.8-0.8h64c0.4,0,0.8,0.3,0.8,0.8v42
				C70.5,60.5,69.3,61.7,67.8,61.7z M6.5,17.7V59c0,0.7,0.6,1.3,1.3,1.3h60c0.7,0,1.3-0.6,1.3-1.3V17.7H6.5z"/>
		</g>
		<g>
			<path class="st1" d="M69.8,17h-64V9c0-1.1,0.9-2,2-2h60c1.1,0,2,0.9,2,2V17z"/>
		</g>
		<g>
			<path class="st2" d="M63.8,14h-58V9c0-1.1,0.9-2,2-2h58v5C65.8,13.1,64.9,14,63.8,14z"/>
		</g>
		<g>
			<path class="st3" d="M63.8,13c-0.3,0-0.5-0.1-0.7-0.3c-0.2-0.2-0.3-0.4-0.3-0.7c0-0.3,0.1-0.5,0.3-0.7c0.4-0.4,1-0.4,1.4,0
				c0.2,0.2,0.3,0.4,0.3,0.7c0,0.3-0.1,0.5-0.3,0.7C64.3,12.9,64,13,63.8,13z"/>
		</g>
		<g>
			<path class="st3" d="M56.8,12c0-0.6,0.4-1,1-1l0,0c0.5,0,1,0.4,1,1l0,0c0,0.6-0.5,1-1,1l0,0C57.2,13,56.8,12.6,56.8,12z"/>
		</g>
		<g>
			<path class="st3" d="M51.8,13c-0.3,0-0.5-0.1-0.7-0.3c-0.2-0.2-0.3-0.4-0.3-0.7c0-0.3,0.1-0.5,0.3-0.7c0.4-0.4,1-0.4,1.4,0
				c0.2,0.2,0.3,0.4,0.3,0.7c0,0.3-0.1,0.5-0.3,0.7C52.3,12.9,52,13,51.8,13z"/>
		</g>
		<g>
			<path class="st3" d="M69.8,17.7h-64C5.3,17.7,5,17.4,5,17V9c0-1.5,1.2-2.8,2.8-2.8h60c1.5,0,2.8,1.2,2.8,2.8v8
				C70.5,17.4,70.2,17.7,69.8,17.7z M6.5,16.2H69V9c0-0.7-0.6-1.3-1.3-1.3h-60C7.1,7.7,6.5,8.3,6.5,9V16.2z"/>
		</g>
		<g>
			<path class="st3" d="M9.8,55.7C9.3,55.7,9,55.4,9,55v-9.7c0-0.4,0.3-0.8,0.8-0.8c0.4,0,0.8,0.3,0.8,0.8V55
				C10.5,55.4,10.2,55.7,9.8,55.7z"/>
		</g>
		<g>
			<path class="st3" d="M9.8,42C9.3,42,9,41.7,9,41.3V39c0-0.4,0.3-0.8,0.8-0.8c0.4,0,0.8,0.3,0.8,0.8v2.3C10.5,41.7,10.2,42,9.8,42
				z"/>
		</g>
		<g>
			<path class="st3" d="M65.8,40.7c-0.4,0-0.8-0.3-0.8-0.8V28.3c0-0.4,0.3-0.8,0.8-0.8c0.4,0,0.8,0.3,0.8,0.8V40
				C66.5,40.4,66.2,40.7,65.8,40.7z"/>
		</g>
		<g>
			<path class="st3" d="M65.8,25c-0.4,0-0.8-0.3-0.8-0.8V22c0-0.4,0.3-0.8,0.8-0.8c0.4,0,0.8,0.3,0.8,0.8v2.3
				C66.5,24.7,66.2,25,65.8,25z"/>
		</g>
		<g>
			<path class="st3" d="M37.8,51.7c-0.4,0-0.8-0.3-0.8-0.8V31c0-0.4,0.3-0.8,0.8-0.8c0.4,0,0.8,0.3,0.8,0.8v20
				C38.5,51.4,38.2,51.7,37.8,51.7z"/>
		</g>
		<g>
			<path class="st3" d="M27.8,47.7c-0.4,0-0.8-0.3-0.8-0.8v-8.7h-5.3c-0.4,0-0.8-0.3-0.8-0.8V31c0-0.4,0.3-0.8,0.8-0.8
				c0.4,0,0.8,0.3,0.8,0.8v5.7h5.3c0.4,0,0.8,0.3,0.8,0.8V47C28.5,47.4,28.2,47.7,27.8,47.7z"/>
		</g>
		<g>
			<path class="st3" d="M47.8,47.7c-0.4,0-0.8-0.3-0.8-0.8v-9.5c0-0.4,0.3-0.8,0.8-0.8H53V31c0-0.4,0.3-0.8,0.8-0.8s0.8,0.3,0.8,0.8
				v6.5c0,0.4-0.3,0.8-0.8,0.8h-5.3V47C48.5,47.4,48.2,47.7,47.8,47.7z"/>
		</g>
		<g>
			<path class="st1" d="M39.8,31h-4c-1.1,0-2-0.9-2-2v-4c0-1.1,0.9-2,2-2h4c1.1,0,2,0.9,2,2v4C41.8,30.1,40.9,31,39.8,31z"/>
		</g>
		<g>
			<path class="st2" d="M37.8,28h-4v-3c0-1.1,0.9-2,2-2h4v3C39.8,27.1,38.9,28,37.8,28z"/>
		</g>
		<g>
			<path class="st3" d="M39.8,31.7h-4c-1.5,0-2.8-1.2-2.8-2.8v-4c0-1.5,1.2-2.8,2.8-2.8h4c1.5,0,2.8,1.2,2.8,2.8v4
				C42.5,30.5,41.3,31.7,39.8,31.7z M35.8,23.7c-0.7,0-1.3,0.6-1.3,1.3v4c0,0.7,0.6,1.3,1.3,1.3h4c0.7,0,1.3-0.6,1.3-1.3v-4
				c0-0.7-0.6-1.3-1.3-1.3H35.8z"/>
		</g>
		<g>
			<path class="st1" d="M23.8,31h-4c-1.1,0-2-0.9-2-2v-4c0-1.1,0.9-2,2-2h4c1.1,0,2,0.9,2,2v4C25.8,30.1,24.9,31,23.8,31z"/>
		</g>
		<g>
			<path class="st2" d="M21.8,28h-4v-3c0-1.1,0.9-2,2-2h4v3C23.8,27.1,22.9,28,21.8,28z"/>
		</g>
		<g>
			<path class="st3" d="M23.8,31.7h-4c-1.5,0-2.8-1.2-2.8-2.8v-4c0-1.5,1.2-2.8,2.8-2.8h4c1.5,0,2.8,1.2,2.8,2.8v4
				C26.5,30.5,25.3,31.7,23.8,31.7z M19.8,23.7c-0.7,0-1.3,0.6-1.3,1.3v4c0,0.7,0.6,1.3,1.3,1.3h4c0.7,0,1.3-0.6,1.3-1.3v-4
				c0-0.7-0.6-1.3-1.3-1.3H19.8z"/>
		</g>
		<g>
			<path class="st1" d="M55.8,31h-4c-1.1,0-2-0.9-2-2v-4c0-1.1,0.9-2,2-2h4c1.1,0,2,0.9,2,2v4C57.8,30.1,56.9,31,55.8,31z"/>
		</g>
		<g>
			<path class="st2" d="M53.8,28h-4v-3c0-1.1,0.9-2,2-2h4v3C55.8,27.1,54.9,28,53.8,28z"/>
		</g>
		<g>
			<path class="st3" d="M55.8,31.7h-4c-1.5,0-2.8-1.2-2.8-2.8v-4c0-1.5,1.2-2.8,2.8-2.8h4c1.5,0,2.8,1.2,2.8,2.8v4
				C58.5,30.5,57.3,31.7,55.8,31.7z M51.8,23.7c-0.7,0-1.3,0.6-1.3,1.3v4c0,0.7,0.6,1.3,1.3,1.3h4c0.7,0,1.3-0.6,1.3-1.3v-4
				c0-0.7-0.6-1.3-1.3-1.3H51.8z"/>
		</g>
		<g>
			<path class="st2" d="M39.2,60.4c-1.9,0-3.6-1.4-3.9-3.3c-0.2-2,1.1-3.8,3-4.1c-0.4-0.6-0.5-1.4-0.3-2.2c0.3-1.2,1.2-2.2,2.4-2.4
				c1.1-0.2,2.1,0.1,2.8,0.8c0.4-2.8,2.7-5,5.6-5c2,0,3.8,1.1,4.8,2.8c0.9,1.4,1,2.7,0.8,4c1-0.2,2-0.1,3.2,0.4
				c1.4,0.7,2.4,2,2.6,3.5c0.4,3-1.9,5.5-4.8,5.5H39.2z"/>
		</g>
		<g>
			<path class="st1" d="M60.3,55.1c-0.2-1.8-1.4-3.3-3-4c-1-0.4-1.9-0.5-2.8-0.3c0.2-1.2,0.1-2.5-0.8-3.9c-1.1-1.7-2.9-2.9-5-2.8
				c-1.8,0-3.4,0.9-4.4,2.2c1.6-0.4,3.4-0.4,5.7,1.9c0.5,0.5,1,1.1,1.2,1.8c0.2,0.6,0.3,1.1,0.3,1.6c0,0.6,0.5,1.1,1.1,1.1
				c0.5,0,1,0.1,1.6,0.4c1.6,0.7,2.8,2.2,3,4c0.1,1.2-0.2,2.3-0.8,3.1C58.8,59.8,60.5,57.6,60.3,55.1z"/>
		</g>
		<g>
			<path class="st3" d="M55.5,61.1H39.2c-2.4,0-4.4-1.7-4.6-3.9c-0.2-2,0.9-3.9,2.7-4.7c-0.2-0.6-0.2-1.3-0.1-1.9
				c0.3-1.5,1.5-2.7,3-3c0.8-0.2,1.7-0.1,2.4,0.3c0.8-2.6,3.3-4.5,6.1-4.5c0,0,0,0,0,0c2.1,0,4.2,1.2,5.5,3.2c0.7,1.1,1,2.3,1,3.5
				c0.9,0,1.8,0.2,2.7,0.6c1.6,0.8,2.7,2.4,3,4.1c0.2,1.6-0.2,3.3-1.3,4.5C58.7,60.4,57.1,61.1,55.5,61.1z M41.1,49
				c-0.2,0-0.3,0-0.5,0.1c-0.9,0.2-1.7,0.9-1.9,1.8c-0.1,0.6,0,1.2,0.3,1.7c0.1,0.2,0.1,0.5,0,0.7c-0.1,0.2-0.3,0.4-0.5,0.4
				C37,54,35.9,55.4,36.1,57c0.2,1.5,1.6,2.6,3.1,2.6h16.3c1.2,0,2.3-0.5,3.1-1.4c0.8-0.9,1.1-2.1,0.9-3.3c-0.2-1.2-1-2.4-2.2-3
				c-0.9-0.4-1.7-0.6-2.7-0.4c-0.2,0-0.5,0-0.7-0.2c-0.2-0.2-0.3-0.4-0.2-0.7c0.2-1.2,0-2.3-0.7-3.4c-1-1.5-2.6-2.5-4.2-2.5
				c0,0,0,0,0,0c-2.5,0-4.6,1.9-4.9,4.3c0,0.3-0.2,0.5-0.5,0.6c-0.3,0.1-0.6,0-0.8-0.1C42.3,49.2,41.7,49,41.1,49z"/>
		</g>
		<g>
			<path class="st2" d="M44.1,65.2c3,0,5.4-2.4,5.4-5.4c0-2.6-1.9-4.8-4.4-5.3c0.4-0.7,0.6-1.4,0.6-2.3c0-2.5-2.1-4.6-4.6-4.6
				c-1.2,0-2.3,0.5-3.1,1.2c-0.5-4.1-4-7.2-8.2-7.2c-4.6,0-8.3,3.7-8.3,8.3c0,0.5,0.1,1,0.1,1.5c-0.5-0.1-0.9-0.2-1.4-0.2
				c-3.9,0-7,3.1-7,7s3.1,7,7,7H44.1z"/>
		</g>
		<g>
			<path class="st1" d="M49.5,59.8c0-2.6-1.9-4.8-4.4-5.3c0.5-0.9,0.7-2,0.5-3.1c-0.3-1.8-1.9-3.3-3.7-3.7c-1.5-0.3-2.9,0.2-3.9,1.1
				c-0.5-4.1-4-7.2-8.2-7.2c-4.1,0-7.4,2.9-8.1,6.8c1.4-1.1,3.2-1.8,5.1-1.8c3.7,0,6.9,2.5,7.9,5.9c0.2,0.6,0.9,0.9,1.4,0.6
				c0.8-0.4,1.7-0.5,2.7-0.4c1.9,0.3,3.4,1.8,3.7,3.7c0.2,1.1,0,2.2-0.5,3.1c2.5,0.5,4.3,2.6,4.4,5.2C48.3,63.8,49.5,61.9,49.5,59.8
				z"/>
		</g>
		<g>
			<path class="st3" d="M44.1,66H20.3c-4.3,0-7.7-3.5-7.7-7.7c0-4.4,3.8-8,8.3-7.7c0-0.2,0-0.4,0-0.6c0-5,4-9,9-9
				c4.1,0,7.7,2.8,8.7,6.7c0.8-0.4,1.7-0.7,2.6-0.7c2.9,0,5.3,2.4,5.3,5.3c0,0.6-0.1,1.2-0.3,1.8c2.4,0.9,4.1,3.2,4.1,5.8
				C50.3,63.2,47.5,66,44.1,66z M20.3,52c-3.4,0-6.2,2.8-6.2,6.2c0,3.4,2.8,6.2,6.2,6.2h23.8c2.6,0,4.7-2.1,4.7-4.7
				c0-2.2-1.6-4.2-3.8-4.6c-0.2,0-0.4-0.2-0.5-0.4s-0.1-0.5,0-0.7c0.3-0.6,0.5-1.2,0.5-1.9c0-2.1-1.7-3.8-3.8-3.8
				c-1,0-1.9,0.4-2.6,1c-0.2,0.2-0.5,0.2-0.8,0.1c-0.3-0.1-0.4-0.3-0.5-0.6c-0.5-3.7-3.7-6.6-7.5-6.6c-4.2,0-7.5,3.4-7.5,7.5
				c0,0.4,0,0.9,0.1,1.4c0,0.2,0,0.5-0.2,0.7c-0.2,0.2-0.4,0.2-0.7,0.2C21.1,52.1,20.7,52,20.3,52z"/>
		</g>
		<g>
			<path class="st2" d="M34.1,71c-2.5,0-4.4-2-4.4-4.4c0-2.2,1.6-4,3.6-4.4c-0.3-0.5-0.5-1.2-0.5-1.9c0-2.1,1.7-3.8,3.8-3.8
				c1,0,1.9,0.4,2.5,1c0.4-3.3,3.3-5.9,6.7-5.9c3.8,0,6.8,3,6.8,6.8c0,0.4,0,0.8-0.1,1.2c0.4-0.1,0.8-0.1,1.2-0.1
				c3.2,0,5.7,2.6,5.7,5.7c0,3.2-2.6,5.7-5.7,5.7H34.1z"/>
		</g>
		<g>
			<path class="st1" d="M59.3,64.8c-0.2-2.1-1.6-3.9-3.5-4.8c-1.2-0.5-2.3-0.6-3.4-0.3c0.3-1.4,0.1-3-1-4.7c-1.3-2-3.5-3.4-5.9-3.3
				c-2.6,0.1-4.8,1.6-5.8,3.7c0.8-0.4,1.7-0.7,2.7-0.7c2.8-0.1,5.3,1.6,6.5,4.2c0.4,0.8,0.6,1.6,0.6,2.4c0,0.8,0.6,1.3,1.4,1.4
				c0.7,0,1.5,0.2,2.3,0.7c1.5,0.8,2.7,2.2,3,3.9c0.2,1.2,0.1,2.4-0.4,3.4C58,69.6,59.5,67.3,59.3,64.8z"/>
		</g>
		<g>
			<path class="st3" d="M53.6,71.7H34.1c-2.9,0-5.2-2.3-5.2-5.2c0-2.2,1.4-4.1,3.3-4.8C32,61.3,32,60.8,32,60.3c0-2.5,2-4.5,4.5-4.5
				c0.7,0,1.4,0.2,2,0.5c0.9-3.2,3.9-5.4,7.2-5.4c4.2,0,7.5,3.4,7.5,7.5c0,0.1,0,0.3,0,0.4c3.8-0.2,6.8,2.8,6.8,6.5
				C60.1,68.8,57.2,71.7,53.6,71.7z M36.5,57.3c-1.7,0-3,1.4-3,3c0,0.5,0.1,1,0.4,1.5c0.1,0.2,0.1,0.5,0,0.7
				c-0.1,0.2-0.3,0.4-0.5,0.4c-1.7,0.3-3,1.9-3,3.6c0,2,1.7,3.7,3.7,3.7h19.5c2.7,0,5-2.2,5-5c0-3.1-2.8-5.5-6-4.9
				c-0.2,0.1-0.5,0-0.7-0.2c-0.2-0.2-0.3-0.4-0.2-0.7c0.1-0.4,0.1-0.8,0.1-1.1c0-3.3-2.7-6-6-6c-3,0-5.6,2.3-6,5.3
				c0,0.3-0.2,0.5-0.5,0.6c-0.3,0.1-0.6,0-0.8-0.1C38,57.6,37.2,57.3,36.5,57.3z"/>
		</g>
	</g>
</g>
</svg>
