<?xml version="1.0" encoding="utf-8"?>
<!-- Generator: Adobe Illustrator 19.0.0, SVG Export Plug-In . SVG Version: 6.00 Build 0)  -->
<svg version="1.1" id="Layer_1" xmlns="http://www.w3.org/2000/svg" xmlns:xlink="http://www.w3.org/1999/xlink" x="0px" y="0px"
	 viewBox="0 0 81 81" style="enable-background:new 0 0 81 81;" xml:space="preserve">
<style type="text/css">
	.st0{fill:#E8EAEB;}
	.st1{fill:#c2e1ff;}
	.st2{fill:#FFFFFF;}
	.st3{fill:#0984e3;}
</style>
<path class="st0" d="M26.5,79c-7.7,0-14-6.3-14-14c0-7.7,6.3-14,14-14c7.7,0,14,6.3,14,14C40.5,72.7,34.2,79,26.5,79"/>
<g>
	<circle class="st0" cx="67" cy="37.5" r="12"/>
</g>
<g>
	<circle class="st0" cx="22.7" cy="21.7" r="20"/>
</g>
<g>
	<g>
		<rect x="27.5" y="66.5" class="st1" width="26" height="6"/>
	</g>
	<g>
		<path class="st2" d="M50.5,66.5h-23v4h21c1.1,0,2-0.9,2-2V66.5z"/>
	</g>
	<g>
		<path class="st3" d="M53.5,73.2h-26c-0.4,0-0.8-0.3-0.8-0.8v-6c0-0.4,0.3-0.8,0.8-0.8h26c0.4,0,0.8,0.3,0.8,0.8v6
			C54.2,72.9,53.9,73.2,53.5,73.2z M28.2,71.7h24.5v-4.5H28.2V71.7z"/>
	</g>
	<g>
		<path class="st1" d="M69.5,66.5h-58c-1.7,0-3-1.3-3-3v-3h64v3C72.5,65.1,71.1,66.5,69.5,66.5z"/>
	</g>
	<g>
		<path class="st2" d="M67.5,64.5h-59v-4h61v2C69.5,63.6,68.6,64.5,67.5,64.5z"/>
	</g>
	<g>
		<path class="st3" d="M69.5,67.2h-58c-2.1,0-3.8-1.7-3.8-3.7v-3c0-0.4,0.3-0.8,0.8-0.8h64c0.4,0,0.8,0.3,0.8,0.8v3
			C73.2,65.6,71.6,67.2,69.5,67.2z M9.2,61.2v2.3c0,1.2,1,2.2,2.3,2.2h58c1.2,0,2.3-1,2.3-2.2v-2.3H9.2z"/>
	</g>
	<g>
		<path class="st3" d="M60.5,73.2h-40c-0.4,0-0.8-0.3-0.8-0.8c0-0.4,0.3-0.8,0.8-0.8h40c0.4,0,0.8,0.3,0.8,0.8
			C61.2,72.9,60.9,73.2,60.5,73.2z"/>
	</g>
	<g>
		<circle class="st3" cx="40.5" cy="63.5" r="0.8"/>
	</g>
	<g>
		<path class="st1" d="M72.5,60.5h-64v-37c0-1.7,1.3-3,3-3h58c1.7,0,3,1.3,3,3V60.5z"/>
	</g>
	<g>
		<path class="st2" d="M64.5,52.5h-56v-29c0-1.7,1.3-3,3-3h55v30C66.5,51.6,65.6,52.5,64.5,52.5z"/>
	</g>
	<g>
		<path class="st3" d="M72.5,61.2h-64c-0.4,0-0.8-0.3-0.8-0.8v-37c0-2.1,1.7-3.8,3.8-3.8h58c2.1,0,3.8,1.7,3.8,3.8v37
			C73.2,60.9,72.9,61.2,72.5,61.2z M9.2,59.7h62.5V23.5c0-1.2-1-2.3-2.3-2.3h-58c-1.2,0-2.3,1-2.3,2.3V59.7z"/>
	</g>
	<g>
		<rect x="18.5" y="16.5" class="st1" width="44" height="44"/>
	</g>
	<g>
		<path class="st2" d="M58.5,16.5h-40v40h23c9.4,0,17-7.6,17-17V16.5z"/>
	</g>
	<g>
		<path class="st3" d="M62.5,61.2h-44c-0.4,0-0.8-0.3-0.8-0.8v-44c0-0.4,0.3-0.8,0.8-0.8h44c0.4,0,0.8,0.3,0.8,0.8v44
			C63.2,60.9,62.9,61.2,62.5,61.2z M19.2,59.7h42.5V17.2H19.2V59.7z"/>
	</g>
	<g>
		<path class="st1" d="M60.5,8.5h-40c-1.1,0-2,0.9-2,2v6h44v-6C62.5,9.4,61.6,8.5,60.5,8.5z"/>
	</g>
	<g>
		<path class="st2" d="M59.5,8.5h-39c-1.1,0-2,0.9-2,2v4h39c1.1,0,2-0.9,2-2V8.5z"/>
	</g>
	<g>
		<path class="st3" d="M62.5,17.2h-44c-0.4,0-0.8-0.3-0.8-0.8v-6c0-1.5,1.2-2.8,2.8-2.8h40c1.5,0,2.8,1.2,2.8,2.8v6
			C63.2,16.9,62.9,17.2,62.5,17.2z M19.2,15.7h42.5v-5.3c0-0.7-0.6-1.3-1.3-1.3h-40c-0.7,0-1.3,0.6-1.3,1.3V15.7z"/>
	</g>
	<g>
		<path class="st3" d="M57.5,13.2c-0.2,0-0.4-0.1-0.5-0.2c-0.1-0.1-0.2-0.3-0.2-0.5c0-0.2,0.1-0.4,0.2-0.5c0.3-0.3,0.8-0.3,1.1,0
			c0.1,0.1,0.2,0.3,0.2,0.5c0,0.2-0.1,0.4-0.2,0.5C57.9,13.2,57.7,13.2,57.5,13.2z"/>
	</g>
	<g>
		<path class="st3" d="M52.2,12.5c0-0.4,0.3-0.8,0.8-0.8l0,0c0.4,0,0.8,0.3,0.8,0.8l0,0c0,0.4-0.3,0.8-0.8,0.8l0,0
			C52.6,13.2,52.2,12.9,52.2,12.5z"/>
	</g>
	<g>
		<path class="st3" d="M48.5,13.2c-0.2,0-0.4-0.1-0.5-0.2c-0.1-0.1-0.2-0.3-0.2-0.5c0-0.2,0.1-0.4,0.2-0.5c0.3-0.3,0.8-0.3,1.1,0
			c0.1,0.1,0.2,0.3,0.2,0.5c0,0.2-0.1,0.4-0.2,0.5C48.9,13.2,48.7,13.2,48.5,13.2z"/>
	</g>
	<g>
		<circle class="st2" cx="40.5" cy="38.5" r="15"/>
	</g>
	<g>
		<path class="st1" d="M48.9,26.1c1.6,2.4,2.6,5.3,2.6,8.4c0,8.3-6.7,15-15,15c-3.1,0-6-1-8.4-2.6c2.7,4,7.3,6.6,12.4,6.6
			c8.3,0,15-6.7,15-15C55.5,33.3,52.9,28.8,48.9,26.1z"/>
	</g>
	<g>
		<path class="st3" d="M40.5,54.2c-8.7,0-15.8-7.1-15.8-15.8s7.1-15.8,15.8-15.8c8.7,0,15.8,7.1,15.8,15.8S49.2,54.2,40.5,54.2z
			 M40.5,24.2c-7.9,0-14.3,6.4-14.3,14.3s6.4,14.3,14.3,14.3s14.3-6.4,14.3-14.3S48.3,24.2,40.5,24.2z"/>
	</g>
	<g>
		<path class="st3" d="M40.5,39.2c-0.1,0-0.2,0-0.3-0.1c-0.3-0.1-0.5-0.4-0.5-0.7v-15c0-0.4,0.3-0.8,0.8-0.8c0.4,0,0.8,0.3,0.8,0.8
			v13.2l9.4-9.3c0.3-0.3,0.8-0.3,1.1,0c0.3,0.3,0.3,0.8,0,1.1L41,39C40.9,39.2,40.7,39.2,40.5,39.2z"/>
	</g>
	<g>
		<path class="st3" d="M30.7,50.6c-0.2,0-0.3-0.1-0.5-0.2c-0.3-0.3-0.3-0.7-0.1-1.1L39.9,38c0.2-0.3,0.6-0.3,0.9-0.2l13,7.5
			c0.4,0.2,0.5,0.7,0.3,1c-0.2,0.4-0.7,0.5-1,0.3l-12.5-7.2l-9.4,10.9C31.1,50.5,30.9,50.6,30.7,50.6z"/>
	</g>
	<g>
		<circle class="st2" cx="40.5" cy="38.5" r="6.8"/>
	</g>
	<g>
		<path class="st1" d="M47.2,37.3c-0.3-1.9-1.5-3.5-3-4.5c0.5,0.7,0.8,1.6,1,2.5c0.7,3.7-1.8,7.3-5.5,7.9c-1.8,0.3-3.5-0.1-4.9-1
			c1.5,2.2,4.2,3.5,6.9,3C45.4,44.5,47.9,41,47.2,37.3z"/>
	</g>
	<g>
		<path class="st3" d="M40.5,46.1c-4.2,0-7.6-3.4-7.6-7.6c0-4.2,3.4-7.6,7.6-7.6c4.2,0,7.6,3.4,7.6,7.6
			C48.1,42.7,44.7,46.1,40.5,46.1z M40.5,32.4c-3.3,0-6.1,2.7-6.1,6.1s2.7,6.1,6.1,6.1s6.1-2.7,6.1-6.1S43.8,32.4,40.5,32.4z"/>
	</g>
	<g>
		<path class="st3" d="M12.5,41.9c-0.4,0-0.8-0.3-0.8-0.8v-7.7c0-0.4,0.3-0.8,0.8-0.8c0.4,0,0.8,0.3,0.8,0.8v7.7
			C13.2,41.6,12.9,41.9,12.5,41.9z"/>
	</g>
	<g>
		<path class="st3" d="M12.5,48.2c-0.4,0-0.8-0.3-0.8-0.8v-2.3c0-0.4,0.3-0.8,0.8-0.8c0.4,0,0.8,0.3,0.8,0.8v2.3
			C13.2,47.9,12.9,48.2,12.5,48.2z"/>
	</g>
	<g>
		<path class="st3" d="M68.5,49.9c-0.4,0-0.8-0.3-0.8-0.8V37.5c0-0.4,0.3-0.8,0.8-0.8s0.8,0.3,0.8,0.8v11.7
			C69.2,49.6,68.9,49.9,68.5,49.9z"/>
	</g>
	<g>
		<path class="st3" d="M68.5,56.2c-0.4,0-0.8-0.3-0.8-0.8v-2.3c0-0.4,0.3-0.8,0.8-0.8s0.8,0.3,0.8,0.8v2.3
			C69.2,55.9,68.9,56.2,68.5,56.2z"/>
	</g>
</g>
</svg>
