<?xml version="1.0" encoding="utf-8"?>
<!-- Generator: Adobe Illustrator 19.0.0, SVG Export Plug-In . SVG Version: 6.00 Build 0)  -->
<svg version="1.1" id="Layer_1" xmlns="http://www.w3.org/2000/svg" xmlns:xlink="http://www.w3.org/1999/xlink" x="0px" y="0px"
	 viewBox="0 0 77.6 82" style="enable-background:new 0 0 77.6 82;" xml:space="preserve">
<style type="text/css">
	.st0{fill:#E8EAEB;}
	.st1{fill:#c2e1ff;}
	.st2{fill:#FFFFFF;}
	.st3{fill:#0984e3;}
</style>
<g>
	<g>
		<circle class="st0" cx="34" cy="68" r="14"/>
	</g>
	<g>
		<circle class="st0" cx="65.6" cy="36" r="12"/>
	</g>
	<g>
		<circle class="st0" cx="20" cy="20" r="20"/>
	</g>
	<g>
		<g>
			<path class="st1" d="M10.5,20h51v52c0,1.1-0.9,2-2,2h-47c-1.1,0-2-0.9-2-2V20z"/>
		</g>
		<g>
			<path class="st2" d="M10.5,20h47v50c0,0.6-0.4,1-1,1h-46V20z"/>
		</g>
		<g>
			<path class="st3" d="M59.5,74.8h-47c-1.5,0-2.8-1.2-2.8-2.8V20c0-0.4,0.3-0.8,0.8-0.8h51c0.4,0,0.8,0.3,0.8,0.8v52
				C62.2,73.5,61,74.8,59.5,74.8z M11.3,20.8V72c0,0.7,0.6,1.3,1.3,1.3h47c0.7,0,1.3-0.6,1.3-1.3V20.8H11.3z"/>
		</g>
		<g>
			<path class="st1" d="M59.5,10h-47c-1.1,0-2,0.9-2,2v8h51v-8C61.5,10.9,60.6,10,59.5,10z"/>
		</g>
		<g>
			<path class="st2" d="M58.5,10h-46c-1.1,0-2,0.9-2,2v5h46c1.1,0,2-0.9,2-2V10z"/>
		</g>
		<g>
			<path class="st3" d="M61.5,20.8h-51c-0.4,0-0.8-0.3-0.8-0.8v-8c0-1.5,1.2-2.8,2.8-2.8h47c1.5,0,2.8,1.2,2.8,2.8v8
				C62.2,20.4,61.9,20.8,61.5,20.8z M11.3,19.3h49.5V12c0-0.7-0.6-1.3-1.3-1.3h-47c-0.7,0-1.3,0.6-1.3,1.3V19.3z"/>
		</g>
		<g>
			<path class="st3" d="M46.5,16c-0.3,0-0.5-0.1-0.7-0.3c-0.2-0.2-0.3-0.4-0.3-0.7c0-0.3,0.1-0.5,0.3-0.7c0.4-0.4,1.1-0.4,1.4,0
				c0.2,0.2,0.3,0.4,0.3,0.7c0,0.3-0.1,0.5-0.3,0.7C47,15.9,46.8,16,46.5,16z"/>
		</g>
		<g>
			<path class="st3" d="M50.5,15c0-0.5,0.5-1,1-1l0,0c0.6,0,1,0.5,1,1l0,0c0,0.5-0.4,1-1,1l0,0C50.9,16,50.5,15.6,50.5,15z"/>
		</g>
		<g>
			<path class="st3" d="M56.5,16c-0.3,0-0.5-0.1-0.7-0.3c-0.2-0.2-0.3-0.4-0.3-0.7c0-0.3,0.1-0.5,0.3-0.7c0.4-0.4,1.1-0.4,1.4,0
				c0.2,0.2,0.3,0.4,0.3,0.7c0,0.3-0.1,0.5-0.3,0.7C57,15.9,56.8,16,56.5,16z"/>
		</g>
		<g>
			
				<rect x="57.2" y="56.6" transform="matrix(-0.7071 0.7071 -0.7071 -0.7071 145.3539 59.5004)" class="st1" width="6.4" height="6.5"/>
		</g>
		<g>
			<path id="XMLID_1_" class="st2" d="M58.9,62.9l2.3-2.3c0.4-0.4,0.4-1,0-1.4l-2.4-2.4l-3,3L58.9,62.9z"/>
		</g>
		<g>
			<path class="st3" d="M60.4,65.2c-0.2,0-0.4-0.1-0.5-0.2l-4.6-4.6c-0.3-0.3-0.3-0.8,0-1.1l4.5-4.5c0.3-0.3,0.8-0.3,1.1,0l4.6,4.6
				c0.3,0.3,0.3,0.8,0,1.1l-4.5,4.5C60.8,65.1,60.6,65.2,60.4,65.2z M56.9,59.8l3.6,3.6l3.4-3.4l-3.6-3.6L56.9,59.8z"/>
		</g>
		<g>
			
				<rect x="61.2" y="60.8" transform="matrix(-0.7071 0.7071 -0.7071 -0.7071 158.6864 65.0229)" class="st1" width="9.4" height="9.1"/>
		</g>
		<g>
			<path class="st2" d="M63.8,69.9l3.2-3.2c0.8-0.8,0.8-2,0-2.8l-3-3l-4.6,4.6L63.8,69.9z"/>
		</g>
		<g>
			<path class="st3" d="M65.8,72.7L65.8,72.7c-0.2,0-0.4-0.1-0.5-0.2L58.8,66c-0.3-0.3-0.3-0.8,0-1.1l6.6-6.6c0.3-0.3,0.8-0.3,1.1,0
				l6.4,6.4c0.1,0.1,0.2,0.3,0.2,0.5c0,0.2-0.1,0.4-0.2,0.5l-6.6,6.6C66.2,72.6,66,72.7,65.8,72.7z M60.4,65.5l5.4,5.4l5.6-5.6
				L66,59.9L60.4,65.5z"/>
		</g>
		<g>
			<path class="st2" d="M71.4,73.1l2.2-2.2c1.2-1.2,1.2-3.2,0-4.4l-1.2-1.2l-6.6,6.6l1.2,1.2C68.2,74.3,70.2,74.3,71.4,73.1z"/>
		</g>
		<g>
			<path class="st1" d="M70.4,67.3l1.2,1.2c1.2,1.2,1.2,3.2,0,4.4l-0.2,0.2l0,0l2.2-2.2c1.2-1.2,1.2-3.2,0-4.4l-1.2-1.2L70.4,67.3z"
				/>
		</g>
		<g>
			<path class="st3" d="M69.2,74.8c-1,0-2-0.4-2.7-1.1l-1.2-1.2c-0.1-0.1-0.2-0.3-0.2-0.5c0-0.2,0.1-0.4,0.2-0.5l6.6-6.6
				c0.3-0.3,0.8-0.3,1.1,0l1.2,1.2c1.5,1.5,1.5,4,0,5.5l-2.2,2.2C71.2,74.4,70.2,74.8,69.2,74.8z M66.8,71.9l0.7,0.7
				c0.9,0.9,2.4,0.9,3.4,0l2.2-2.2c0.9-0.9,0.9-2.4,0-3.4l-0.7-0.7L66.8,71.9z"/>
		</g>
		<g>
			<circle class="st2" cx="47.8" cy="47.3" r="17"/>
		</g>
		<g>
			<path class="st1" d="M58.5,34.1c2.4,2.9,3.8,6.6,3.8,10.7c0,9.4-7.6,17-17,17c-4.1,0-7.8-1.4-10.7-3.8c3.1,3.8,7.9,6.3,13.2,6.3
				c9.4,0,17-7.6,17-17C64.8,42,62.4,37.2,58.5,34.1z"/>
		</g>
		<g>
			<path class="st3" d="M47.8,65.1c-9.8,0-17.7-8-17.7-17.8s8-17.7,17.7-17.7c9.8,0,17.8,8,17.8,17.7S57.6,65.1,47.8,65.1z
				 M47.8,31.1c-9,0-16.2,7.3-16.2,16.2c0,9,7.3,16.3,16.2,16.3c9,0,16.3-7.3,16.3-16.3C64.1,38.4,56.8,31.1,47.8,31.1z"/>
		</g>
		<g>
			<path class="st1" d="M52.3,56.6h-9c-2.2,0-4-1.8-4-4v-8c0-0.6,0.4-1,1-1h15c0.6,0,1,0.4,1,1v8C56.3,54.8,54.5,56.6,52.3,56.6z"/>
		</g>
		<g>
			<path class="st2" d="M56.3,52.6h-13c-1.1,0-2-0.9-2-2v-7h14c0.6,0,1,0.4,1,1V52.6z"/>
		</g>
		<g>
			<path class="st3" d="M52.3,57.4h-9c-2.6,0-4.8-2.1-4.8-4.8v-8c0-1,0.8-1.8,1.8-1.8h15c1,0,1.8,0.8,1.8,1.8v8
				C57.1,55.2,54.9,57.4,52.3,57.4z M40.3,44.4c-0.1,0-0.3,0.1-0.3,0.3v8c0,1.8,1.5,3.3,3.3,3.3h9c1.8,0,3.3-1.5,3.3-3.3v-8
				c0-0.1-0.1-0.3-0.3-0.3H40.3z"/>
		</g>
		<g>
			<path class="st3" d="M52.3,47.4c-0.4,0-0.8-0.3-0.8-0.8v-6c0-1.2-1-2.3-2.3-2.3h-3c-1.2,0-2.3,1-2.3,2.3v6c0,0.4-0.3,0.8-0.8,0.8
				c-0.4,0-0.8-0.3-0.8-0.8v-6c0-2.1,1.7-3.8,3.8-3.8h3c2.1,0,3.8,1.7,3.8,3.8v6C53.1,47,52.7,47.4,52.3,47.4z"/>
		</g>
		<g>
			<path class="st1" d="M24.5,36h-6c-1.1,0-2-0.9-2-2v-6c0-1.1,0.9-2,2-2h6c1.1,0,2,0.9,2,2v6C26.5,35.1,25.6,36,24.5,36z"/>
		</g>
		<g>
			<path class="st2" d="M22.5,33h-6v-5c0-1.1,0.9-2,2-2h5v6C23.5,32.6,23.1,33,22.5,33z"/>
		</g>
		<g>
			<path class="st3" d="M24.5,36.8h-6c-1.5,0-2.7-1.2-2.7-2.8v-6c0-1.5,1.2-2.8,2.7-2.8h6c1.5,0,2.8,1.2,2.8,2.8v6
				C27.3,35.5,26,36.8,24.5,36.8z M18.5,26.8c-0.7,0-1.3,0.6-1.3,1.3v6c0,0.7,0.6,1.3,1.3,1.3h6c0.7,0,1.3-0.6,1.3-1.3v-6
				c0-0.7-0.6-1.3-1.3-1.3H18.5z"/>
		</g>
		<g>
			<path class="st1" d="M24.5,52h-6c-1.1,0-2-0.9-2-2v-6c0-1.1,0.9-2,2-2h6c1.1,0,2,0.9,2,2v6C26.5,51.1,25.6,52,24.5,52z"/>
		</g>
		<g>
			<path class="st2" d="M22.5,49h-6v-5c0-1.1,0.9-2,2-2h5v6C23.5,48.6,23.1,49,22.5,49z"/>
		</g>
		<g>
			<path class="st3" d="M24.5,52.8h-6c-1.5,0-2.7-1.2-2.7-2.8v-6c0-1.5,1.2-2.8,2.7-2.8h6c1.5,0,2.8,1.2,2.8,2.8v6
				C27.3,51.5,26,52.8,24.5,52.8z M18.5,42.8c-0.7,0-1.3,0.6-1.3,1.3v6c0,0.7,0.6,1.3,1.3,1.3h6c0.7,0,1.3-0.6,1.3-1.3v-6
				c0-0.7-0.6-1.3-1.3-1.3H18.5z"/>
		</g>
		<g>
			<path class="st1" d="M24.5,68h-6c-1.1,0-2-0.9-2-2v-6c0-1.1,0.9-2,2-2h6c1.1,0,2,0.9,2,2v6C26.5,67.1,25.6,68,24.5,68z"/>
		</g>
		<g>
			<path class="st2" d="M22.5,65h-6v-5c0-1.1,0.9-2,2-2h5v6C23.5,64.6,23.1,65,22.5,65z"/>
		</g>
		<g>
			<path class="st3" d="M24.5,68.8h-6c-1.5,0-2.7-1.2-2.7-2.8v-6c0-1.5,1.2-2.8,2.7-2.8h6c1.5,0,2.8,1.2,2.8,2.8v6
				C27.3,67.5,26,68.8,24.5,68.8z M18.5,58.8c-0.7,0-1.3,0.6-1.3,1.3v6c0,0.7,0.6,1.3,1.3,1.3h6c0.7,0,1.3-0.6,1.3-1.3v-6
				c0-0.7-0.6-1.3-1.3-1.3H18.5z"/>
		</g>
		<g>
			<path class="st3" d="M55.5,26.8H48c-0.4,0-0.8-0.3-0.8-0.8c0-0.4,0.3-0.8,0.8-0.8h7.5c0.4,0,0.8,0.3,0.8,0.8
				C56.2,26.4,55.9,26.8,55.5,26.8z"/>
		</g>
		<g>
			<path class="st3" d="M44,26.8H32.5c-0.4,0-0.8-0.3-0.8-0.8c0-0.4,0.3-0.8,0.8-0.8H44c0.4,0,0.8,0.3,0.8,0.8
				C44.7,26.4,44.4,26.8,44,26.8z"/>
		</g>
		<g>
			<path class="st3" d="M36,31.8h-3.5c-0.4,0-0.8-0.3-0.8-0.8c0-0.4,0.3-0.8,0.8-0.8H36c0.4,0,0.8,0.3,0.8,0.8
				C36.8,31.4,36.4,31.8,36,31.8z"/>
		</g>
		<g>
			<path class="st3" d="M36,63.8h-3.5c-0.4,0-0.8-0.3-0.8-0.8c0-0.4,0.3-0.8,0.8-0.8H36c0.4,0,0.8,0.3,0.8,0.8
				C36.8,63.4,36.4,63.8,36,63.8z"/>
		</g>
		<g>
			<path class="st3" d="M50,68.8H32.5c-0.4,0-0.8-0.3-0.8-0.8s0.3-0.8,0.8-0.8H50c0.4,0,0.8,0.3,0.8,0.8S50.4,68.8,50,68.8z"/>
		</g>
		<g>
			<path class="st3" d="M69.5,17.8h-4c-0.4,0-0.8-0.3-0.8-0.8c0-0.4,0.3-0.8,0.8-0.8h4c0.4,0,0.8,0.3,0.8,0.8
				C70.3,17.4,69.9,17.8,69.5,17.8z"/>
		</g>
		<g>
			<path class="st3" d="M67.5,19.8c-0.4,0-0.8-0.3-0.8-0.8v-4c0-0.4,0.3-0.8,0.8-0.8s0.8,0.3,0.8,0.8v4
				C68.3,19.4,67.9,19.8,67.5,19.8z"/>
		</g>
		<g>
			<circle class="st3" cx="67.5" cy="23" r="0.8"/>
		</g>
		<g>
			<circle class="st3" cx="67.5" cy="26" r="0.8"/>
		</g>
		<g>
			<circle class="st3" cx="67.5" cy="31" r="0.8"/>
		</g>
		<g>
			<circle class="st3" cx="67.5" cy="37" r="0.8"/>
		</g>
		<g>
			<path class="st3" d="M74.5,50.5h-4c-0.4,0-0.8-0.3-0.8-0.8c0-0.4,0.3-0.8,0.8-0.8h4c0.4,0,0.8,0.3,0.8,0.8
				C75.3,50.2,74.9,50.5,74.5,50.5z"/>
		</g>
		<g>
			<path class="st3" d="M72.5,52.5c-0.4,0-0.8-0.3-0.8-0.8v-4c0-0.4,0.3-0.8,0.8-0.8s0.8,0.3,0.8,0.8v4
				C73.3,52.2,72.9,52.5,72.5,52.5z"/>
		</g>
		<g>
			<circle class="st3" cx="72.5" cy="43.8" r="0.8"/>
		</g>
		<g>
			<circle class="st3" cx="72.5" cy="39.8" r="0.8"/>
		</g>
		<g>
			<circle class="st3" cx="72.5" cy="34.8" r="0.8"/>
		</g>
	</g>
</g>
</svg>
