<?xml version="1.0" encoding="utf-8"?>
<!-- Generator: Adobe Illustrator 19.0.0, SVG Export Plug-In . SVG Version: 6.00 Build 0)  -->
<svg version="1.1" id="Layer_1" xmlns="http://www.w3.org/2000/svg" xmlns:xlink="http://www.w3.org/1999/xlink" x="0px" y="0px"
	 viewBox="0 0 74.4 76.8" style="enable-background:new 0 0 74.4 76.8;" xml:space="preserve">
<style type="text/css">
	.st0{fill:#E8EAEB;}
	.st1{fill:#0984e3;}
	.st2{fill:#c2e1ff;}
	.st3{fill:#FFFFFF;}
</style>
<g>
	<g>
		<circle class="st0" cx="60.4" cy="33.5" r="14"/>
	</g>
	<g>
		<circle class="st0" cx="32.1" cy="12" r="12"/>
	</g>
	<g>
		<circle class="st0" cx="20" cy="56.8" r="20"/>
	</g>
	<g>
		<g>
			<path class="st1" d="M31.1,6.8H14.4c-0.4,0-0.8-0.3-0.8-0.8c0-0.4,0.3-0.8,0.8-0.8h16.7c0.4,0,0.8,0.3,0.8,0.8
				C31.8,6.4,31.5,6.8,31.1,6.8z"/>
		</g>
		<g>
			<path class="st1" d="M37.4,6.8h-2.3c-0.4,0-0.8-0.3-0.8-0.8c0-0.4,0.3-0.8,0.8-0.8h2.3c0.4,0,0.8,0.3,0.8,0.8
				C38.1,6.4,37.8,6.8,37.4,6.8z"/>
		</g>
		<g>
			<path class="st1" d="M70.4,39.7h-4c-0.4,0-0.8-0.3-0.8-0.8s0.3-0.8,0.8-0.8h4c0.4,0,0.8,0.3,0.8,0.8S70.8,39.7,70.4,39.7z"/>
		</g>
		<g>
			<path class="st1" d="M68.4,41.7c-0.4,0-0.8-0.3-0.8-0.8v-4c0-0.4,0.3-0.8,0.8-0.8c0.4,0,0.8,0.3,0.8,0.8v4
				C69.1,41.4,68.8,41.7,68.4,41.7z"/>
		</g>
		<g>
			<circle class="st1" cx="68.4" cy="32.9" r="0.8"/>
		</g>
		<g>
			<circle class="st1" cx="68.4" cy="29.9" r="0.8"/>
		</g>
		<g>
			<circle class="st1" cx="68.4" cy="24.9" r="0.8"/>
		</g>
		<g>
			<circle class="st1" cx="68.4" cy="18.9" r="0.8"/>
		</g>
		<g>
			<rect x="24.4" y="64" class="st2" width="20" height="6"/>
		</g>
		<g>
			<path class="st3" d="M41.4,64h-17v3h16c0.6,0,1-0.4,1-1V64z"/>
		</g>
		<g>
			<path class="st1" d="M44.4,70.8h-20c-0.4,0-0.8-0.3-0.8-0.8v-6c0-0.4,0.3-0.7,0.8-0.7h20c0.4,0,0.8,0.3,0.8,0.7v6
				C45.1,70.4,44.8,70.8,44.4,70.8z M25.1,69.3h18.5v-4.5H25.1V69.3z"/>
		</g>
		<g>
			<path class="st2" d="M59.4,64h-50c-1.7,0-3-1.3-3-3v-3h56v3C62.4,62.7,61,64,59.4,64z"/>
		</g>
		<g>
			<path class="st3" d="M46.4,61h-40v-3h41v2C47.4,60.6,46.9,61,46.4,61z"/>
		</g>
		<g>
			<path class="st1" d="M59.4,64.8h-50c-2.1,0-3.7-1.7-3.7-3.7v-3c0-0.4,0.3-0.8,0.8-0.8h56c0.4,0,0.8,0.3,0.8,0.8v3
				C63.1,63.1,61.4,64.8,59.4,64.8z M7.1,58.8V61c0,1.2,1,2.3,2.2,2.3h50c1.2,0,2.3-1,2.3-2.3v-2.3H7.1z"/>
		</g>
		<g>
			<path class="st1" d="M54.4,70.8h-40c-0.4,0-0.8-0.3-0.8-0.8s0.3-0.8,0.8-0.8h40c0.4,0,0.8,0.3,0.8,0.8S54.8,70.8,54.4,70.8z"/>
		</g>
		<g>
			<path class="st2" d="M62.4,58h-56V13c0-1.7,1.3-3,3-3h50c1.7,0,3,1.3,3,3V58z"/>
		</g>
		<g>
			<path class="st3" d="M57.4,55h-51V13c0-1.7,1.3-3,3-3h50v43C59.4,54.1,58.5,55,57.4,55z"/>
		</g>
		<g>
			<path class="st1" d="M62.4,58.8h-56c-0.4,0-0.8-0.3-0.8-0.8V13c0-2.1,1.7-3.8,3.7-3.8h50c2.1,0,3.8,1.7,3.8,3.8v45
				C63.1,58.4,62.8,58.8,62.4,58.8z M7.1,57.3h54.5V13c0-1.2-1-2.3-2.3-2.3h-50c-1.2,0-2.2,1-2.2,2.3V57.3z"/>
		</g>
		<g>
			<path class="st2" d="M21.4,25h-9v-7c0-1.1,0.9-2,2-2h5c1.1,0,2,0.9,2,2V25z"/>
		</g>
		<g>
			<path class="st3" d="M17.4,22h-5v-4c0-1.1,0.9-2,2-2h4v5C18.4,21.6,17.9,22,17.4,22z"/>
		</g>
		<g>
			<path class="st1" d="M21.4,25.8h-9c-0.4,0-0.8-0.3-0.8-0.8v-7c0-1.5,1.2-2.7,2.8-2.7h5c1.5,0,2.8,1.2,2.8,2.7v7
				C22.1,25.4,21.8,25.8,21.4,25.8z M13.1,24.3h7.5V18c0-0.7-0.6-1.3-1.3-1.3h-5c-0.7,0-1.3,0.6-1.3,1.3V24.3z"/>
		</g>
		<g>
			<rect x="12.4" y="25" class="st2" width="9" height="9"/>
		</g>
		<g>
			<path class="st3" d="M17.4,31h-5v-6h6v5C18.4,30.6,17.9,31,17.4,31z"/>
		</g>
		<g>
			<path class="st1" d="M21.4,34.8h-9c-0.4,0-0.8-0.3-0.8-0.8v-9c0-0.4,0.3-0.8,0.8-0.8h9c0.4,0,0.8,0.3,0.8,0.8v9
				C22.1,34.4,21.8,34.8,21.4,34.8z M13.1,33.3h7.5v-7.5h-7.5V33.3z"/>
		</g>
		<g>
			<rect x="12.4" y="34" class="st2" width="9" height="9"/>
		</g>
		<g>
			<path class="st3" d="M17.4,40h-5v-6h6v5C18.4,39.6,17.9,40,17.4,40z"/>
		</g>
		<g>
			<path class="st1" d="M21.4,43.8h-9c-0.4,0-0.8-0.3-0.8-0.8v-9c0-0.4,0.3-0.8,0.8-0.8h9c0.4,0,0.8,0.3,0.8,0.8v9
				C22.1,43.4,21.8,43.8,21.4,43.8z M13.1,42.3h7.5v-7.5h-7.5V42.3z"/>
		</g>
		<g>
			<path class="st2" d="M19.4,52h-5c-1.1,0-2-0.9-2-2v-7h9v7C21.4,51.1,20.5,52,19.4,52z"/>
		</g>
		<g>
			<path class="st3" d="M17.4,49h-5v-6h6v5C18.4,48.6,17.9,49,17.4,49z"/>
		</g>
		<g>
			<path class="st1" d="M19.4,52.8h-5c-1.5,0-2.8-1.2-2.8-2.8v-7c0-0.4,0.3-0.8,0.8-0.8h9c0.4,0,0.8,0.3,0.8,0.8v7
				C22.1,51.5,20.9,52.8,19.4,52.8z M13.1,43.8V50c0,0.7,0.6,1.3,1.3,1.3h5c0.7,0,1.3-0.6,1.3-1.3v-6.3H13.1z"/>
		</g>
		<g>
			<path class="st2" d="M54.4,52h-25c-1.1,0-2-0.9-2-2V18c0-1.1,0.9-2,2-2h25c1.1,0,2,0.9,2,2v32C56.4,51.1,55.5,52,54.4,52z"/>
		</g>
		<g>
			<path class="st3" d="M52.4,49h-25V18c0-1.1,0.9-2,2-2h24v32C53.4,48.6,52.9,49,52.4,49z"/>
		</g>
		<g>
			<path class="st1" d="M54.4,52.8h-25c-1.5,0-2.8-1.2-2.8-2.8V18c0-1.5,1.2-2.7,2.8-2.7h25c1.5,0,2.8,1.2,2.8,2.7v32
				C57.1,51.5,55.9,52.8,54.4,52.8z M29.4,16.8c-0.7,0-1.3,0.6-1.3,1.3v32c0,0.7,0.6,1.3,1.3,1.3h25c0.7,0,1.3-0.6,1.3-1.3V18
				c0-0.7-0.6-1.3-1.3-1.3H29.4z"/>
		</g>
		<g>
			<rect x="32.4" y="23" class="st3" width="10" height="10"/>
		</g>
		<g>
			<path class="st2" d="M40.2,23c-0.8,3.9-3.9,7-7.8,7.8V33h10V23H40.2z"/>
		</g>
		<g>
			<path class="st1" d="M42.4,33.8h-10c-0.4,0-0.8-0.3-0.8-0.8V23c0-0.4,0.3-0.8,0.8-0.8h10c0.4,0,0.8,0.3,0.8,0.8v10
				C43.1,33.4,42.8,33.8,42.4,33.8z M33.1,32.3h8.5v-8.5h-8.5V32.3z"/>
		</g>
		<g>
			<circle class="st3" cx="43.4" cy="36" r="7"/>
		</g>
		<g>
			<path class="st2" d="M46.6,29.8c0.5,1,0.8,2.1,0.8,3.2c0,3.9-3.1,7-7,7c-1.2,0-2.3-0.3-3.2-0.8c1.2,2.2,3.5,3.8,6.2,3.8
				c3.9,0,7-3.1,7-7C50.4,33.3,48.8,31,46.6,29.8z"/>
		</g>
		<g>
			<path class="st1" d="M43.4,43.8c-4.3,0-7.8-3.5-7.8-7.8c0-4.3,3.5-7.8,7.8-7.8c4.3,0,7.8,3.5,7.8,7.8
				C51.1,40.3,47.7,43.8,43.4,43.8z M43.4,29.8c-3.4,0-6.3,2.8-6.3,6.3c0,3.4,2.8,6.3,6.3,6.3c3.4,0,6.3-2.8,6.3-6.3
				C49.6,32.6,46.8,29.8,43.4,29.8z"/>
		</g>
		<g>
			<circle class="st3" cx="37.4" cy="42" r="5"/>
		</g>
		<g>
			<path class="st2" d="M39.8,37.6c0.4,0.7,0.6,1.5,0.6,2.4c0,2.8-2.2,5-5,5c-0.9,0-1.7-0.2-2.4-0.6c0.8,1.6,2.5,2.6,4.4,2.6
				c2.8,0,5-2.2,5-5C42.4,40.1,41.3,38.5,39.8,37.6z"/>
		</g>
		<g>
			<path class="st1" d="M37.4,47.8c-3.2,0-5.8-2.6-5.8-5.8c0-3.2,2.6-5.8,5.8-5.8s5.8,2.6,5.8,5.8C43.1,45.2,40.6,47.8,37.4,47.8z
				 M37.4,37.8c-2.3,0-4.3,1.9-4.3,4.3s1.9,4.3,4.3,4.3c2.3,0,4.3-1.9,4.3-4.3S39.7,37.8,37.4,37.8z"/>
		</g>
		<g>
			<circle class="st3" cx="49.4" cy="23" r="2"/>
		</g>
		<g>
			<path class="st1" d="M49.4,25.8c-1.5,0-2.8-1.2-2.8-2.8s1.2-2.8,2.8-2.8c1.5,0,2.8,1.2,2.8,2.8S50.9,25.8,49.4,25.8z M49.4,21.8
				c-0.7,0-1.3,0.6-1.3,1.3c0,0.7,0.6,1.3,1.3,1.3c0.7,0,1.3-0.6,1.3-1.3C50.6,22.3,50.1,21.8,49.4,21.8z"/>
		</g>
		<g>
			<path class="st2" d="M63.4,48h-12c-0.6,0-1,0.4-1,1v17c0,2.2,1.8,4,4,4h6c2.2,0,4-1.8,4-4V49C64.4,48.5,63.9,48,63.4,48z"/>
		</g>
		<g>
			<path class="st3" d="M61.4,48h-10c-0.6,0-1,0.4-1,1v15c0,1.7,1.3,3,3,3h6c1.1,0,2-0.9,2-2V48z"/>
		</g>
		<g>
			<path class="st1" d="M60.4,70.8h-6c-2.6,0-4.8-2.1-4.8-4.8V49c0-1,0.8-1.8,1.8-1.8h12c1,0,1.8,0.8,1.8,1.8v17
				C65.1,68.6,63,70.8,60.4,70.8z M51.4,48.8c-0.1,0-0.3,0.1-0.3,0.3v17c0,1.8,1.5,3.3,3.3,3.3h6c1.8,0,3.3-1.5,3.3-3.3V49
				c0-0.1-0.1-0.3-0.3-0.3H51.4z"/>
		</g>
		<g>
			<path class="st1" d="M66.4,66.8h-2c-0.4,0-0.8-0.3-0.8-0.8V52c0-0.4,0.3-0.8,0.8-0.8h2c2.6,0,4.8,2.1,4.8,4.8v6
				C71.1,64.6,69,66.8,66.4,66.8z M65.1,65.3h1.3c1.8,0,3.3-1.5,3.3-3.2v-6c0-1.8-1.5-3.3-3.3-3.3h-1.3V65.3z"/>
		</g>
	</g>
</g>
</svg>
