<?xml version="1.0" encoding="utf-8"?>
<!-- Generator: Adobe Illustrator 19.0.0, SVG Export Plug-In . SVG Version: 6.00 Build 0)  -->
<svg version="1.1" id="Layer_1" xmlns="http://www.w3.org/2000/svg" xmlns:xlink="http://www.w3.org/1999/xlink" x="0px" y="0px"
	 viewBox="0 0 78.4 75.8" style="enable-background:new 0 0 78.4 75.8;" xml:space="preserve">
<style type="text/css">
	.st0{fill:#E8EAEB;}
	.st1{fill:#c2e1ff;}
	.st2{fill:#FFFFFF;}
	.st3{fill:#0984e3;}
</style>
<g>
	<g>
		<circle class="st0" cx="64.4" cy="33.5" r="14"/>
	</g>
	<g>
		<circle class="st0" cx="35.1" cy="12" r="12"/>
	</g>
	<g>
		<circle class="st0" cx="20" cy="55.8" r="20"/>
	</g>
	<g>
		<g>
			<rect x="23.2" y="61.4" class="st1" width="24" height="6"/>
		</g>
		<g>
			<path class="st2" d="M37.2,61.4h-14v3h13c0.6,0,1-0.4,1-1V61.4z"/>
		</g>
		<g>
			<path class="st3" d="M47.2,68.1h-24c-0.4,0-0.8-0.3-0.8-0.8v-6c0-0.4,0.3-0.8,0.8-0.8h24c0.4,0,0.8,0.3,0.8,0.8v6
				C47.9,67.8,47.6,68.1,47.2,68.1z M23.9,66.6h22.5v-4.5H23.9V66.6z"/>
		</g>
		<g>
			<path class="st1" d="M60.2,61.4h-50c-1.7,0-3-1.3-3-3v-3h56v3C63.2,60,61.8,61.4,60.2,61.4z"/>
		</g>
		<g>
			<path class="st2" d="M36.2,58.4h-29v-3h30v2C37.2,57.9,36.7,58.4,36.2,58.4z"/>
		</g>
		<g>
			<path class="st3" d="M60.2,62.1h-50c-2.1,0-3.8-1.7-3.8-3.8v-3c0-0.4,0.3-0.8,0.8-0.8h56c0.4,0,0.8,0.3,0.8,0.8v3
				C63.9,60.4,62.3,62.1,60.2,62.1z M7.9,56.1v2.3c0,1.2,1,2.3,2.3,2.3h50c1.2,0,2.3-1,2.3-2.3v-2.3H7.9z"/>
		</g>
		<g>
			<path class="st3" d="M55.2,68.1h-40c-0.4,0-0.8-0.3-0.8-0.8c0-0.4,0.3-0.8,0.8-0.8h40c0.4,0,0.8,0.3,0.8,0.8
				C55.9,67.8,55.6,68.1,55.2,68.1z"/>
		</g>
		<g>
			<path class="st1" d="M63.2,55.4h-56v-45c0-1.7,1.3-3,3-3h50c1.7,0,3,1.3,3,3V55.4z"/>
		</g>
		<g>
			<path class="st2" d="M58.2,52.4h-51v-42c0-1.7,1.3-3,3-3h50v43C60.2,51.5,59.3,52.4,58.2,52.4z"/>
		</g>
		<g>
			<path class="st3" d="M63.2,56.1h-56c-0.4,0-0.8-0.3-0.8-0.8v-45c0-2.1,1.7-3.8,3.8-3.8h50c2.1,0,3.8,1.7,3.8,3.8v45
				C63.9,55.8,63.6,56.1,63.2,56.1z M7.9,54.6h54.5V10.4c0-1.2-1-2.3-2.3-2.3h-50c-1.2,0-2.3,1-2.3,2.3V54.6z"/>
		</g>
		<g>
			<path class="st1" d="M56.2,31.4h-42c-0.6,0-1-0.4-1-1v-16c0-0.6,0.4-1,1-1h42c0.6,0,1,0.4,1,1v16C57.2,30.9,56.7,31.4,56.2,31.4z
				"/>
		</g>
		<g>
			<path class="st2" d="M50.2,24.4h-37v-10c0-0.6,0.4-1,1-1h36c0.6,0,1,0.4,1,1v9C51.2,23.9,50.7,24.4,50.2,24.4z"/>
		</g>
		<g>
			<path class="st3" d="M56.2,32.1h-42c-1,0-1.8-0.8-1.8-1.7v-16c0-1,0.8-1.8,1.8-1.8h42c1,0,1.8,0.8,1.8,1.8v16
				C57.9,31.3,57.2,32.1,56.2,32.1z M14.2,14.1c-0.1,0-0.3,0.1-0.3,0.3v16c0,0.1,0.1,0.3,0.3,0.3h42c0.1,0,0.3-0.1,0.3-0.3v-16
				c0-0.1-0.1-0.3-0.3-0.3H14.2z"/>
		</g>
		<g>
			<path class="st1" d="M56.2,49.4h-42c-0.6,0-1-0.4-1-1v-10c0-0.6,0.4-1,1-1h42c0.6,0,1,0.4,1,1v10C57.2,48.9,56.7,49.4,56.2,49.4z
				"/>
		</g>
		<g>
			<path class="st2" d="M50.2,42.4h-37v-4c0-0.6,0.4-1,1-1h36c0.6,0,1,0.4,1,1v3C51.2,41.9,50.7,42.4,50.2,42.4z"/>
		</g>
		<g>
			<path class="st3" d="M56.2,50.1h-42c-1,0-1.8-0.8-1.8-1.8v-10c0-1,0.8-1.8,1.8-1.8h42c1,0,1.8,0.8,1.8,1.8v10
				C57.9,49.3,57.2,50.1,56.2,50.1z M14.2,38.1c-0.1,0-0.3,0.1-0.3,0.3v10c0,0.1,0.1,0.3,0.3,0.3h42c0.1,0,0.3-0.1,0.3-0.3v-10
				c0-0.1-0.1-0.3-0.3-0.3H14.2z"/>
		</g>
		<g>
			<path class="st1" d="M69.2,71.4h-28c-1.1,0-2-0.9-2-2v-40c0-1.1,0.9-2,2-2h28c1.1,0,2,0.9,2,2v40C71.2,70.5,70.3,71.4,69.2,71.4z
				"/>
		</g>
		<g>
			<path class="st2" d="M67.2,68.4h-28v-4h29v3C68.2,67.9,67.7,68.4,67.2,68.4z"/>
		</g>
		<g>
			<path class="st2" d="M67.2,31.4h-28v-2c0-1.1,0.9-2,2-2h27v3C68.2,30.9,67.7,31.4,67.2,31.4z"/>
		</g>
		<g>
			<path class="st3" d="M69.2,72.1h-28c-1.5,0-2.8-1.2-2.8-2.8v-40c0-1.5,1.2-2.8,2.8-2.8h28c1.5,0,2.8,1.2,2.8,2.8v40
				C71.9,70.9,70.7,72.1,69.2,72.1z M41.2,28.1c-0.7,0-1.3,0.6-1.3,1.3v40c0,0.7,0.6,1.3,1.3,1.3h28c0.7,0,1.3-0.6,1.3-1.3v-40
				c0-0.7-0.6-1.3-1.3-1.3H41.2z"/>
		</g>
		<g>
			<path class="st1" d="M69.2,64.4h-28c-1.1,0-2-0.9-2-2v-26c0-1.1,0.9-2,2-2h28c1.1,0,2,0.9,2,2v26C71.2,63.5,70.3,64.4,69.2,64.4z
				"/>
		</g>
		<g>
			<path class="st2" d="M67.2,61.4h-28v-25c0-1.1,0.9-2,2-2h27v26C68.2,60.9,67.7,61.4,67.2,61.4z"/>
		</g>
		<g>
			<path class="st3" d="M69.2,65.1h-28c-1.5,0-2.8-1.2-2.8-2.8v-26c0-1.5,1.2-2.8,2.8-2.8h28c1.5,0,2.8,1.2,2.8,2.8v26
				C71.9,63.9,70.7,65.1,69.2,65.1z M41.2,35.1c-0.7,0-1.3,0.6-1.3,1.3v26c0,0.7,0.6,1.3,1.3,1.3h28c0.7,0,1.3-0.6,1.3-1.3v-26
				c0-0.7-0.6-1.3-1.3-1.3H41.2z"/>
		</g>
		<g>
			<circle class="st3" cx="55.2" cy="30.9" r="1"/>
		</g>
		<g>
			<circle class="st3" cx="55.2" cy="67.9" r="1"/>
		</g>
		<g>
			<circle class="st3" cx="47.2" cy="67.9" r="1"/>
		</g>
		<g>
			<circle class="st3" cx="63.2" cy="67.9" r="1"/>
		</g>
		<g>
			<path class="st1" d="M65.2,48.4h-20c-0.6,0-1-0.4-1-1v-7c0-0.6,0.4-1,1-1h20c0.6,0,1,0.4,1,1v7C66.2,47.9,65.7,48.4,65.2,48.4z"
				/>
		</g>
		<g>
			<path class="st2" d="M62.2,45.4h-18v-5c0-0.6,0.4-1,1-1h18v5C63.2,44.9,62.7,45.4,62.2,45.4z"/>
		</g>
		<g>
			<path class="st3" d="M65.2,49.1h-20c-1,0-1.8-0.8-1.8-1.8v-7c0-1,0.8-1.8,1.8-1.8h20c1,0,1.8,0.8,1.8,1.8v7
				C66.9,48.3,66.2,49.1,65.2,49.1z M45.2,40.1c-0.1,0-0.3,0.1-0.3,0.3v7c0,0.1,0.1,0.3,0.3,0.3h20c0.1,0,0.3-0.1,0.3-0.3v-7
				c0-0.1-0.1-0.3-0.3-0.3H45.2z"/>
		</g>
		<g>
			<path class="st1" d="M65.2,59.4h-20c-0.6,0-1-0.4-1-1v-4c0-0.6,0.4-1,1-1h20c0.6,0,1,0.4,1,1v4C66.2,58.9,65.7,59.4,65.2,59.4z"
				/>
		</g>
		<g>
			<path class="st2" d="M62.2,56.4h-18v-2c0-0.6,0.4-1,1-1h18v2C63.2,55.9,62.7,56.4,62.2,56.4z"/>
		</g>
		<g>
			<path class="st3" d="M65.2,60.1h-20c-1,0-1.8-0.8-1.8-1.8v-4c0-1,0.8-1.8,1.8-1.8h20c1,0,1.8,0.8,1.8,1.8v4
				C66.9,59.3,66.2,60.1,65.2,60.1z M45.2,54.1c-0.1,0-0.3,0.1-0.3,0.3v4c0,0.1,0.1,0.3,0.3,0.3h20c0.1,0,0.3-0.1,0.3-0.3v-4
				c0-0.1-0.1-0.3-0.3-0.3H45.2z"/>
		</g>
		<g>
			<path class="st3" d="M71.2,10.4h-4c-0.4,0-0.8-0.3-0.8-0.8c0-0.4,0.3-0.8,0.8-0.8h4c0.4,0,0.8,0.3,0.8,0.8
				C71.9,10,71.6,10.4,71.2,10.4z"/>
		</g>
		<g>
			<path class="st3" d="M69.2,12.4c-0.4,0-0.8-0.3-0.8-0.8v-4c0-0.4,0.3-0.8,0.8-0.8c0.4,0,0.8,0.3,0.8,0.8v4
				C69.9,12,69.6,12.4,69.2,12.4z"/>
		</g>
		<g>
			<circle class="st3" cx="69.2" cy="15.6" r="0.8"/>
		</g>
		<g>
			<circle class="st3" cx="69.2" cy="18.6" r="0.8"/>
		</g>
		<g>
			<circle class="st3" cx="69.2" cy="23.6" r="0.8"/>
		</g>
		<g>
			<path class="st3" d="M30.9,18.1H20.2c-0.4,0-0.8-0.3-0.8-0.8c0-0.4,0.3-0.8,0.8-0.8h10.7c0.4,0,0.8,0.3,0.8,0.8
				C31.6,17.8,31.3,18.1,30.9,18.1z"/>
		</g>
		<g>
			<path class="st3" d="M37.2,18.1h-2.3c-0.4,0-0.8-0.3-0.8-0.8c0-0.4,0.3-0.8,0.8-0.8h2.3c0.4,0,0.8,0.3,0.8,0.8
				C37.9,17.8,37.6,18.1,37.2,18.1z"/>
		</g>
	</g>
</g>
</svg>
