<?xml version="1.0" encoding="utf-8"?>
<!-- Generator: Adobe Illustrator 19.0.0, SVG Export Plug-In . SVG Version: 6.00 Build 0)  -->
<svg version="1.1" id="Layer_1" xmlns="http://www.w3.org/2000/svg" xmlns:xlink="http://www.w3.org/1999/xlink" x="0px" y="0px"
	 viewBox="0 0 77.8 75.9" style="enable-background:new 0 0 77.8 75.9;" xml:space="preserve">
<style type="text/css">
	.st0{fill:#E8EAEB;}
	.st1{fill:#c2e1ff;}
	.st2{fill:#FFFFFF;}
	.st3{fill:#0984e3;}
</style>
<g>
	<g>
		<circle class="st0" cx="16.6" cy="61.9" r="14"/>
	</g>
	<g>
		<circle class="st0" cx="12" cy="20" r="12"/>
	</g>
	<g>
		<circle class="st0" cx="57.8" cy="20" r="20"/>
	</g>
	<g>
		<g>
			<path class="st1" d="M71.8,57.8h-64v-33c0-1.7,1.3-3,3-3h58c1.7,0,3,1.3,3,3V57.8z"/>
		</g>
		<g>
			<path class="st2" d="M62.8,51.8h-55v-27c0-1.7,1.3-3,3-3h54v28C64.8,50.9,63.9,51.8,62.8,51.8z"/>
		</g>
		<g>
			<path class="st3" d="M71.8,58.5h-64c-0.4,0-0.8-0.3-0.8-0.8v-33c0-2.1,1.7-3.8,3.8-3.8h58c2.1,0,3.8,1.7,3.8,3.8v33
				C72.6,58.2,72.2,58.5,71.8,58.5z M8.6,57h62.5V24.8c0-1.2-1-2.3-2.3-2.3h-58c-1.2,0-2.3,1-2.3,2.3V57z"/>
		</g>
		<g>
			<rect x="25.8" y="63.8" class="st1" width="28" height="6"/>
		</g>
		<g>
			<path class="st2" d="M50.8,63.8h-25v3h24c0.6,0,1-0.4,1-1V63.8z"/>
		</g>
		<g>
			<path class="st3" d="M53.8,70.5h-28c-0.4,0-0.8-0.3-0.8-0.8v-6c0-0.4,0.3-0.8,0.8-0.8h28c0.4,0,0.8,0.3,0.8,0.8v6
				C54.6,70.2,54.2,70.5,53.8,70.5z M26.6,69h26.5v-4.5H26.6V69z"/>
		</g>
		<g>
			<path class="st1" d="M68.8,63.8h-58c-1.7,0-3-1.3-3-3v-3h64v3C71.8,62.4,70.5,63.8,68.8,63.8z"/>
		</g>
		<g>
			<path class="st2" d="M66.8,60.8h-59v-3h60v2C67.8,60.3,67.4,60.8,66.8,60.8z"/>
		</g>
		<g>
			<path class="st3" d="M68.8,64.5h-58c-2.1,0-3.8-1.7-3.8-3.8v-3c0-0.4,0.3-0.8,0.8-0.8h64c0.4,0,0.8,0.3,0.8,0.8v3
				C72.6,62.8,70.9,64.5,68.8,64.5z M8.6,58.5v2.3c0,1.2,1,2.3,2.3,2.3h58c1.2,0,2.3-1,2.3-2.3v-2.3H8.6z"/>
		</g>
		<g>
			<path class="st3" d="M63.8,70.5h-48c-0.4,0-0.8-0.3-0.8-0.8s0.3-0.8,0.8-0.8h48c0.4,0,0.8,0.3,0.8,0.8S64.2,70.5,63.8,70.5z"/>
		</g>
		<g>
			<circle class="st3" cx="39.8" cy="60.8" r="1"/>
		</g>
		<g>
			<path class="st1" d="M18.8,5.8v52h42v-44c0-4.4-3.6-8-8-8H18.8z"/>
		</g>
		<g>
			<path class="st2" d="M18.8,5.8v48h36c1.1,0,2-0.9,2-2v-37c0-5-4-9-9-9H18.8z"/>
		</g>
		<g>
			<path class="st3" d="M60.8,58.5h-42c-0.4,0-0.8-0.3-0.8-0.8v-52c0-0.4,0.3-0.8,0.8-0.8h34c4.8,0,8.8,3.9,8.8,8.8v44
				C61.6,58.2,61.2,58.5,60.8,58.5z M19.6,57h40.5V13.8c0-4-3.3-7.2-7.3-7.2H19.6V57z"/>
		</g>
		<g>
			<path class="st2" d="M52.8,5.8c-4.4,0-8,3.6-8,8h-34c0-4.4,3.6-8,8-8H52.8z"/>
		</g>
		<g>
			<path class="st1" d="M44.8,13.8c0-4.4,3.6-8,8-8h-8c-2.8,0-5,2.2-5,5H11.4c-0.4,0.9-0.6,1.9-0.6,3H44.8z"/>
		</g>
		<g>
			<path class="st3" d="M44.8,14.5h-34c-0.4,0-0.8-0.3-0.8-0.8C10.1,8.9,14,5,18.8,5h34c0.4,0,0.8,0.3,0.8,0.8
				c0,0.4-0.3,0.8-0.8,0.8c-4,0-7.3,3.3-7.3,7.2C45.6,14.2,45.2,14.5,44.8,14.5z M11.6,13h32.5c0.2-2.7,1.7-5.1,3.8-6.5H18.8
				C15.1,6.5,12,9.4,11.6,13z"/>
		</g>
		<g>
			<path class="st3" d="M54.8,24c-0.4,0-0.8-0.3-0.8-0.8v-0.8h-0.8c-0.4,0-0.8-0.3-0.8-0.8s0.3-0.8,0.8-0.8h1.5
				c0.4,0,0.8,0.3,0.8,0.8v1.5C55.6,23.7,55.2,24,54.8,24z"/>
		</g>
		<g>
			<path class="st3" d="M49,22.5h-3.2c-0.4,0-0.8-0.3-0.8-0.8s0.3-0.8,0.8-0.8H49c0.4,0,0.8,0.3,0.8,0.8S49.4,22.5,49,22.5z
				 M41.4,22.5h-3.2c-0.4,0-0.8-0.3-0.8-0.8s0.3-0.8,0.8-0.8h3.2c0.4,0,0.8,0.3,0.8,0.8S41.9,22.5,41.4,22.5z M33.9,22.5h-3.2
				c-0.4,0-0.8-0.3-0.8-0.8s0.3-0.8,0.8-0.8h3.2c0.4,0,0.8,0.3,0.8,0.8S34.3,22.5,33.9,22.5z"/>
		</g>
		<g>
			<path class="st3" d="M24.8,24c-0.4,0-0.8-0.3-0.8-0.8v-1.5c0-0.4,0.3-0.8,0.8-0.8h1.5c0.4,0,0.8,0.3,0.8,0.8s-0.3,0.8-0.8,0.8
				h-0.8v0.8C25.6,23.7,25.2,24,24.8,24z"/>
		</g>
		<g>
			<path class="st3" d="M26.3,30.5h-1.5c-0.4,0-0.8-0.3-0.8-0.8v-1.5c0-0.4,0.3-0.8,0.8-0.8c0.4,0,0.8,0.3,0.8,0.8V29h0.8
				c0.4,0,0.8,0.3,0.8,0.8S26.7,30.5,26.3,30.5z"/>
		</g>
		<g>
			<path class="st3" d="M49,30.5h-3.2c-0.4,0-0.8-0.3-0.8-0.8s0.3-0.8,0.8-0.8H49c0.4,0,0.8,0.3,0.8,0.8S49.4,30.5,49,30.5z
				 M41.4,30.5h-3.2c-0.4,0-0.8-0.3-0.8-0.8s0.3-0.8,0.8-0.8h3.2c0.4,0,0.8,0.3,0.8,0.8S41.9,30.5,41.4,30.5z M33.9,30.5h-3.2
				c-0.4,0-0.8-0.3-0.8-0.8s0.3-0.8,0.8-0.8h3.2c0.4,0,0.8,0.3,0.8,0.8S34.3,30.5,33.9,30.5z"/>
		</g>
		<g>
			<path class="st3" d="M54.8,30.5h-1.5c-0.4,0-0.8-0.3-0.8-0.8s0.3-0.8,0.8-0.8h0.8v-0.8c0-0.4,0.3-0.8,0.8-0.8
				c0.4,0,0.8,0.3,0.8,0.8v1.5C55.6,30.2,55.2,30.5,54.8,30.5z"/>
		</g>
		<g>
			<path class="st3" d="M54.8,38c-0.4,0-0.8-0.3-0.8-0.8v-0.8h-0.8c-0.4,0-0.8-0.3-0.8-0.8c0-0.4,0.3-0.8,0.8-0.8h1.5
				c0.4,0,0.8,0.3,0.8,0.8v1.5C55.6,37.7,55.2,38,54.8,38z"/>
		</g>
		<g>
			<path class="st3" d="M48.6,36.5h-3.5c-0.4,0-0.8-0.3-0.8-0.8c0-0.4,0.3-0.8,0.8-0.8h3.5c0.4,0,0.8,0.3,0.8,0.8
				C49.4,36.2,49,36.5,48.6,36.5z"/>
		</g>
		<g>
			<path class="st3" d="M38.8,38c-0.4,0-0.8-0.3-0.8-0.8v-1.5c0-0.4,0.3-0.8,0.8-0.8h1.5c0.4,0,0.8,0.3,0.8,0.8
				c0,0.4-0.3,0.8-0.8,0.8h-0.8v0.8C39.6,37.7,39.2,38,38.8,38z"/>
		</g>
		<g>
			<path class="st3" d="M38.8,46.3c-0.4,0-0.8-0.3-0.8-0.8V42c0-0.4,0.3-0.8,0.8-0.8c0.4,0,0.8,0.3,0.8,0.8v3.5
				C39.6,45.9,39.2,46.3,38.8,46.3z"/>
		</g>
		<g>
			<path class="st3" d="M40.3,52.5h-1.5c-0.4,0-0.8-0.3-0.8-0.8v-1.5c0-0.4,0.3-0.8,0.8-0.8c0.4,0,0.8,0.3,0.8,0.8V51h0.8
				c0.4,0,0.8,0.3,0.8,0.8S40.7,52.5,40.3,52.5z"/>
		</g>
		<g>
			<path class="st3" d="M48.6,52.5h-3.5c-0.4,0-0.8-0.3-0.8-0.8s0.3-0.8,0.8-0.8h3.5c0.4,0,0.8,0.3,0.8,0.8S49,52.5,48.6,52.5z"/>
		</g>
		<g>
			<path class="st3" d="M54.8,52.5h-1.5c-0.4,0-0.8-0.3-0.8-0.8s0.3-0.8,0.8-0.8h0.8v-0.8c0-0.4,0.3-0.8,0.8-0.8
				c0.4,0,0.8,0.3,0.8,0.8v1.5C55.6,52.2,55.2,52.5,54.8,52.5z"/>
		</g>
		<g>
			<path class="st3" d="M54.8,46.3c-0.4,0-0.8-0.3-0.8-0.8V42c0-0.4,0.3-0.8,0.8-0.8c0.4,0,0.8,0.3,0.8,0.8v3.5
				C55.6,45.9,55.2,46.3,54.8,46.3z"/>
		</g>
		<g>
			<path class="st3" d="M32.8,38c-0.4,0-0.8-0.3-0.8-0.8v-0.8h-0.8c-0.4,0-0.8-0.3-0.8-0.8c0-0.4,0.3-0.8,0.8-0.8h1.5
				c0.4,0,0.8,0.3,0.8,0.8v1.5C33.6,37.7,33.2,38,32.8,38z"/>
		</g>
		<g>
			<path class="st3" d="M24.8,38c-0.4,0-0.8-0.3-0.8-0.8v-1.5c0-0.4,0.3-0.8,0.8-0.8h1.5c0.4,0,0.8,0.3,0.8,0.8
				c0,0.4-0.3,0.8-0.8,0.8h-0.8v0.8C25.6,37.7,25.2,38,24.8,38z"/>
		</g>
		<g>
			<path class="st3" d="M24.8,46.3c-0.4,0-0.8-0.3-0.8-0.8V42c0-0.4,0.3-0.8,0.8-0.8c0.4,0,0.8,0.3,0.8,0.8v3.5
				C25.6,45.9,25.2,46.3,24.8,46.3z"/>
		</g>
		<g>
			<path class="st3" d="M26.3,52.5h-1.5c-0.4,0-0.8-0.3-0.8-0.8v-1.5c0-0.4,0.3-0.8,0.8-0.8c0.4,0,0.8,0.3,0.8,0.8V51h0.8
				c0.4,0,0.8,0.3,0.8,0.8S26.7,52.5,26.3,52.5z"/>
		</g>
		<g>
			<path class="st3" d="M32.8,52.5h-1.5c-0.4,0-0.8-0.3-0.8-0.8s0.3-0.8,0.8-0.8h0.8v-0.8c0-0.4,0.3-0.8,0.8-0.8
				c0.4,0,0.8,0.3,0.8,0.8v1.5C33.6,52.2,33.2,52.5,32.8,52.5z"/>
		</g>
		<g>
			<path class="st3" d="M32.8,46.3c-0.4,0-0.8-0.3-0.8-0.8V42c0-0.4,0.3-0.8,0.8-0.8c0.4,0,0.8,0.3,0.8,0.8v3.5
				C33.6,45.9,33.2,46.3,32.8,46.3z"/>
		</g>
		<g>
			<path class="st3" d="M11.8,42.5c-0.4,0-0.8-0.3-0.8-0.8v-9.7c0-0.4,0.3-0.8,0.8-0.8c0.4,0,0.8,0.3,0.8,0.8v9.7
				C12.6,42.2,12.2,42.5,11.8,42.5z"/>
		</g>
		<g>
			<path class="st3" d="M11.8,28.8c-0.4,0-0.8-0.3-0.8-0.8v-2.3c0-0.4,0.3-0.8,0.8-0.8c0.4,0,0.8,0.3,0.8,0.8V28
				C12.6,28.5,12.2,28.8,11.8,28.8z"/>
		</g>
		<g>
			<path class="st3" d="M67.8,54.5c-0.4,0-0.8-0.3-0.8-0.8v-9.7c0-0.4,0.3-0.8,0.8-0.8c0.4,0,0.8,0.3,0.8,0.8v9.7
				C68.6,54.2,68.2,54.5,67.8,54.5z"/>
		</g>
		<g>
			<path class="st3" d="M67.8,40.8c-0.4,0-0.8-0.3-0.8-0.8v-2.3c0-0.4,0.3-0.8,0.8-0.8c0.4,0,0.8,0.3,0.8,0.8v2.3
				C68.6,40.5,68.2,40.8,67.8,40.8z"/>
		</g>
	</g>
</g>
</svg>
