<?xml version="1.0" encoding="utf-8"?>
<!-- Generator: Adobe Illustrator 19.0.0, SVG Export Plug-In . SVG Version: 6.00 Build 0)  -->
<svg version="1.1" id="Layer_1" xmlns="http://www.w3.org/2000/svg" xmlns:xlink="http://www.w3.org/1999/xlink" x="0px" y="0px"
	 viewBox="0 0 79.6 79.6" style="enable-background:new 0 0 79.6 79.6;" xml:space="preserve">
<style type="text/css">
	.st0{fill:#E8EAEB;}
	.st1{fill:#FFFFFF;}
	.st2{fill:#c2e1ff;}
	.st3{fill:#0984e3;}
</style>
<g>
	<circle class="st0" cx="32.3" cy="14.6" r="14"/>
</g>
<g>
	<circle class="st0" cx="19.3" cy="57.6" r="12"/>
</g>
<path class="st0" d="M57.6,78.1c-11,0-20-9-20-20s9-20,20-20c11,0,20,9,20,20S68.6,78.1,57.6,78.1"/>
<g>
	<g>
		<path class="st1" d="M29.1,71.8c-1.1,0-2-0.9-2-2V66c0-2-1.3-3.2-3.4-3.2c-2.4,0-8.7-0.3-9.3-3.3c-0.7-3.7,0.1-9.7,0.1-9.7
			s-3-1.1-5.4-2.6c-2.5-1.4-0.9-3.7-0.3-4.4c4.8-5.7,5.6-9.4,5.6-9.4c0-14.3,11.7-25.9,26-25.7C54.1,8,65.4,19.1,65.8,32.8
			c0.1,4.9-1.1,9.6-3.4,13.5l0,0c-2.2,3.8-5,7.8-6.4,10.8c-2,4.4-2.1,14.7-2.1,14.7H29.1z"/>
	</g>
	<g>
		<path class="st2" d="M56,57.1c1.4-3,4.2-7.1,6.4-10.8l0,0c2.2-3.8,3.4-8.1,3.4-12.8c0-12.7-9.2-23.2-21.3-25.3
			c-11,3.1-19.3,13.3-19.7,25.1c-0.3,8,3,15.2,8.3,20.3c3,2.8,4.5,6.8,4.5,10.9v7.3h16.3C53.9,71.8,54,61.5,56,57.1z"/>
	</g>
	<g>
		<path class="st3" d="M53.9,72.6H29.1c-1.5,0-2.8-1.2-2.8-2.8V66c0-1.6-1-2.5-2.6-2.5c-3.5,0-9.4-0.5-10-3.9
			c-0.6-3.1-0.2-7.7,0-9.3c-1-0.4-3.1-1.3-5-2.4c-1-0.6-1.5-1.3-1.7-2.2c-0.2-1.4,0.6-2.7,1.2-3.4c4.3-5,5.3-8.5,5.4-9
			c0-7.1,2.8-13.7,7.9-18.7c5.1-5,11.8-7.7,18.9-7.6c14,0.2,25.7,11.7,26,25.7c0.1,4.9-1.1,9.7-3.5,13.9c0,0,0,0,0,0
			c-0.8,1.4-1.7,2.8-2.6,4.2c-1.5,2.4-2.9,4.7-3.8,6.5c-1.9,4.2-2,14.3-2,14.4C54.7,72.2,54.4,72.6,53.9,72.6z M40.1,8.6
			c-6.6,0-12.8,2.5-17.5,7.2c-4.8,4.7-7.4,11-7.4,17.8c0,0.1,0,0.1,0,0.2c0,0.2-0.9,4-5.7,9.7c-0.2,0.3-1,1.3-0.9,2.1
			c0.1,0.4,0.4,0.8,1,1.1c2.4,1.4,5.3,2.5,5.3,2.5c0.3,0.1,0.5,0.5,0.5,0.8c0,0.1-0.8,5.9-0.1,9.4c0.4,2,4.8,2.7,8.5,2.7
			c2.5,0,4.1,1.6,4.1,4v3.8c0,0.7,0.6,1.3,1.3,1.3h24.1c0.1-2.5,0.4-10.4,2.1-14.3c0.9-1.9,2.3-4.3,3.9-6.7c0.9-1.4,1.8-2.8,2.6-4.2
			c0,0,0,0,0,0c2.3-4,3.4-8.5,3.3-13.1c-0.4-13.2-11.4-24-24.6-24.2C40.4,8.6,40.2,8.6,40.1,8.6z"/>
	</g>
	<g>
		<path class="st1" d="M71.8,34.8c0-10.8-9.1-19.6-20-19c-9.7,0.5-17.6,8.6-17.9,18.3c-0.2,5.6,2.1,10.7,5.8,14.3
			c2.1,2,3.2,4.8,3.2,7.7v3.6h19.9V56c0-2.9,1.3-5.6,3.3-7.6C69.6,44.9,71.8,40.1,71.8,34.8z"/>
	</g>
	<g>
		<path class="st2" d="M57.3,16.3c5.7,3.3,9.5,9.4,9.5,16.5c0,5.3-2.2,10.1-5.7,13.6c-2.1,2-3.3,4.7-3.3,7.6v5.8h5V56
			c0-2.9,1.3-5.6,3.3-7.6c3.5-3.4,5.7-8.2,5.7-13.6C71.8,25.9,65.6,18.4,57.3,16.3z"/>
	</g>
	<g>
		<path class="st3" d="M62.8,60.6H42.9c-0.4,0-0.8-0.3-0.8-0.8v-3.6c0-2.7-1.1-5.3-3-7.2c-4-3.9-6.2-9.3-6.1-14.9
			c0.3-10.2,8.5-18.5,18.7-19.1c5.5-0.3,10.7,1.6,14.7,5.4c4,3.8,6.2,8.9,6.2,14.3c0,5.3-2.1,10.4-5.9,14.1c-2,2-3.1,4.5-3.1,7.1
			v3.8C63.5,60.2,63.2,60.6,62.8,60.6z M43.6,59.1H62V56c0-3,1.3-5.9,3.6-8.1c3.5-3.5,5.5-8.1,5.5-13c0-5.1-2-9.8-5.7-13.2
			c-3.7-3.5-8.5-5.3-13.6-5c-9.4,0.5-16.9,8.2-17.2,17.6c-0.2,5.2,1.9,10.2,5.6,13.7c2.2,2.1,3.4,5.1,3.4,8.2V59.1z"/>
	</g>
	<g>
		<path class="st2" d="M58.8,63.8h-12c-1.1,0-2-0.9-2-2v-2h16v2C60.8,62.9,59.9,63.8,58.8,63.8z"/>
	</g>
	<g>
		<path class="st1" d="M54.8,63.8h-8c-1.1,0-2-0.9-2-2v-2h12v2C56.8,62.9,55.9,63.8,54.8,63.8z"/>
	</g>
	<g>
		<path class="st3" d="M58.8,64.6h-12c-1.5,0-2.8-1.2-2.8-2.8v-2c0-0.4,0.3-0.8,0.8-0.8h16c0.4,0,0.8,0.3,0.8,0.8v2
			C61.6,63.3,60.3,64.6,58.8,64.6z M45.6,60.6v1.2c0,0.7,0.6,1.3,1.3,1.3h12c0.7,0,1.3-0.6,1.3-1.3v-1.2H45.6z"/>
	</g>
	<g>
		<path class="st2" d="M58.8,67.8h-12c-1.1,0-2-0.9-2-2l0,0c0-1.1,0.9-2,2-2h12c1.1,0,2,0.9,2,2l0,0C60.8,66.9,59.9,67.8,58.8,67.8z
			"/>
	</g>
	<g>
		<path class="st1" d="M51.8,67.8h-5c-1.1,0-2-0.9-2-2l0,0c0-1.1,0.9-2,2-2h5c1.1,0,2,0.9,2,2l0,0C53.8,66.9,52.9,67.8,51.8,67.8z"
			/>
	</g>
	<g>
		<path class="st3" d="M58.8,68.6h-12c-1.5,0-2.8-1.2-2.8-2.8s1.2-2.8,2.8-2.8h12c1.5,0,2.8,1.2,2.8,2.8S60.3,68.6,58.8,68.6z
			 M46.8,64.6c-0.7,0-1.3,0.6-1.3,1.3c0,0.7,0.6,1.3,1.3,1.3h12c0.7,0,1.3-0.6,1.3-1.3c0-0.7-0.6-1.3-1.3-1.3H46.8z"/>
	</g>
	<g>
		<path class="st2" d="M58.8,71.8h-12c-1.1,0-2-0.9-2-2l0,0c0-1.1,0.9-2,2-2h12c1.1,0,2,0.9,2,2l0,0C60.8,70.9,59.9,71.8,58.8,71.8z
			"/>
	</g>
	<g>
		<path class="st1" d="M55.8,71.8h-9c-1.1,0-2-0.9-2-2l0,0c0-1.1,0.9-2,2-2h9c1.1,0,2,0.9,2,2l0,0C57.8,70.9,56.9,71.8,55.8,71.8z"
			/>
	</g>
	<g>
		<path class="st3" d="M58.8,72.6h-12c-1.5,0-2.8-1.2-2.8-2.8s1.2-2.8,2.8-2.8h12c1.5,0,2.8,1.2,2.8,2.8S60.3,72.6,58.8,72.6z
			 M46.8,68.6c-0.7,0-1.3,0.6-1.3,1.3c0,0.7,0.6,1.3,1.3,1.3h12c0.7,0,1.3-0.6,1.3-1.3c0-0.7-0.6-1.3-1.3-1.3H46.8z"/>
	</g>
	<g>
		<path class="st3" d="M52.8,60.6c-0.4,0-0.8-0.3-0.8-0.8v-28c0-0.4,0.3-0.8,0.8-0.8c0.4,0,0.8,0.3,0.8,0.8v28
			C53.6,60.2,53.2,60.6,52.8,60.6z"/>
	</g>
	<g>
		<path class="st1" d="M70.8,34.8h1l0,0c0,9.9-8.1,18-18,18h-1l0,0C52.8,42.9,60.9,34.8,70.8,34.8z"/>
	</g>
	<g>
		<path class="st2" d="M70.8,34.8c-0.4,0-0.8,0-1.1,0.1c-1,8.6-8,15.3-16.7,15.9c-0.1,0.7-0.1,1.4-0.1,2.1l0,0h1c9.9,0,18-8.1,18-18
			l0,0H70.8z"/>
	</g>
	<g>
		<path class="st3" d="M53.8,53.6h-1c-0.4,0-0.8-0.3-0.8-0.8c0-10.3,8.4-18.8,18.7-18.8h1c0.4,0,0.8,0.3,0.8,0.8
			C72.6,45.1,64.1,53.6,53.8,53.6z M53.6,52.1h0.2c9.3,0,16.8-7.3,17.2-16.5h-0.2C61.5,35.6,54,42.9,53.6,52.1z"/>
	</g>
	<g>
		<path class="st3" d="M52.8,53.6c-0.1,0-0.3,0-0.4-0.1c-0.4-0.2-0.5-0.7-0.3-1c5.8-9.9,14.5-14.3,14.9-14.5c0.4-0.2,0.8,0,1,0.3
			c0.2,0.4,0,0.8-0.3,1c-0.1,0-8.7,4.4-14.3,13.9C53.3,53.4,53.1,53.6,52.8,53.6z"/>
	</g>
	<g>
		<path class="st1" d="M70.8,13.8h1v0c0,9.9-8.1,18-18,18h-1l0,0C52.8,21.9,60.9,13.8,70.8,13.8z"/>
	</g>
	<g>
		<path class="st2" d="M70.8,13.8c-0.4,0-0.8,0-1.1,0.1c-1,8.6-8,15.3-16.7,15.9c-0.1,0.7-0.1,1.4-0.1,2.1l0,0h1c9.9,0,18-8.1,18-18
			v0H70.8z"/>
	</g>
	<g>
		<path class="st3" d="M53.8,32.6h-1c-0.4,0-0.8-0.3-0.8-0.8c0-10.3,8.4-18.8,18.7-18.8h1c0.4,0,0.8,0.3,0.8,0.8
			C72.6,24.1,64.1,32.6,53.8,32.6z M53.6,31.1h0.2c9.3,0,16.8-7.3,17.2-16.5h-0.2C61.5,14.6,54,21.9,53.6,31.1z"/>
	</g>
	<g>
		<path class="st3" d="M52.8,32.6c-0.1,0-0.3,0-0.4-0.1c-0.4-0.2-0.5-0.7-0.3-1c5.8-9.9,14.5-14.3,14.9-14.5c0.4-0.2,0.8,0,1,0.3
			c0.2,0.4,0,0.8-0.3,1c-0.1,0-8.7,4.4-14.3,13.9C53.3,32.4,53.1,32.6,52.8,32.6z"/>
	</g>
	<g>
		<path class="st1" d="M34.8,24.8h-1l0,0c0,9.9,8.1,18,18,18h1l0,0C52.8,32.9,44.7,24.8,34.8,24.8z"/>
	</g>
	<g>
		<path class="st2" d="M34.8,24.8h-1l0,0c0,0.1,0,0.2,0,0.3c8.4,1.4,14.8,8.7,15,17.5c1,0.2,2,0.3,3,0.3h1l0,0
			C52.8,32.9,44.7,24.8,34.8,24.8z"/>
	</g>
	<g>
		<path class="st3" d="M52.8,43.6h-1c-10.3,0-18.8-8.4-18.8-18.8c0-0.4,0.3-0.8,0.8-0.8h1c10.3,0,18.8,8.4,18.8,18.8
			C53.6,43.2,53.2,43.6,52.8,43.6z M34.6,25.6c0.4,9.2,8,16.5,17.2,16.5H52c-0.4-9.2-8-16.5-17.2-16.5H34.6z"/>
	</g>
	<g>
		<path class="st3" d="M52.8,43.6c-0.3,0-0.5-0.1-0.6-0.4C46.6,33.7,38,29.3,37.9,29.2c-0.4-0.2-0.5-0.6-0.3-1
			c0.2-0.4,0.6-0.5,1-0.3c0.4,0.2,9.1,4.6,14.9,14.5c0.2,0.4,0.1,0.8-0.3,1C53.1,43.5,52.9,43.6,52.8,43.6z"/>
	</g>
	<g>
		<path class="st3" d="M36,17.3c0.3-0.3,0.3-0.8,0-1.1c-0.3-0.3-0.8-0.3-1.1,0c-0.3,0.3-0.3,0.8,0,1.1c0.1,0.2,0.3,0.2,0.5,0.2
			C35.7,17.5,35.8,17.5,36,17.3z"/>
	</g>
	<g>
		<path class="st3" d="M39.8,14.3c0.4-0.2,0.5-0.7,0.2-1c-0.2-0.3-0.7-0.5-1-0.2c-0.3,0.2-0.4,0.7-0.2,1c0.1,0.2,0.4,0.4,0.6,0.4
			C39.6,14.4,39.7,14.4,39.8,14.3z"/>
	</g>
	<g>
		<path class="st3" d="M35.1,52.5c-0.3,0.3-0.3,0.8,0,1.1c0.1,0.1,0.3,0.2,0.5,0.2c0.2,0,0.4-0.1,0.5-0.2c0.3-0.3,0.3-0.8,0-1.1
			C35.9,52.2,35.4,52.2,35.1,52.5z"/>
	</g>
	<g>
		<path class="st3" d="M40.1,55.5c-0.3-0.2-0.8-0.1-1,0.2c-0.2,0.4-0.1,0.8,0.2,1c0,0,0,0,0,0c0.1,0.1,0.3,0.1,0.4,0.1
			c0.3,0,0.5-0.1,0.6-0.4C40.6,56.1,40.4,55.7,40.1,55.5z"/>
	</g>
	<g>
		<path class="st3" d="M44.2,12.1c0.4-0.1,0.6-0.6,0.4-1c-0.2-0.4-0.6-0.6-1-0.4c0,0,0,0,0,0c-0.4,0.1-0.6,0.6-0.4,1
			c0.1,0.3,0.4,0.5,0.7,0.5C44.1,12.2,44.1,12.1,44.2,12.1z"/>
	</g>
	<g>
		<path class="st3" d="M27.8,35.7c0.4,0,0.8-0.3,0.7-0.8c0-0.4-0.3-0.8-0.8-0.8c-0.4,0-0.8,0.3-0.8,0.8c0,0,0,0,0,0
			C27.1,35.4,27.4,35.7,27.8,35.7C27.8,35.7,27.8,35.7,27.8,35.7z"/>
	</g>
	<g>
		<path class="st3" d="M28.1,30.7c0.1,0,0.1,0,0.1,0c0.4,0,0.7-0.3,0.7-0.6c0.1-0.4-0.2-0.8-0.6-0.9c-0.4-0.1-0.8,0.2-0.9,0.6
			C27.5,30.2,27.7,30.6,28.1,30.7z"/>
	</g>
	<g>
		<path class="st3" d="M29.5,25.8c0.1,0,0.2,0.1,0.3,0.1c0.3,0,0.6-0.2,0.7-0.5c0.2-0.4,0-0.8-0.4-1c-0.4-0.2-0.8,0-1,0.4
			C28.9,25.2,29.1,25.6,29.5,25.8z"/>
	</g>
	<g>
		<path class="st3" d="M32.2,21.4c0.2,0,0.5-0.1,0.6-0.3c0.2-0.3,0.1-0.8-0.2-1c-0.4-0.2-0.8-0.1-1.1,0.2c-0.2,0.3-0.1,0.8,0.2,1
			C31.9,21.4,32,21.4,32.2,21.4z"/>
	</g>
	<g>
		<path class="st3" d="M31.9,48.6c-0.3,0.2-0.4,0.7-0.2,1c0.1,0.2,0.4,0.3,0.6,0.3c0.1,0,0.3,0,0.4-0.1c0.3-0.2,0.4-0.7,0.2-1
			C32.7,48.4,32.3,48.4,31.9,48.6z"/>
	</g>
	<g>
		<path class="st3" d="M28.2,39.2c-0.4,0.1-0.7,0.5-0.6,0.9c0.1,0.4,0.4,0.6,0.7,0.6c0.1,0,0.1,0,0.2,0c0.4-0.1,0.7-0.5,0.6-0.9
			C29,39.4,28.6,39.2,28.2,39.2z"/>
	</g>
	<g>
		<path class="st3" d="M29.6,44.1c-0.4,0.2-0.6,0.6-0.4,1c0.1,0.3,0.4,0.5,0.7,0.5c0.1,0,0.2,0,0.3-0.1c0.4-0.2,0.6-0.6,0.4-1
			C30.4,44.1,30,43.9,29.6,44.1z"/>
	</g>
	<g>
		<circle class="st1" cx="67.8" cy="65.8" r="2"/>
	</g>
	<g>
		<path class="st3" d="M67.8,68.6c-1.5,0-2.8-1.2-2.8-2.8s1.2-2.8,2.8-2.8s2.8,1.2,2.8,2.8S69.3,68.6,67.8,68.6z M67.8,64.6
			c-0.7,0-1.3,0.6-1.3,1.3c0,0.7,0.6,1.3,1.3,1.3c0.7,0,1.3-0.6,1.3-1.3C69.1,65.1,68.5,64.6,67.8,64.6z"/>
	</g>
	<g>
		<circle class="st1" cx="36.8" cy="61.8" r="2"/>
	</g>
	<g>
		<path class="st3" d="M36.8,64.6c-1.5,0-2.8-1.2-2.8-2.8c0-1.5,1.2-2.8,2.8-2.8s2.8,1.2,2.8,2.8C39.6,63.3,38.3,64.6,36.8,64.6z
			 M36.8,60.6c-0.7,0-1.3,0.6-1.3,1.3c0,0.7,0.6,1.3,1.3,1.3c0.7,0,1.3-0.6,1.3-1.3C38.1,61.1,37.5,60.6,36.8,60.6z"/>
	</g>
	<g>
		<circle class="st1" cx="21.8" cy="45.8" r="2"/>
	</g>
	<g>
		<path class="st3" d="M21.8,48.6c-1.5,0-2.8-1.2-2.8-2.8c0-1.5,1.2-2.8,2.8-2.8s2.8,1.2,2.8,2.8C24.6,47.3,23.3,48.6,21.8,48.6z
			 M21.8,44.6c-0.7,0-1.3,0.6-1.3,1.3c0,0.7,0.6,1.3,1.3,1.3c0.7,0,1.3-0.6,1.3-1.3C23.1,45.1,22.5,44.6,21.8,44.6z"/>
	</g>
	<g>
		<circle class="st1" cx="69.8" cy="55.8" r="2"/>
	</g>
	<g>
		<path class="st3" d="M69.8,58.6c-1.5,0-2.8-1.2-2.8-2.8c0-1.5,1.2-2.8,2.8-2.8s2.8,1.2,2.8,2.8C72.6,57.3,71.3,58.6,69.8,58.6z
			 M69.8,54.6c-0.7,0-1.3,0.6-1.3,1.3c0,0.7,0.6,1.3,1.3,1.3c0.7,0,1.3-0.6,1.3-1.3C71.1,55.1,70.5,54.6,69.8,54.6z"/>
	</g>
	<g>
		<circle class="st1" cx="61.8" cy="9.8" r="2"/>
	</g>
	<g>
		<path class="st3" d="M61.8,12.6c-1.5,0-2.8-1.2-2.8-2.8s1.2-2.8,2.8-2.8c1.5,0,2.8,1.2,2.8,2.8S63.3,12.6,61.8,12.6z M61.8,8.6
			c-0.7,0-1.3,0.6-1.3,1.3c0,0.7,0.6,1.3,1.3,1.3c0.7,0,1.3-0.6,1.3-1.3C63.1,9.1,62.5,8.6,61.8,8.6z"/>
	</g>
</g>
</svg>
