<?xml version="1.0" encoding="utf-8"?>
<!-- Generator: Adobe Illustrator 19.0.0, SVG Export Plug-In . SVG Version: 6.00 Build 0)  -->
<svg version="1.1" id="Layer_1" xmlns="http://www.w3.org/2000/svg" xmlns:xlink="http://www.w3.org/1999/xlink" x="0px" y="0px"
	 viewBox="0 0 80 75.6" style="enable-background:new 0 0 80 75.6;" xml:space="preserve">
<style type="text/css">
	.st0{fill:#E8EAEB;}
	.st1{fill:#c2e1ff;}
	.st2{fill:#FFFFFF;}
	.st3{fill:#0984e3;}
</style>
<g>
	<g>
		<circle class="st0" cx="14" cy="53.3" r="14"/>
	</g>
	<g>
		<circle class="st0" cx="55.2" cy="12" r="12"/>
	</g>
	<g>
		<circle class="st0" cx="60" cy="55.6" r="20"/>
	</g>
	<g>
		<g>
			<path class="st1" d="M56.8,5.3h-32c-2.2,0-4,1.8-4,4v56c0,2.2,1.8,4,4,4h32c2.2,0,4-1.8,4-4v-56C60.8,7,59,5.3,56.8,5.3z"/>
		</g>
		<g>
			<path class="st2" d="M57.8,61.3h-37v4h36c0.6,0,1-0.4,1-1V61.3z"/>
		</g>
		<g>
			<path class="st2" d="M57.8,5.3h-33c-2.2,0-4,1.8-4,4l0,0h36c0.6,0,1-0.4,1-1V5.3z"/>
		</g>
		<g>
			<path class="st3" d="M56.8,70h-32c-2.6,0-4.8-2.1-4.8-4.8v-56c0-2.6,2.1-4.8,4.8-4.8h32c2.6,0,4.8,2.1,4.8,4.8v56
				C61.5,67.9,59.4,70,56.8,70z M24.8,6c-1.8,0-3.3,1.5-3.3,3.3v56c0,1.8,1.5,3.3,3.3,3.3h32c1.8,0,3.3-1.5,3.3-3.3v-56
				C60,7.5,58.5,6,56.8,6H24.8z"/>
		</g>
		<g>
			<path class="st1" d="M58.8,13.3h-36c-1.1,0-2,0.9-2,2v44c0,1.1,0.9,2,2,2h36c1.1,0,2-0.9,2-2v-44C60.8,14.1,59.9,13.3,58.8,13.3z
				"/>
		</g>
		<g>
			<path class="st2" d="M57.8,13.3h-35c-1.1,0-2,0.9-2,2v43h36c0.6,0,1-0.4,1-1V13.3z"/>
		</g>
		<g>
			<path class="st3" d="M58.8,62h-36c-1.5,0-2.8-1.2-2.8-2.8v-44c0-1.5,1.2-2.8,2.8-2.8h36c1.5,0,2.8,1.2,2.8,2.8v44
				C61.5,60.8,60.3,62,58.8,62z M22.8,14c-0.7,0-1.3,0.6-1.3,1.3v44c0,0.7,0.6,1.3,1.3,1.3h36c0.7,0,1.3-0.6,1.3-1.3v-44
				c0-0.7-0.6-1.3-1.3-1.3H22.8z"/>
		</g>
		<g>
			<path class="st3" d="M45.8,10h-10C35.3,10,35,9.7,35,9.3c0-0.4,0.3-0.8,0.8-0.8h10c0.4,0,0.8,0.3,0.8,0.8
				C46.5,9.7,46.2,10,45.8,10z"/>
		</g>
		<g>
			<path class="st3" d="M30.8,66.3c-0.3,0-0.5-0.1-0.7-0.3c-0.2-0.2-0.3-0.4-0.3-0.7c0-0.3,0.1-0.5,0.3-0.7c0.4-0.4,1-0.4,1.4,0
				c0.2,0.2,0.3,0.5,0.3,0.7c0,0.3-0.1,0.5-0.3,0.7C31.3,66.1,31,66.3,30.8,66.3z"/>
		</g>
		<g>
			<path class="st3" d="M39.8,65.3c0-0.5,0.4-1,1-1l0,0c0.5,0,1,0.5,1,1l0,0c0,0.5-0.5,1-1,1l0,0C40.2,66.3,39.8,65.8,39.8,65.3z"/>
		</g>
		<g>
			<path class="st3" d="M50.8,66.3c-0.3,0-0.5-0.1-0.7-0.3c-0.2-0.2-0.3-0.4-0.3-0.7c0-0.3,0.1-0.5,0.3-0.7c0.4-0.4,1-0.4,1.4,0
				c0.2,0.2,0.3,0.5,0.3,0.7c0,0.3-0.1,0.5-0.3,0.7C51.3,66.1,51,66.3,50.8,66.3z"/>
		</g>
		<g>
			<circle class="st3" cx="49.8" cy="9.3" r="1"/>
		</g>
		<g>
			<path class="st1" d="M35.8,30.3h-26c-0.6,0-1,0.4-1,1v20c0,2.2,1.8,4,4,4h20c2.2,0,4-1.8,4-4v-20C36.8,30.7,36.3,30.3,35.8,30.3z
				"/>
		</g>
		<g>
			<path class="st2" d="M27.7,30.3h-18c-0.6,0-1,0.4-1,1v17h19V30.3z"/>
		</g>
		<g>
			<path class="st3" d="M32.8,56h-20C10.1,56,8,53.9,8,51.3v-20c0-1,0.8-1.8,1.8-1.8h26c1,0,1.8,0.8,1.8,1.8v20
				C37.5,53.9,35.4,56,32.8,56z M9.8,31c-0.1,0-0.3,0.1-0.3,0.3v20c0,1.8,1.5,3.3,3.3,3.3h20c1.8,0,3.3-1.5,3.3-3.3v-20
				c0-0.1-0.1-0.3-0.3-0.3H9.8z"/>
		</g>
		<g>
			<path class="st3" d="M30.8,35c-0.4,0-0.8-0.3-0.8-0.8v-9c0-2.9-2.4-5.3-5.3-5.3h-4c-2.9,0-5.3,2.4-5.3,5.3v9
				c0,0.4-0.3,0.8-0.8,0.8c-0.4,0-0.8-0.3-0.8-0.8v-9c0-3.7,3-6.8,6.8-6.8h4c3.7,0,6.8,3,6.8,6.8v9C31.5,34.7,31.2,35,30.8,35z"/>
		</g>
		<g>
			<path class="st1" d="M49,48.1C38,27.8,24,41.9,24,41.9l-3.2-3.2v11.6h11.6L29.1,47C37.8,39.3,49,48.1,49,48.1z"/>
		</g>
		<g>
			<path class="st2" d="M49,48.1c-11.9-14.3-21.6-6.4-24.2-3.8c-0.4,0.4-1,0.4-1.4,0l-2.7-2.7v8.6h11.6L29.1,47
				C37.8,39.3,49,48.1,49,48.1z"/>
		</g>
		<g>
			<path class="st3" d="M20.7,51c-0.2,0-0.4-0.1-0.5-0.2S20,50.4,20,50.3V38.6c0-0.3,0.2-0.6,0.5-0.7c0.3-0.1,0.6-0.1,0.8,0.2
				l2.7,2.7c1.6-1.4,6.6-5.2,12.6-4.3c5,0.7,9.4,4.5,13.1,11.3c0.2,0.3,0.1,0.7-0.2,0.9c-0.3,0.2-0.7,0.2-0.9,0
				c-0.4-0.3-10.4-8-18.3-1.7l2.6,2.6c0.2,0.2,0.3,0.5,0.2,0.8c-0.1,0.3-0.4,0.5-0.7,0.5L20.7,51z M21.5,40.5v9l9,0l-1.9-1.9
				c-0.1-0.1-0.2-0.3-0.2-0.5c0-0.2,0.1-0.4,0.2-0.5c6.4-5.7,14.1-2.9,18.1-0.7c-3.1-4.6-6.5-7.3-10.4-7.8
				c-6.5-0.9-11.8,4.3-11.9,4.4c-0.3,0.3-0.8,0.3-1.1,0L21.5,40.5z"/>
		</g>
		<g>
			<path class="st1" d="M71.7,19.3h-26c-0.6,0-1,0.4-1,1v34c0,0.6,0.4,1,1,1h26c0.6,0,1-0.4,1-1v-34C72.7,19.7,72.3,19.3,71.7,19.3z
				"/>
		</g>
		<g>
			<path class="st2" d="M68.7,19.3h-23c-0.6,0-1,0.4-1,1v31c0,0.6,0.4,1,1,1h23c0.6,0,1-0.4,1-1v-31C69.7,19.7,69.3,19.3,68.7,19.3z
				"/>
		</g>
		<g>
			<path class="st3" d="M71.7,56h-26c-1,0-1.8-0.8-1.8-1.8v-34c0-1,0.8-1.8,1.8-1.8h26c1,0,1.8,0.8,1.8,1.8v34
				C73.5,55.2,72.7,56,71.7,56z M45.7,20c-0.1,0-0.3,0.1-0.3,0.3v34c0,0.1,0.1,0.3,0.3,0.3h26c0.1,0,0.3-0.1,0.3-0.3v-34
				c0-0.1-0.1-0.3-0.3-0.3H45.7z"/>
		</g>
		<g>
			<path class="st1" d="M64.7,24.3h-12c0,1.7-1.3,3-3,3v20c1.7,0,3,1.3,3,3h12c0-1.7,1.3-3,3-3v-20C66.1,27.3,64.7,25.9,64.7,24.3z"
				/>
		</g>
		<g>
			<path class="st2" d="M62.6,27.3H49.7v20c1.7,0,3,1.3,3,3h9c0-2.2,1.2-4.2,3-5.2V29.4C63.8,28.9,63.1,28.2,62.6,27.3z"/>
		</g>
		<g>
			<path class="st3" d="M64.7,51h-12c-0.4,0-0.8-0.3-0.8-0.8c0-1.2-1-2.3-2.3-2.3c-0.4,0-0.8-0.3-0.8-0.8v-20c0-0.4,0.3-0.8,0.8-0.8
				c1.2,0,2.3-1,2.3-2.3c0-0.4,0.3-0.8,0.8-0.8h12c0.4,0,0.8,0.3,0.8,0.8c0,1.2,1,2.3,2.3,2.3c0.4,0,0.8,0.3,0.8,0.8v20
				c0,0.4-0.3,0.8-0.8,0.8c-1.2,0-2.3,1-2.3,2.3C65.5,50.7,65.2,51,64.7,51z M53.4,49.5h10.7c0.3-1.5,1.5-2.6,2.9-2.9V27.9
				c-1.5-0.3-2.6-1.5-2.9-2.9H53.4c-0.3,1.5-1.5,2.6-2.9,2.9v18.7C52,46.9,53.1,48,53.4,49.5z"/>
		</g>
		<g>
			<path class="st3" d="M58.8,43.9c-1.7,0-3.1-0.9-3.7-2.4c-0.2-0.4,0-0.8,0.4-1c0.4-0.2,0.8,0,1,0.4c0.4,0.9,1.3,1.4,2.3,1.4
				c1.4,0,2.5-1,2.5-2.2c0-1-0.4-2.2-2.5-2.2c-2.9,0-4-1.9-4-3.7c0-2,1.8-3.7,4-3.7c1.7,0,3.1,0.9,3.7,2.4c0.2,0.4,0,0.8-0.4,1
				c-0.4,0.2-0.8,0-1-0.4c-0.4-0.9-1.3-1.4-2.3-1.4c-1.4,0-2.5,1-2.5,2.2c0,1,0.4,2.2,2.5,2.2c3,0,4,1.9,4,3.7
				C62.7,42.2,61,43.9,58.8,43.9z"/>
		</g>
		<g>
			<path class="st3" d="M58.7,32.1c-0.4,0-0.8-0.3-0.8-0.8v-1.6c0-0.4,0.3-0.8,0.8-0.8c0.4,0,0.8,0.3,0.8,0.8v1.6
				C59.5,31.8,59.2,32.1,58.7,32.1z"/>
		</g>
		<g>
			<path class="st3" d="M58.7,45.5c-0.4,0-0.8-0.3-0.8-0.8v-1.6c0-0.4,0.3-0.8,0.8-0.8c0.4,0,0.8,0.3,0.8,0.8v1.6
				C59.5,45.2,59.2,45.5,58.7,45.5z"/>
		</g>
		<g>
			<path class="st3" d="M71.7,14h-4c-0.4,0-0.8-0.3-0.8-0.8c0-0.4,0.3-0.8,0.8-0.8h4c0.4,0,0.8,0.3,0.8,0.8
				C72.5,13.7,72.2,14,71.7,14z"/>
		</g>
		<g>
			<path class="st3" d="M69.7,16c-0.4,0-0.8-0.3-0.8-0.8v-4c0-0.4,0.3-0.8,0.8-0.8c0.4,0,0.8,0.3,0.8,0.8v4
				C70.5,15.7,70.2,16,69.7,16z"/>
		</g>
		<g>
			<path class="st3" d="M68.7,64h-4c-0.4,0-0.8-0.3-0.8-0.7c0-0.4,0.3-0.8,0.8-0.8h4c0.4,0,0.8,0.3,0.8,0.8
				C69.5,63.7,69.2,64,68.7,64z"/>
		</g>
		<g>
			<path class="st3" d="M66.7,66c-0.4,0-0.8-0.3-0.8-0.8v-4c0-0.4,0.3-0.8,0.8-0.8c0.4,0,0.8,0.3,0.8,0.8v4
				C67.5,65.7,67.2,66,66.7,66z"/>
		</g>
		<g>
			<path class="st3" d="M12.7,61h-4C8.3,61,8,60.7,8,60.3c0-0.4,0.3-0.8,0.7-0.8h4c0.4,0,0.8,0.3,0.8,0.8C13.5,60.7,13.2,61,12.7,61
				z"/>
		</g>
		<g>
			<path class="st3" d="M10.7,63c-0.4,0-0.8-0.3-0.8-0.8v-4c0-0.4,0.3-0.8,0.8-0.8c0.4,0,0.8,0.3,0.8,0.8v4
				C11.5,62.7,11.2,63,10.7,63z"/>
		</g>
		<g>
			<path class="st3" d="M14.7,19h-4c-0.4,0-0.8-0.3-0.8-0.8c0-0.4,0.3-0.8,0.8-0.8h4c0.4,0,0.8,0.3,0.8,0.8
				C15.5,18.7,15.2,19,14.7,19z"/>
		</g>
		<g>
			<path class="st3" d="M12.7,21c-0.4,0-0.8-0.3-0.8-0.8v-4c0-0.4,0.3-0.7,0.8-0.7c0.4,0,0.8,0.3,0.8,0.7v4
				C13.5,20.7,13.2,21,12.7,21z"/>
		</g>
	</g>
</g>
</svg>
