<?xml version="1.0" encoding="utf-8"?>
<!-- Generator: Adobe Illustrator 19.0.0, SVG Export Plug-In . SVG Version: 6.00 Build 0)  -->
<svg version="1.1" id="Layer_1" xmlns="http://www.w3.org/2000/svg" xmlns:xlink="http://www.w3.org/1999/xlink" x="0px" y="0px"
	 viewBox="0 0 78.6 75.9" style="enable-background:new 0 0 78.6 75.9;" xml:space="preserve">
<style type="text/css">
	.st0{fill:#E8EAEB;}
	.st1{fill:#c2e1ff;}
	.st2{fill:#FFFFFF;}
	.st3{fill:#0984e3;}
</style>
<g id="XMLID_2_">
	<g id="XMLID_90_">
		<circle id="XMLID_91_" class="st0" cx="33.3" cy="61.9" r="14"/>
	</g>
	<g id="XMLID_88_">
		<circle id="XMLID_89_" class="st0" cx="12" cy="36.7" r="12"/>
	</g>
	<g id="XMLID_86_">
		<circle id="XMLID_87_" class="st0" cx="58.6" cy="20" r="20"/>
	</g>
	<g id="XMLID_3_">
		<g id="XMLID_84_">
			<path id="XMLID_85_" class="st1" d="M72,56.9H8v-39c0-1.7,1.3-3,3-3h58c1.7,0,3,1.3,3,3V56.9z"/>
		</g>
		<g id="XMLID_82_">
			<path id="XMLID_83_" class="st2" d="M65,52.9H8v-35c0-1.7,1.3-3,3-3h56v36C67,52.1,66.1,52.9,65,52.9z"/>
		</g>
		<g id="XMLID_78_">
			<path id="XMLID_79_" class="st3" d="M72,57.7H8c-0.4,0-0.8-0.3-0.8-0.8v-39c0-2.1,1.7-3.8,3.8-3.8h58c2.1,0,3.8,1.7,3.8,3.8v39
				C72.8,57.4,72.4,57.7,72,57.7z M8.8,56.2h62.5V17.9c0-1.2-1-2.3-2.3-2.3H11c-1.2,0-2.3,1-2.3,2.3V56.2z"/>
		</g>
		<g id="XMLID_76_">
			<rect id="XMLID_77_" x="26" y="62.9" class="st1" width="28" height="6"/>
		</g>
		<g id="XMLID_74_">
			<path id="XMLID_75_" class="st2" d="M51,62.9H26v3h24c0.6,0,1-0.4,1-1V62.9z"/>
		</g>
		<g id="XMLID_70_">
			<path id="XMLID_71_" class="st3" d="M54,69.7H26c-0.4,0-0.8-0.3-0.8-0.8v-6c0-0.4,0.3-0.8,0.8-0.8h28c0.4,0,0.8,0.3,0.8,0.8v6
				C54.8,69.4,54.4,69.7,54,69.7z M26.8,68.2h26.5v-4.5H26.8V68.2z"/>
		</g>
		<g id="XMLID_68_">
			<path id="XMLID_69_" class="st1" d="M69,62.9H11c-1.7,0-3-1.3-3-3v-3h64v3C72,61.6,70.7,62.9,69,62.9z"/>
		</g>
		<g id="XMLID_66_">
			<path id="XMLID_67_" class="st2" d="M67,59.9H8v-3h60v2C68,59.5,67.6,59.9,67,59.9z"/>
		</g>
		<g id="XMLID_62_">
			<path id="XMLID_63_" class="st3" d="M69,63.7H11c-2.1,0-3.8-1.7-3.8-3.8v-3c0-0.4,0.3-0.8,0.8-0.8h64c0.4,0,0.8,0.3,0.8,0.8v3
				C72.8,62,71.1,63.7,69,63.7z M8.8,57.7v2.3c0,1.2,1,2.3,2.3,2.3h58c1.2,0,2.3-1,2.3-2.3v-2.3H8.8z"/>
		</g>
		<g id="XMLID_60_">
			<path id="XMLID_61_" class="st3" d="M64,69.7H16c-0.4,0-0.8-0.3-0.8-0.8s0.3-0.8,0.8-0.8h48c0.4,0,0.8,0.3,0.8,0.8
				S64.4,69.7,64,69.7z"/>
		</g>
		<g id="XMLID_58_">
			<circle id="XMLID_59_" class="st3" cx="40" cy="59.9" r="1"/>
		</g>
		<g id="XMLID_56_">
			<path id="XMLID_57_" class="st3" d="M69,43.7h-4c-0.4,0-0.8-0.3-0.8-0.8c0-0.4,0.3-0.8,0.8-0.8h4c0.4,0,0.8,0.3,0.8,0.8
				C69.8,43.4,69.4,43.7,69,43.7z"/>
		</g>
		<g id="XMLID_54_">
			<path id="XMLID_55_" class="st3" d="M67,45.7c-0.4,0-0.8-0.3-0.8-0.8v-4c0-0.4,0.3-0.8,0.8-0.8c0.4,0,0.8,0.3,0.8,0.8v4
				C67.8,45.4,67.4,45.7,67,45.7z"/>
		</g>
		<g id="XMLID_52_">
			<path id="XMLID_53_" class="st3" d="M63,7.7h-4c-0.4,0-0.8-0.3-0.8-0.8c0-0.4,0.3-0.8,0.8-0.8h4c0.4,0,0.8,0.3,0.8,0.8
				C63.8,7.4,63.4,7.7,63,7.7z"/>
		</g>
		<g id="XMLID_50_">
			<path id="XMLID_51_" class="st3" d="M61,9.7c-0.4,0-0.8-0.3-0.8-0.8v-4c0-0.4,0.3-0.8,0.8-0.8c0.4,0,0.8,0.3,0.8,0.8v4
				C61.8,9.4,61.4,9.7,61,9.7z"/>
		</g>
		<g id="XMLID_48_">
			<path id="XMLID_49_" class="st3" d="M20,9.7h-4c-0.4,0-0.8-0.3-0.8-0.8c0-0.4,0.3-0.8,0.8-0.8h4c0.4,0,0.8,0.3,0.8,0.8
				C20.8,9.4,20.4,9.7,20,9.7z"/>
		</g>
		<g id="XMLID_46_">
			<path id="XMLID_47_" class="st3" d="M18,11.7c-0.4,0-0.8-0.3-0.8-0.8v-4c0-0.4,0.3-0.8,0.8-0.8c0.4,0,0.8,0.3,0.8,0.8v4
				C18.8,11.4,18.4,11.7,18,11.7z"/>
		</g>
		<g id="XMLID_44_">
			<path id="XMLID_45_" class="st3" d="M62,51.7h-4c-0.4,0-0.8-0.3-0.8-0.8s0.3-0.8,0.8-0.8h4c0.4,0,0.8,0.3,0.8,0.8
				S62.4,51.7,62,51.7z"/>
		</g>
		<g id="XMLID_42_">
			<path id="XMLID_43_" class="st3" d="M60,53.7c-0.4,0-0.8-0.3-0.8-0.8v-4c0-0.4,0.3-0.8,0.8-0.8c0.4,0,0.8,0.3,0.8,0.8v4
				C60.8,53.4,60.4,53.7,60,53.7z"/>
		</g>
		<g id="XMLID_40_">
			<path id="XMLID_41_" class="st3" d="M19,48.7h-4c-0.4,0-0.8-0.3-0.8-0.8c0-0.4,0.3-0.8,0.8-0.8h4c0.4,0,0.8,0.3,0.8,0.8
				C19.8,48.4,19.4,48.7,19,48.7z"/>
		</g>
		<g id="XMLID_38_">
			<path id="XMLID_39_" class="st3" d="M17,50.7c-0.4,0-0.8-0.3-0.8-0.8v-4c0-0.4,0.3-0.8,0.8-0.8c0.4,0,0.8,0.3,0.8,0.8v4
				C17.8,50.4,17.4,50.7,17,50.7z"/>
		</g>
		<g id="XMLID_36_">
			<path id="XMLID_37_" class="st3" d="M16,34.7h-4c-0.4,0-0.8-0.3-0.8-0.8c0-0.4,0.3-0.8,0.8-0.8h4c0.4,0,0.8,0.3,0.8,0.8
				C16.8,34.4,16.4,34.7,16,34.7z"/>
		</g>
		<g id="XMLID_34_">
			<path id="XMLID_35_" class="st3" d="M14,36.7c-0.4,0-0.8-0.3-0.8-0.8v-4c0-0.4,0.3-0.8,0.8-0.8c0.4,0,0.8,0.3,0.8,0.8v4
				C14.8,36.4,14.4,36.7,14,36.7z"/>
		</g>
		<g id="XMLID_32_">
			<polygon id="XMLID_33_" class="st2" points="40,4.9 43.8,10.1 49.2,6.8 50.7,13 57,12 56,18.3 62.2,19.8 58.8,25.2 64,28.9
				58.8,32.7 62.2,38.1 56,39.6 57,45.9 50.7,44.9 49.2,51.1 43.8,47.8 40,52.9 36.3,47.8 30.8,51.1 29.3,44.9 23,45.9 24,39.6
				17.8,38.1 21.2,32.7 16,28.9 21.2,25.2 17.8,19.8 24,18.3 23,12 29.3,13 30.8,6.8 36.3,10.1 			"/>
		</g>
		<g id="XMLID_30_">
			<path id="XMLID_31_" class="st1" d="M58.8,32.7l5.2-3.7l-5.2-3.7l3.3-5.4L56,18.3l1-6.3l-6.3,1l-1.5-6.2l-2.3,1.4l1.8,6.1
				c0.1,0.5,0.6,0.8,1.1,0.7l4.1-0.6c0.4-0.1,0.7,0.3,0.6,0.6l-1.3,4.3c-0.2,0.6,0.2,1.1,0.7,1.3l3.3,0.8c0.3,0.1,0.5,0.5,0.3,0.7
				l-1.9,3c-0.3,0.4-0.2,1,0.3,1.3l2.9,2.1c0.3,0.2,0.3,0.6,0,0.8l-2.9,2.1c-0.4,0.3-0.5,0.9-0.3,1.3l1.9,3c0.2,0.3,0,0.7-0.3,0.7
				l-3.3,0.8c-0.6,0.1-0.9,0.7-0.7,1.3l1.3,4.3c0.1,0.4-0.2,0.7-0.6,0.6l-3.7-0.8c-0.5-0.1-1,0.2-1.2,0.7l-1.7,6.6l1.9,1.2l1.5-6.2
				l6.3,1l-1-6.3l6.2-1.5L58.8,32.7z"/>
		</g>
		<g id="XMLID_26_">
			<path id="XMLID_27_" class="st3" d="M40,53.7c-0.2,0-0.5-0.1-0.6-0.3l-3.3-4.6l-4.8,3c-0.2,0.1-0.5,0.1-0.7,0.1
				c-0.2-0.1-0.4-0.3-0.4-0.5l-1.3-5.5l-5.6,0.9c-0.2,0-0.5,0-0.6-0.2c-0.2-0.2-0.2-0.4-0.2-0.6l0.9-5.6l-5.5-1.3
				c-0.2-0.1-0.4-0.2-0.5-0.4c-0.1-0.2-0.1-0.5,0.1-0.7l3-4.8l-4.6-3.3c-0.2-0.1-0.3-0.4-0.3-0.6s0.1-0.5,0.3-0.6l4.6-3.3l-3-4.8
				c-0.1-0.2-0.1-0.5-0.1-0.7c0.1-0.2,0.3-0.4,0.5-0.4l5.5-1.3l-0.9-5.6c0-0.2,0-0.5,0.2-0.6c0.2-0.2,0.4-0.3,0.6-0.2l5.6,0.9
				l1.3-5.5c0.1-0.2,0.2-0.4,0.4-0.5C30.8,6,31,6,31.2,6.1l4.8,3l3.3-4.6c0.1-0.2,0.4-0.3,0.6-0.3l0,0c0.2,0,0.5,0.1,0.6,0.3L44,9.1
				l4.8-3C49,6,49.3,6,49.5,6.1c0.2,0.1,0.4,0.3,0.4,0.5l1.3,5.5l5.6-0.9c0.2,0,0.5,0,0.6,0.2c0.2,0.2,0.2,0.4,0.2,0.6l-0.9,5.6
				l5.5,1.3c0.2,0.1,0.4,0.2,0.5,0.4c0.1,0.2,0.1,0.5-0.1,0.7l-3,4.8l4.6,3.3c0.2,0.1,0.3,0.4,0.3,0.6s-0.1,0.5-0.3,0.6l-4.6,3.3
				l3,4.8c0.1,0.2,0.1,0.5,0.1,0.7c-0.1,0.2-0.3,0.4-0.5,0.4l-5.5,1.3l0.9,5.6c0,0.2,0,0.5-0.2,0.6c-0.2,0.2-0.4,0.3-0.6,0.2
				l-5.6-0.9l-1.3,5.5c-0.1,0.2-0.2,0.4-0.4,0.5c-0.2,0.1-0.5,0.1-0.7-0.1l-4.8-3l-3.3,4.6C40.5,53.6,40.2,53.7,40,53.7z M36.3,47
				c0.2,0,0.5,0.1,0.6,0.3l3.1,4.3l3.1-4.3c0.2-0.3,0.7-0.4,1-0.2l4.6,2.8l1.2-5.2c0.1-0.4,0.5-0.6,0.8-0.6l5.3,0.8l-0.8-5.3
				c-0.1-0.4,0.2-0.8,0.6-0.8l5.2-1.2l-2.8-4.6c-0.2-0.3-0.1-0.8,0.2-1l4.3-3.1l-4.3-3.1c-0.3-0.2-0.4-0.7-0.2-1l2.8-4.6L55.8,19
				c-0.4-0.1-0.6-0.5-0.6-0.8l0.8-5.3l-5.3,0.8c-0.4,0.1-0.8-0.2-0.8-0.6L48.7,8l-4.6,2.8c-0.3,0.2-0.8,0.1-1-0.2L40,6.2l-3.1,4.3
				c-0.2,0.3-0.7,0.4-1,0.2L31.3,8l-1.2,5.2c-0.1,0.4-0.5,0.6-0.8,0.6l-5.3-0.8l0.8,5.3c0.1,0.4-0.2,0.8-0.6,0.8L19,20.3l2.8,4.6
				c0.2,0.3,0.1,0.8-0.2,1l-4.3,3.1l4.3,3.1c0.3,0.2,0.4,0.7,0.2,1L19,37.6l5.2,1.2c0.4,0.1,0.6,0.5,0.6,0.8L23.9,45l5.3-0.8
				c0.4-0.1,0.8,0.2,0.8,0.6l1.2,5.2l4.6-2.8C36,47.1,36.1,47,36.3,47z"/>
		</g>
		<g id="XMLID_24_">
			<path id="XMLID_25_" class="st2" d="M53,28.9c0-7.4-6.2-13.4-13.7-13c-6.7,0.4-12.1,5.9-12.3,12.6c-0.1,3.9,1.4,7.3,4,9.8
				c1.4,1.4,2.2,3.3,2.2,5.3v1.4h13.6v-1.5c0-2,0.9-3.8,2.3-5.2C51.5,35.9,53,32.6,53,28.9z"/>
		</g>
		<g id="XMLID_22_">
			<path id="XMLID_23_" class="st1" d="M44.4,16.7c3,2.4,5,6.1,5,10.2c0,3.6-1.5,6.9-3.9,9.3c-1.4,1.4-2.3,3.2-2.3,5.2l-0.5,3.5h4.1
				v-1.5c0-2,0.9-3.8,2.3-5.2c2.4-2.4,3.9-5.6,3.9-9.3C53,23.3,49.4,18.5,44.4,16.7z"/>
		</g>
		<g id="XMLID_18_">
			<path id="XMLID_19_" class="st3" d="M46.8,45.7H33.2c-0.4,0-0.8-0.3-0.8-0.8v-1.4c0-1.8-0.7-3.5-2-4.7c-2.8-2.7-4.4-6.5-4.2-10.4
				c0.2-7.1,5.9-12.9,13-13.3c3.8-0.2,7.4,1.1,10.2,3.7c2.8,2.6,4.3,6.2,4.3,10c0,3.7-1.5,7.2-4.1,9.8c-1.3,1.3-2.1,2.9-2.1,4.7v1.5
				C47.6,45.4,47.2,45.7,46.8,45.7z M33.9,44.2h12.1v-0.8c0-2.1,0.9-4.2,2.5-5.7c2.4-2.3,3.7-5.4,3.7-8.7c0-3.4-1.4-6.6-3.8-8.9
				c-2.5-2.3-5.7-3.5-9.1-3.3C33,17,28,22.2,27.8,28.5c-0.1,3.5,1.3,6.8,3.8,9.2c1.5,1.5,2.4,3.6,2.4,5.8V44.2z"/>
		</g>
		<g id="XMLID_14_">
			<path id="XMLID_15_" class="st3" d="M42.6,45.7h-5.3c-0.3,0-0.6-0.2-0.7-0.6l-3.8-13.8c-0.1-0.3,0-0.6,0.3-0.8
				c0.3-0.2,0.6-0.2,0.9,0l3.1,2.1l2.5-2c0.3-0.2,0.7-0.2,0.9,0l2.5,2l3.1-2.1c0.3-0.2,0.6-0.2,0.9,0c0.3,0.2,0.4,0.5,0.3,0.8
				l-3.9,13.8C43.3,45.5,43,45.7,42.6,45.7z M37.9,44.2h4.2l3.2-11.3l-1.9,1.2c-0.3,0.2-0.6,0.2-0.9,0l-2.5-2l-2.5,2
				c-0.3,0.2-0.6,0.2-0.9,0l-1.9-1.2L37.9,44.2z"/>
		</g>
		<g id="XMLID_12_">
			<path id="XMLID_13_" class="st1" d="M43.5,52.9h-7c-1.1,0-2-0.9-2-2v-6h11v6C45.5,52,44.6,52.9,43.5,52.9z"/>
		</g>
		<g id="XMLID_10_">
			<path id="XMLID_11_" class="st2" d="M41.5,50.9h-7v-6h8v5C42.5,50.5,42.1,50.9,41.5,50.9z"/>
		</g>
		<g id="XMLID_6_">
			<path id="XMLID_7_" class="st3" d="M43.5,53.7h-7c-1.5,0-2.8-1.2-2.8-2.8v-6c0-0.4,0.3-0.8,0.8-0.8h11c0.4,0,0.8,0.3,0.8,0.8v6
				C46.3,52.5,45,53.7,43.5,53.7z M35.3,45.7v5.3c0,0.7,0.6,1.3,1.3,1.3h7c0.7,0,1.3-0.6,1.3-1.3v-5.3H35.3z"/>
		</g>
		<g id="XMLID_4_">
			<path id="XMLID_5_" class="st3" d="M40.5,49.7h-6c-0.4,0-0.8-0.3-0.8-0.8s0.3-0.8,0.8-0.8h6c0.4,0,0.8,0.3,0.8,0.8
				S40.9,49.7,40.5,49.7z"/>
		</g>
	</g>
</g>
</svg>
