<?xml version="1.0" encoding="utf-8"?>
<!-- Generator: Adobe Illustrator 19.0.0, SVG Export Plug-In . SVG Version: 6.00 Build 0)  -->
<svg version="1.1" id="Layer_1" xmlns="http://www.w3.org/2000/svg" xmlns:xlink="http://www.w3.org/1999/xlink" x="0px" y="0px"
	 viewBox="0 0 76.8 77.2" style="enable-background:new 0 0 76.8 77.2;" xml:space="preserve">
<style type="text/css">
	.st0{fill:#E8EAEB;}
	.st1{fill:#FFFFFF;}
	.st2{fill:#c2e1ff;}
	.st3{fill:#0984e3;}
</style>
<g>
	<g>
		<circle class="st0" cx="33.6" cy="63.2" r="14"/>
	</g>
	<g>
		<circle class="st0" cx="64.8" cy="26.5" r="12"/>
	</g>
	<g>
		<circle class="st0" cx="20" cy="20" r="20"/>
	</g>
	<g>
		<g>
			<path class="st1" d="M66.3,68.7h-54c-2.9,0-5.2-2.5-5-5.4l2.6-35.7c0-0.5,0.5-0.9,1-0.9h56.9c0.5,0,1,0.4,1,0.9l2.6,35.7
				C71.5,66.3,69.2,68.7,66.3,68.7z"/>
		</g>
		<g>
			<path class="st2" d="M71.3,63.4l-2.6-35.7c0-0.5-0.5-0.9-1-0.9h-2.9l2.5,34.7c0.2,2.3-1.7,4.3-4,4.3H8.3c-0.2,0-0.4,0-0.6,0
				c0.8,1.8,2.5,3,4.6,3h54C69.2,68.7,71.5,66.3,71.3,63.4z"/>
		</g>
		<g>
			<path class="st3" d="M66.3,69.5h-54c-1.6,0-3.1-0.7-4.2-1.8c-1.1-1.2-1.6-2.7-1.5-4.3l2.6-35.7C9.2,26.7,10,26,10.9,26h56.9
				c0.9,0,1.7,0.7,1.7,1.6l2.6,35.7c0.1,1.6-0.4,3.2-1.5,4.3C69.5,68.8,67.9,69.5,66.3,69.5z M10.9,27.5c-0.1,0-0.2,0.1-0.3,0.2
				L8.1,63.4c-0.1,1.2,0.3,2.3,1.1,3.2c0.8,0.9,1.9,1.4,3.1,1.4h54c1.2,0,2.3-0.5,3.1-1.4c0.8-0.9,1.2-2,1.1-3.2L68,27.7
				c0-0.1-0.1-0.2-0.3-0.2H10.9z"/>
		</g>
		<g>
			<path class="st3" d="M52.3,62h-8c-0.4,0-0.8-0.3-0.8-0.8c0-0.4,0.3-0.8,0.8-0.8h8c4,0,7.3-3.3,7.3-7.3v-3.6
				c0-0.4,0.3-0.8,0.8-0.8c0.4,0,0.8,0.3,0.8,0.8v3.6C61.1,58.1,57.2,62,52.3,62z"/>
		</g>
		<g>
			<path class="st1" d="M41.8,63.7h-5c-1.4,0-2.5-1.1-2.5-2.5l0,0c0-1.4,1.1-2.5,2.5-2.5h5c1.4,0,2.5,1.1,2.5,2.5l0,0
				C44.3,62.6,43.2,63.7,41.8,63.7z"/>
		</g>
		<g>
			<path class="st2" d="M42.3,58.8c0,0.1,0,0.3,0,0.5v0.5c0,1.1-0.9,2-2,2h-5.5c-0.2,0-0.3,0-0.5,0c0.2,1.2,1.2,2,2.5,2h5
				c1.4,0,2.5-1.1,2.5-2.5C44.3,60,43.4,59,42.3,58.8z"/>
		</g>
		<g>
			<path class="st3" d="M41.8,64.5h-5c-1.8,0-3.3-1.5-3.3-3.3S35,58,36.8,58h5c1.8,0,3.3,1.5,3.3,3.3S43.6,64.5,41.8,64.5z
				 M36.8,59.5c-1,0-1.8,0.8-1.8,1.8c0,1,0.8,1.8,1.8,1.8h5c1,0,1.8-0.8,1.8-1.8c0-1-0.8-1.8-1.8-1.8H36.8z"/>
		</g>
		<g>
			<path class="st1" d="M60.3,30.4v-3.3c0-8.5-9.4-15.4-21-15.4c-11.6,0-21,6.9-21,15.4v3.7v-5c0-11.6,9.4-21,21-21
				c11.6,0,21,9.4,21,21v4.5V30.4z"/>
		</g>
		<g>
			<path class="st2" d="M39.3,4.7C35.2,4.7,31.3,6,28,8.1c2.3-0.9,4.8-1.3,7.3-1.3c6.7,0,12.6,3.1,16.5,8c5.2,2.8,8.5,7.3,8.5,12.3
				v-1.3C60.3,14.2,50.9,4.7,39.3,4.7z"/>
		</g>
		<g>
			<path class="st3" d="M60.3,33.1c-0.4,0-0.8-0.3-0.8-0.8v-5.2c0-8.1-9.1-14.6-20.3-14.6c-11.2,0-20.2,6.6-20.2,14.6v5.2
				c0,0.4-0.3,0.8-0.8,0.8c-0.4,0-0.8-0.3-0.8-0.8v-6.6c0-12,9.8-21.8,21.7-21.8c12,0,21.8,9.8,21.8,21.8v6.6
				C61.1,32.7,60.7,33.1,60.3,33.1z M39.3,11c8.4,0,15.7,3.5,19.3,8.7C56.1,11.5,48.4,5.5,39.3,5.5c-9.1,0-16.8,6-19.3,14.2
				C23.6,14.5,30.9,11,39.3,11z"/>
		</g>
		<g>
			<path class="st1" d="M54.3,52.7h-1c-1.1,0-2-0.9-2-2v-16c0-1.1,0.9-2,2-2h1c1.1,0,2,0.9,2,2v16C56.3,51.9,55.4,52.7,54.3,52.7z"
				/>
		</g>
		<g>
			<path class="st2" d="M54.3,32.7L54.3,32.7v17c0,0.6-0.4,1-1,1h-2l0,0c0,1.1,0.9,2,2,2h1c1.1,0,2-0.9,2-2v-16
				C56.3,33.6,55.4,32.7,54.3,32.7z"/>
		</g>
		<g>
			<path class="st3" d="M54.3,53.5h-1c-1.5,0-2.8-1.2-2.8-2.8v-16c0-1.5,1.2-2.8,2.8-2.8h1c1.5,0,2.8,1.2,2.8,2.8v16
				C57.1,52.3,55.8,53.5,54.3,53.5z M53.3,33.5c-0.7,0-1.3,0.6-1.3,1.3v16c0,0.7,0.6,1.3,1.3,1.3h1c0.7,0,1.3-0.6,1.3-1.3v-16
				c0-0.7-0.6-1.3-1.3-1.3H53.3z"/>
		</g>
		<g>
			<path class="st1" d="M56.3,34.7c4.4,0,8,3.6,8,8s-3.6,8-8,8V34.7z"/>
		</g>
		<g>
			<path class="st2" d="M56.3,45.9v4.8c4.4,0,8-3.6,8-8c0-0.8-0.1-1.6-0.4-2.4C62.9,43.6,59.9,45.9,56.3,45.9z"/>
		</g>
		<g>
			<path class="st3" d="M56.3,51.5c-0.4,0-0.8-0.3-0.8-0.8v-16c0-0.4,0.3-0.8,0.8-0.8c4.8,0,8.8,3.9,8.8,8.8S61.2,51.5,56.3,51.5z
				 M57.1,35.5V50c3.6-0.4,6.5-3.5,6.5-7.2C63.6,39,60.7,35.9,57.1,35.5z"/>
		</g>
		<g>
			<path class="st1" d="M24.3,32.7h1c1.1,0,2,0.9,2,2v16c0,1.1-0.9,2-2,2h-1c-1.1,0-2-0.9-2-2v-16C22.3,33.6,23.2,32.7,24.3,32.7z"
				/>
		</g>
		<g>
			<path class="st2" d="M25.3,32.7L25.3,32.7v17c0,0.6-0.4,1-1,1h-2l0,0c0,1.1,0.9,2,2,2h1c1.1,0,2-0.9,2-2v-16
				C27.3,33.6,26.4,32.7,25.3,32.7z"/>
		</g>
		<g>
			<path class="st3" d="M25.3,53.5h-1c-1.5,0-2.8-1.2-2.8-2.8v-16c0-1.5,1.2-2.8,2.8-2.8h1c1.5,0,2.8,1.2,2.8,2.8v16
				C28.1,52.3,26.8,53.5,25.3,53.5z M24.3,33.5c-0.7,0-1.3,0.6-1.3,1.3v16c0,0.7,0.6,1.3,1.3,1.3h1c0.7,0,1.3-0.6,1.3-1.3v-16
				c0-0.7-0.6-1.3-1.3-1.3H24.3z"/>
		</g>
		<g>
			<path class="st1" d="M22.3,50.7c-4.4,0-8-3.6-8-8c0-4.4,3.6-8,8-8V50.7z"/>
		</g>
		<g>
			<path class="st2" d="M20.3,35v10.7c0,0.6-0.5,1.1-1.1,1c-1.9-0.3-3.5-1.2-4.7-2.5c0.7,3.7,3.9,6.6,7.9,6.6v-16
				C21.6,34.7,21,34.8,20.3,35z"/>
		</g>
		<g>
			<path class="st3" d="M22.3,51.5c-4.8,0-8.7-3.9-8.7-8.8s3.9-8.8,8.7-8.8c0.4,0,0.8,0.3,0.8,0.8v16C23.1,51.2,22.7,51.5,22.3,51.5
				z M21.6,35.5c-3.6,0.4-6.5,3.5-6.5,7.2c0,3.7,2.9,6.8,6.5,7.2V35.5z"/>
		</g>
		<g>
			<path class="st3" d="M11.3,17.5h-4c-0.4,0-0.8-0.3-0.8-0.8c0-0.4,0.3-0.8,0.8-0.8h4c0.4,0,0.8,0.3,0.8,0.8
				C12.1,17.2,11.7,17.5,11.3,17.5z"/>
		</g>
		<g>
			<path class="st3" d="M9.3,19.5c-0.4,0-0.8-0.3-0.8-0.8v-4c0-0.4,0.3-0.8,0.8-0.8c0.4,0,0.8,0.3,0.8,0.8v4
				C10.1,19.2,9.7,19.5,9.3,19.5z"/>
		</g>
		<g>
			<path class="st3" d="M20.3,7.5h-4c-0.4,0-0.8-0.3-0.8-0.8c0-0.4,0.3-0.8,0.8-0.8h4c0.4,0,0.8,0.3,0.8,0.8
				C21.1,7.2,20.7,7.5,20.3,7.5z"/>
		</g>
		<g>
			<path class="st3" d="M18.3,9.5c-0.4,0-0.8-0.3-0.8-0.8v-4c0-0.4,0.3-0.8,0.8-0.8c0.4,0,0.8,0.3,0.8,0.8v4
				C19.1,9.2,18.7,9.5,18.3,9.5z"/>
		</g>
		<g>
			<path class="st3" d="M64.3,11.5h-4c-0.4,0-0.8-0.3-0.8-0.8c0-0.4,0.3-0.8,0.8-0.8h4c0.4,0,0.8,0.3,0.8,0.8
				C65.1,11.2,64.8,11.5,64.3,11.5z"/>
		</g>
		<g>
			<path class="st3" d="M62.3,13.5c-0.4,0-0.8-0.3-0.8-0.8v-4c0-0.4,0.3-0.7,0.8-0.7c0.4,0,0.8,0.3,0.8,0.7v4
				C63.1,13.2,62.8,13.5,62.3,13.5z"/>
		</g>
		<g>
			<path class="st3" d="M71.3,21.5h-4c-0.4,0-0.8-0.3-0.8-0.8s0.3-0.8,0.8-0.8h4c0.4,0,0.8,0.3,0.8,0.8S71.8,21.5,71.3,21.5z"/>
		</g>
		<g>
			<path class="st3" d="M69.3,23.5c-0.4,0-0.8-0.3-0.8-0.8v-4c0-0.4,0.3-0.8,0.8-0.8c0.4,0,0.8,0.3,0.8,0.8v4
				C70.1,23.2,69.8,23.5,69.3,23.5z"/>
		</g>
	</g>
</g>
</svg>
