<?xml version="1.0" encoding="utf-8"?>
<!-- Generator: Adobe Illustrator 19.0.0, SVG Export Plug-In . SVG Version: 6.00 Build 0)  -->
<svg version="1.1" id="Layer_1" xmlns="http://www.w3.org/2000/svg" xmlns:xlink="http://www.w3.org/1999/xlink" x="0px" y="0px"
	 viewBox="0 0 83.1 83.1" style="enable-background:new 0 0 83.1 83.1;" xml:space="preserve">
<style type="text/css">
	.st0{fill:#E8EAEB;}
	.st1{fill:#c2e1ff;}
	.st2{fill:#FFFFFF;}
	.st3{fill:#0984e3;}
</style>
<g id="XMLID_101_">
	<circle id="XMLID_102_" class="st0" cx="15.3" cy="32" r="14"/>
</g>
<path id="XMLID_100_" class="st0" d="M47.8,2.3c6.6,0,12,5.4,12,12c0,6.6-5.4,12-12,12c-6.6,0-12-5.4-12-12
	C35.8,7.6,41.2,2.3,47.8,2.3"/>
<path id="XMLID_99_" class="st0" d="M59.8,80c-11,0-20-9-20-20c0-11,9-20,20-20c11,0,20,9,20,20C79.8,71.1,70.8,80,59.8,80"/>
<g id="XMLID_2_">
	<g id="XMLID_97_">
		<path id="XMLID_98_" class="st1" d="M24.5,73.5h36c2.2,0,4-1.8,4-4v-56c0-2.2-1.8-4-4-4h-36c-2.2,0-4,1.8-4,4v56
			C20.5,71.7,22.3,73.5,24.5,73.5z"/>
	</g>
	<g id="XMLID_95_">
		<path id="XMLID_96_" class="st2" d="M20.5,71.5h37c1.7,0,3-1.3,3-3v-2h-40V71.5z"/>
	</g>
	<g id="XMLID_93_">
		<path id="XMLID_94_" class="st2" d="M20.5,14.5h39c0.6,0,1-0.4,1-1v-4h-36c-2.2,0-4,1.8-4,4V14.5z"/>
	</g>
	<g id="XMLID_89_">
		<path id="XMLID_90_" class="st3" d="M60.5,74.3h-36c-2.6,0-4.8-2.1-4.8-4.8v-56c0-2.6,2.1-4.8,4.8-4.8h36c2.6,0,4.8,2.1,4.8,4.8
			v56C65.3,72.2,63.2,74.3,60.5,74.3z M24.5,10.3c-1.8,0-3.3,1.5-3.3,3.3v56c0,1.8,1.5,3.3,3.3,3.3h36c1.8,0,3.3-1.5,3.3-3.3v-56
			c0-1.8-1.5-3.3-3.3-3.3H24.5z"/>
	</g>
	<g id="XMLID_87_">
		<path id="XMLID_88_" class="st1" d="M22.5,66.5h40c1.1,0,2-0.9,2-2v-46c0-1.1-0.9-2-2-2h-40c-1.1,0-2,0.9-2,2v46
			C20.5,65.6,21.4,66.5,22.5,66.5z"/>
	</g>
	<g id="XMLID_85_">
		<path id="XMLID_86_" class="st2" d="M20.5,63.5h38c1.1,0,2-0.9,2-2v-45h-38c-1.1,0-2,0.9-2,2V63.5z"/>
	</g>
	<g id="XMLID_81_">
		<path id="XMLID_82_" class="st3" d="M62.5,67.3h-40c-1.5,0-2.8-1.2-2.8-2.8v-46c0-1.5,1.2-2.8,2.8-2.8h40c1.5,0,2.8,1.2,2.8,2.8
			v46C65.3,66.1,64.1,67.3,62.5,67.3z M22.5,17.3c-0.7,0-1.3,0.6-1.3,1.3v46c0,0.7,0.6,1.3,1.3,1.3h40c0.7,0,1.3-0.6,1.3-1.3v-46
			c0-0.7-0.6-1.3-1.3-1.3H22.5z"/>
	</g>
	<g id="XMLID_79_">
		<path id="XMLID_80_" class="st3" d="M48.1,13.8h-10c-0.4,0-0.8-0.3-0.8-0.8c0-0.4,0.3-0.8,0.8-0.8h10c0.4,0,0.8,0.3,0.8,0.8
			C48.9,13.4,48.5,13.8,48.1,13.8z"/>
	</g>
	<g id="XMLID_77_">
		<path id="XMLID_78_" class="st3" d="M45.1,70.8h-4c-0.4,0-0.8-0.3-0.8-0.8c0-0.4,0.3-0.8,0.8-0.8h4c0.4,0,0.8,0.3,0.8,0.8
			C45.9,70.4,45.5,70.8,45.1,70.8z"/>
	</g>
	<g id="XMLID_75_">
		<path id="XMLID_76_" class="st3" d="M55.1,70.8h-4c-0.4,0-0.8-0.3-0.8-0.8c0-0.4,0.3-0.8,0.8-0.8h4c0.4,0,0.8,0.3,0.8,0.8
			C55.9,70.4,55.5,70.8,55.1,70.8z"/>
	</g>
	<g id="XMLID_73_">
		<path id="XMLID_74_" class="st3" d="M35.1,70.8h-4c-0.4,0-0.8-0.3-0.8-0.8c0-0.4,0.3-0.8,0.8-0.8h4c0.4,0,0.8,0.3,0.8,0.8
			C35.9,70.4,35.5,70.8,35.1,70.8z"/>
	</g>
	<g id="XMLID_71_">
		<circle id="XMLID_72_" class="st3" cx="52.1" cy="13" r="1"/>
	</g>
	<g id="XMLID_69_">
		<path id="XMLID_70_" class="st1" d="M24.5,28h-13c-1.1,0-2-0.9-2-2v-2c0-1.1,0.9-2,2-2h13c1.1,0,2,0.9,2,2v2
			C26.5,27.1,25.6,28,24.5,28z"/>
	</g>
	<g id="XMLID_67_">
		<path id="XMLID_68_" class="st2" d="M22.5,26h-11c-1.1,0-2-0.9-2-2l0,0c0-1.1,0.9-2,2-2h10c1.1,0,2,0.9,2,2v1
			C23.5,25.6,23.1,26,22.5,26z"/>
	</g>
	<g id="XMLID_63_">
		<path id="XMLID_64_" class="st3" d="M24.5,28.8h-13c-1.5,0-2.8-1.2-2.8-2.8v-2c0-1.5,1.2-2.8,2.8-2.8h13c1.5,0,2.8,1.2,2.8,2.8v2
			C27.3,27.5,26.1,28.8,24.5,28.8z M11.5,22.8c-0.7,0-1.3,0.6-1.3,1.3v2c0,0.7,0.6,1.3,1.3,1.3h13c0.7,0,1.3-0.6,1.3-1.3v-2
			c0-0.7-0.6-1.3-1.3-1.3H11.5z"/>
	</g>
	<g id="XMLID_61_">
		<path id="XMLID_62_" class="st1" d="M71.5,22h-38c-1.1,0-2,0.9-2,2v7c0,1.1-0.9,2-2,2h-18c-1.1,0-2,0.9-2,2v2c0,1.1,0.9,2,2,2h18
			c1.1,0,2,0.9,2,2v18c0,1.1,0.9,2,2,2h38c1.1,0,2-0.9,2-2V24C73.5,22.9,72.6,22,71.5,22z"/>
	</g>
	<g id="XMLID_59_">
		<path id="XMLID_60_" class="st2" d="M69.5,22h-36c-1.1,0-2,0.9-2,2v7c0,1.1-0.9,2-2,2h-18c-1.1,0-2,0.9-2,2v2c0,1.1,0.9,2,2,2h18
			c1.1,0,2,0.9,2,2v16c0,1.1,0.9,2,2,2h37c0.6,0,1-0.4,1-1V24C71.5,22.9,70.6,22,69.5,22z"/>
	</g>
	<g id="XMLID_55_">
		<path id="XMLID_56_" class="st3" d="M71.5,61.8h-38c-1.5,0-2.7-1.2-2.7-2.8V41c0-0.7-0.6-1.3-1.3-1.3h-18c-1.5,0-2.8-1.2-2.8-2.8
			v-2c0-1.5,1.2-2.8,2.8-2.8h18c0.7,0,1.3-0.6,1.3-1.3v-7c0-1.5,1.2-2.8,2.7-2.8h38c1.5,0,2.8,1.2,2.8,2.8v35
			C74.3,60.6,73.1,61.8,71.5,61.8z M11.5,33.8c-0.7,0-1.3,0.6-1.3,1.3v2c0,0.7,0.6,1.3,1.3,1.3h18c1.5,0,2.7,1.2,2.7,2.8v18
			c0,0.7,0.6,1.3,1.3,1.3h38c0.7,0,1.3-0.6,1.3-1.3V24c0-0.7-0.6-1.3-1.3-1.3h-38c-0.7,0-1.3,0.6-1.3,1.3v7c0,1.5-1.2,2.8-2.7,2.8
			H11.5z"/>
	</g>
	<g id="XMLID_53_">
		<path id="XMLID_54_" class="st1" d="M24.5,50h-13c-1.1,0-2-0.9-2-2v-2c0-1.1,0.9-2,2-2h13c1.1,0,2,0.9,2,2v2
			C26.5,49.1,25.6,50,24.5,50z"/>
	</g>
	<g id="XMLID_51_">
		<path id="XMLID_52_" class="st2" d="M22.5,48h-11c-1.1,0-2-0.9-2-2l0,0c0-1.1,0.9-2,2-2h10c1.1,0,2,0.9,2,2v1
			C23.5,47.6,23.1,48,22.5,48z"/>
	</g>
	<g id="XMLID_47_">
		<path id="XMLID_48_" class="st3" d="M24.5,50.8h-13c-1.5,0-2.8-1.2-2.8-2.8v-2c0-1.5,1.2-2.8,2.8-2.8h13c1.5,0,2.8,1.2,2.8,2.8v2
			C27.3,49.6,26.1,50.8,24.5,50.8z M11.5,44.8c-0.7,0-1.3,0.6-1.3,1.3v2c0,0.7,0.6,1.3,1.3,1.3h13c0.7,0,1.3-0.6,1.3-1.3v-2
			c0-0.7-0.6-1.3-1.3-1.3H11.5z"/>
	</g>
	<g id="XMLID_45_">
		<path id="XMLID_46_" class="st1" d="M24.5,61h-13c-1.1,0-2-0.9-2-2v-2c0-1.1,0.9-2,2-2h13c1.1,0,2,0.9,2,2v2
			C26.5,60.1,25.6,61,24.5,61z"/>
	</g>
	<g id="XMLID_43_">
		<path id="XMLID_44_" class="st2" d="M22.5,59h-11c-1.1,0-2-0.9-2-2l0,0c0-1.1,0.9-2,2-2h10c1.1,0,2,0.9,2,2v1
			C23.5,58.6,23.1,59,22.5,59z"/>
	</g>
	<g id="XMLID_39_">
		<path id="XMLID_40_" class="st3" d="M24.5,61.8h-13c-1.5,0-2.8-1.2-2.8-2.8v-2c0-1.5,1.2-2.8,2.8-2.8h13c1.5,0,2.8,1.2,2.8,2.8v2
			C27.3,60.6,26.1,61.8,24.5,61.8z M11.5,55.8c-0.7,0-1.3,0.6-1.3,1.3v2c0,0.7,0.6,1.3,1.3,1.3h13c0.7,0,1.3-0.6,1.3-1.3v-2
			c0-0.7-0.6-1.3-1.3-1.3H11.5z"/>
	</g>
	<g id="XMLID_37_">
		<path id="XMLID_38_" class="st1" d="M67.5,56h-30c-0.6,0-1-0.4-1-1v-8c0-0.6,0.4-1,1-1h30c0.6,0,1,0.4,1,1v8
			C68.5,55.6,68.1,56,67.5,56z"/>
	</g>
	<g id="XMLID_35_">
		<path id="XMLID_36_" class="st2" d="M64.5,53h-27c-0.6,0-1-0.4-1-1v-5c0-0.6,0.4-1,1-1h27c0.6,0,1,0.4,1,1v5
			C65.5,52.6,65.1,53,64.5,53z"/>
	</g>
	<g id="XMLID_31_">
		<path id="XMLID_32_" class="st3" d="M67.5,56.8h-30c-1,0-1.8-0.8-1.8-1.8v-8c0-1,0.8-1.8,1.8-1.8h30c1,0,1.8,0.8,1.8,1.8v8
			C69.3,56,68.5,56.8,67.5,56.8z M37.5,46.8c-0.1,0-0.3,0.1-0.3,0.3v8c0,0.1,0.1,0.3,0.3,0.3h30c0.1,0,0.3-0.1,0.3-0.3v-8
			c0-0.1-0.1-0.3-0.3-0.3H37.5z"/>
	</g>
	<g id="XMLID_29_">
		<path id="XMLID_30_" class="st1" d="M67.5,41h-30c-0.6,0-1-0.4-1-1V28c0-0.6,0.4-1,1-1h30c0.6,0,1,0.4,1,1v12
			C68.5,40.6,68.1,41,67.5,41z"/>
	</g>
	<g id="XMLID_27_">
		<path id="XMLID_28_" class="st2" d="M64.5,38h-27c-0.6,0-1-0.4-1-1v-9c0-0.6,0.4-1,1-1h27c0.6,0,1,0.4,1,1v9
			C65.5,37.6,65.1,38,64.5,38z"/>
	</g>
	<g id="XMLID_23_">
		<path id="XMLID_24_" class="st3" d="M67.5,41.8h-30c-1,0-1.8-0.8-1.8-1.8V28c0-1,0.8-1.8,1.8-1.8h30c1,0,1.8,0.8,1.8,1.8v12
			C69.3,41,68.5,41.8,67.5,41.8z M37.5,27.8c-0.1,0-0.3,0.1-0.3,0.3v12c0,0.1,0.1,0.3,0.3,0.3h30c0.1,0,0.3-0.1,0.3-0.3V28
			c0-0.1-0.1-0.3-0.3-0.3H37.5z"/>
	</g>
	<g id="XMLID_21_">
		<path id="XMLID_22_" class="st3" d="M47.5,32.8h-4c-0.4,0-0.8-0.3-0.8-0.8c0-0.4,0.3-0.8,0.8-0.8h4c0.4,0,0.8,0.3,0.8,0.8
			C48.3,32.4,48,32.8,47.5,32.8z"/>
	</g>
	<g id="XMLID_19_">
		<path id="XMLID_20_" class="st3" d="M45.5,34.8c-0.4,0-0.8-0.3-0.8-0.8v-4c0-0.4,0.3-0.8,0.8-0.8c0.4,0,0.8,0.3,0.8,0.8v4
			C46.3,34.4,46,34.8,45.5,34.8z"/>
	</g>
	<g id="XMLID_17_">
		<path id="XMLID_18_" class="st3" d="M53.5,51.8h-4c-0.4,0-0.8-0.3-0.8-0.8c0-0.4,0.3-0.8,0.8-0.8h4c0.4,0,0.8,0.3,0.8,0.8
			C54.3,51.5,54,51.8,53.5,51.8z"/>
	</g>
	<g id="XMLID_15_">
		<path id="XMLID_16_" class="st3" d="M51.5,53.8c-0.4,0-0.8-0.3-0.8-0.8v-4c0-0.4,0.3-0.8,0.8-0.8c0.4,0,0.8,0.3,0.8,0.8v4
			C52.3,53.5,52,53.8,51.5,53.8z"/>
	</g>
	<g id="XMLID_13_">
		<path id="XMLID_14_" class="st3" d="M15.5,68.8h-4c-0.4,0-0.8-0.3-0.8-0.8s0.3-0.8,0.8-0.8h4c0.4,0,0.8,0.3,0.8,0.8
			S15.9,68.8,15.5,68.8z"/>
	</g>
	<g id="XMLID_11_">
		<path id="XMLID_12_" class="st3" d="M13.5,70.8c-0.4,0-0.8-0.3-0.8-0.8v-4c0-0.4,0.3-0.8,0.8-0.8c0.4,0,0.8,0.3,0.8,0.8v4
			C14.3,70.5,13.9,70.8,13.5,70.8z"/>
	</g>
	<g id="XMLID_9_">
		<path id="XMLID_10_" class="st3" d="M62.5,36.8h-4c-0.4,0-0.8-0.3-0.8-0.8c0-0.4,0.3-0.8,0.8-0.8h4c0.4,0,0.8,0.3,0.8,0.8
			C63.3,36.4,63,36.8,62.5,36.8z"/>
	</g>
	<g id="XMLID_7_">
		<path id="XMLID_8_" class="st3" d="M60.5,38.8c-0.4,0-0.8-0.3-0.8-0.8v-4c0-0.4,0.3-0.8,0.8-0.8c0.4,0,0.8,0.3,0.8,0.8v4
			C61.3,38.4,61,38.8,60.5,38.8z"/>
	</g>
	<g id="XMLID_5_">
		<path id="XMLID_6_" class="st3" d="M73.5,14.8h-4c-0.4,0-0.8-0.3-0.8-0.8c0-0.4,0.3-0.8,0.8-0.8h4c0.4,0,0.8,0.3,0.8,0.8
			C74.3,14.4,74,14.8,73.5,14.8z"/>
	</g>
	<g id="XMLID_3_">
		<path id="XMLID_4_" class="st3" d="M71.5,16.8c-0.4,0-0.8-0.3-0.8-0.8v-4c0-0.4,0.3-0.8,0.8-0.8c0.4,0,0.8,0.3,0.8,0.8v4
			C72.3,16.4,72,16.8,71.5,16.8z"/>
	</g>
</g>
</svg>
