<?xml version="1.0" encoding="utf-8"?>
<!-- Generator: Adobe Illustrator 19.0.0, SVG Export Plug-In . SVG Version: 6.00 Build 0)  -->
<svg version="1.1" id="Layer_1" xmlns="http://www.w3.org/2000/svg" xmlns:xlink="http://www.w3.org/1999/xlink" x="0px" y="0px"
	 viewBox="0 0 80.3 74.7" style="enable-background:new 0 0 80.3 74.7;" xml:space="preserve">
<style type="text/css">
	.st0{fill:#E8EAEB;}
	.st1{fill:#c2e1ff;}
	.st2{fill:#FFFFFF;}
	.st3{fill:#0984e3;}
</style>
<g>
	<g>
		<circle class="st0" cx="14" cy="31.2" r="14"/>
	</g>
	<g>
		<circle class="st0" cx="53" cy="12" r="12"/>
	</g>
	<g>
		<circle class="st0" cx="60.3" cy="54.7" r="20"/>
	</g>
	<g>
		<g>
			<path class="st1" d="M71.3,15h-58V9c0-1.1,0.9-2,2-2h54c1.1,0,2,0.9,2,2V15z"/>
		</g>
		<g>
			<path class="st2" d="M61.3,13h-48V9c0-1.1,0.9-2,2-2h48v4C63.3,12.1,62.4,13,61.3,13z"/>
		</g>
		<g>
			<path class="st3" d="M66.3,11.7c-0.2,0-0.4-0.1-0.5-0.2c-0.1-0.2-0.2-0.4-0.2-0.5c0-0.2,0.1-0.4,0.2-0.5c0.3-0.3,0.8-0.3,1.1,0
				c0.1,0.1,0.2,0.3,0.2,0.5c0,0.2-0.1,0.4-0.2,0.5C66.6,11.7,66.4,11.7,66.3,11.7z"/>
		</g>
		<g>
			<path class="st3" d="M60.5,11c0-0.4,0.3-0.8,0.8-0.8l0,0c0.4,0,0.8,0.3,0.8,0.8l0,0c0,0.4-0.3,0.8-0.8,0.8l0,0
				C60.8,11.7,60.5,11.4,60.5,11z"/>
		</g>
		<g>
			<path class="st3" d="M56.3,11.7c-0.2,0-0.4-0.1-0.5-0.2c-0.1-0.1-0.2-0.3-0.2-0.5c0-0.2,0.1-0.4,0.2-0.5c0.3-0.3,0.8-0.3,1.1,0
				c0.1,0.1,0.2,0.3,0.2,0.5c0,0.2-0.1,0.4-0.2,0.5C56.6,11.7,56.4,11.7,56.3,11.7z"/>
		</g>
		<g>
			<path class="st3" d="M71.3,15.7h-58c-0.4,0-0.8-0.3-0.8-0.8V9c0-1.5,1.2-2.8,2.8-2.8h54C70.8,6.2,72,7.5,72,9v6
				C72,15.4,71.7,15.7,71.3,15.7z M14,14.2h56.5V9c0-0.7-0.6-1.3-1.3-1.3h-54C14.6,7.7,14,8.3,14,9V14.2z"/>
		</g>
		<g>
			<path class="st1" d="M71.3,15h-58v48c0,1.1,0.9,2,2,2h54c1.1,0,2-0.9,2-2V15z"/>
		</g>
		<g>
			<path class="st2" d="M68.3,15h-55v47h51c2.2,0,4-1.8,4-4V15z"/>
		</g>
		<g>
			<path class="st3" d="M69.3,65.7h-54c-1.5,0-2.8-1.2-2.8-2.8V15c0-0.4,0.3-0.8,0.8-0.8h58c0.4,0,0.8,0.3,0.8,0.8v48
				C72,64.5,70.8,65.7,69.3,65.7z M14,15.7V63c0,0.7,0.6,1.3,1.3,1.3h54c0.7,0,1.3-0.6,1.3-1.3V15.7H14z"/>
		</g>
		<g>
			<path class="st1" d="M63.3,59h-42c-1.1,0-2-0.9-2-2v-8c0-1.1,0.9-2,2-2h42c1.1,0,2,0.9,2,2v8C65.3,58.1,64.4,59,63.3,59z"/>
		</g>
		<g>
			<path class="st2" d="M60.3,56h-41v-7c0-1.1,0.9-2,2-2h41v7C62.3,55.1,61.4,56,60.3,56z"/>
		</g>
		<g>
			<path class="st3" d="M63.3,59.7h-42c-1.5,0-2.8-1.2-2.8-2.8v-8c0-1.5,1.2-2.8,2.8-2.8h42c1.5,0,2.8,1.2,2.8,2.8v8
				C66,58.5,64.8,59.7,63.3,59.7z M21.3,47.7c-0.7,0-1.3,0.6-1.3,1.3v8c0,0.7,0.6,1.3,1.3,1.3h42c0.7,0,1.3-0.6,1.3-1.3v-8
				c0-0.7-0.6-1.3-1.3-1.3H21.3z"/>
		</g>
		<g>
			<path class="st1" d="M63.3,41h-42c-1.1,0-2-0.9-2-2V23c0-1.1,0.9-2,2-2h42c1.1,0,2,0.9,2,2v16C65.3,40.1,64.4,41,63.3,41z"/>
		</g>
		<g>
			<path class="st2" d="M60.3,38h-41V23c0-1.1,0.9-2,2-2h41v15C62.3,37.1,61.4,38,60.3,38z"/>
		</g>
		<g>
			<path class="st3" d="M63.3,41.7h-42c-1.5,0-2.8-1.2-2.8-2.8V23c0-1.5,1.2-2.8,2.8-2.8h42c1.5,0,2.8,1.2,2.8,2.8v16
				C66,40.5,64.8,41.7,63.3,41.7z M21.3,21.7c-0.7,0-1.3,0.6-1.3,1.3v16c0,0.7,0.6,1.3,1.3,1.3h42c0.7,0,1.3-0.6,1.3-1.3V23
				c0-0.7-0.6-1.3-1.3-1.3H21.3z"/>
		</g>
		<g>
			<path class="st1" d="M37.3,71h-28c-1.1,0-2-0.9-2-2V29c0-1.1,0.9-2,2-2h28c1.1,0,2,0.9,2,2v40C39.3,70.1,38.4,71,37.3,71z"/>
		</g>
		<g>
			<path class="st2" d="M33.3,67.5h-26V29c0-1.1,0.9-2,2-2h26v38.5C35.3,66.6,34.4,67.5,33.3,67.5z"/>
		</g>
		<g>
			<path class="st3" d="M37.3,71.7h-28c-1.5,0-2.8-1.2-2.8-2.8V29c0-1.5,1.2-2.8,2.8-2.8h28c1.5,0,2.8,1.2,2.8,2.8v40
				C40,70.5,38.8,71.7,37.3,71.7z M9.3,27.7C8.6,27.7,8,28.3,8,29v40c0,0.7,0.6,1.3,1.3,1.3h28c0.7,0,1.3-0.6,1.3-1.3V29
				c0-0.7-0.6-1.3-1.3-1.3H9.3z"/>
		</g>
		<g>
			<path class="st1" d="M37.3,64h-28c-1.1,0-2-0.9-2-2V36c0-1.1,0.9-2,2-2h28c1.1,0,2,0.9,2,2v26C39.3,63.1,38.4,64,37.3,64z"/>
		</g>
		<g>
			<path class="st2" d="M34.3,61h-27V36c0-1.1,0.9-2,2-2h27v25C36.3,60.1,35.4,61,34.3,61z"/>
		</g>
		<g>
			<path class="st3" d="M37.3,64.7h-28c-1.5,0-2.8-1.2-2.8-2.8V36c0-1.5,1.2-2.8,2.8-2.8h28c1.5,0,2.8,1.2,2.8,2.8v26
				C40,63.5,38.8,64.7,37.3,64.7z M9.3,34.7C8.6,34.7,8,35.3,8,36v26c0,0.7,0.6,1.3,1.3,1.3h28c0.7,0,1.3-0.6,1.3-1.3V36
				c0-0.7-0.6-1.3-1.3-1.3H9.3z"/>
		</g>
		<g>
			<circle class="st3" cx="23.3" cy="30.5" r="1"/>
		</g>
		<g>
			<circle class="st3" cx="23.3" cy="67.5" r="1"/>
		</g>
		<g>
			<circle class="st3" cx="15.3" cy="67.5" r="1"/>
		</g>
		<g>
			<circle class="st3" cx="31.3" cy="67.5" r="1"/>
		</g>
		<g>
			<path class="st3" d="M17.3,41.7h-4c-0.4,0-0.8-0.3-0.8-0.8c0-0.4,0.3-0.8,0.8-0.8h4c0.4,0,0.8,0.3,0.8,0.8
				C18,41.4,17.7,41.7,17.3,41.7z"/>
		</g>
		<g>
			<path class="st3" d="M15.3,43.7c-0.4,0-0.8-0.3-0.8-0.8v-4c0-0.4,0.3-0.8,0.8-0.8c0.4,0,0.8,0.3,0.8,0.8v4
				C16,43.4,15.7,43.7,15.3,43.7z"/>
		</g>
		<g>
			<path class="st3" d="M30.3,49.7h-4c-0.4,0-0.8-0.3-0.8-0.8c0-0.4,0.3-0.8,0.8-0.8h4c0.4,0,0.8,0.3,0.8,0.8
				C31,49.4,30.7,49.7,30.3,49.7z"/>
		</g>
		<g>
			<path class="st3" d="M28.3,51.7c-0.4,0-0.8-0.3-0.8-0.8v-4c0-0.4,0.3-0.8,0.8-0.8c0.4,0,0.8,0.3,0.8,0.8v4
				C29,51.4,28.7,51.7,28.3,51.7z"/>
		</g>
		<g>
			<path class="st3" d="M49.3,28.7h-4c-0.4,0-0.8-0.3-0.8-0.8c0-0.4,0.3-0.8,0.8-0.8h4c0.4,0,0.8,0.3,0.8,0.8
				C50,28.4,49.7,28.7,49.3,28.7z"/>
		</g>
		<g>
			<path class="st3" d="M47.3,30.7c-0.4,0-0.8-0.3-0.8-0.8v-4c0-0.4,0.3-0.8,0.8-0.8S48,25.6,48,26v4C48,30.4,47.7,30.7,47.3,30.7z"
				/>
		</g>
		<g>
			<path class="st3" d="M59.3,33.7h-4c-0.4,0-0.8-0.3-0.8-0.8c0-0.4,0.3-0.8,0.8-0.8h4c0.4,0,0.8,0.3,0.8,0.8
				C60,33.4,59.7,33.7,59.3,33.7z"/>
		</g>
		<g>
			<path class="st3" d="M57.3,35.7c-0.4,0-0.8-0.3-0.8-0.8v-4c0-0.4,0.3-0.8,0.8-0.8c0.4,0,0.8,0.3,0.8,0.8v4
				C58,35.4,57.7,35.7,57.3,35.7z"/>
		</g>
		<g>
			<path class="st3" d="M54.3,52.7h-4c-0.4,0-0.8-0.3-0.8-0.8c0-0.4,0.3-0.8,0.8-0.8h4c0.4,0,0.8,0.3,0.8,0.8
				C55,52.4,54.7,52.7,54.3,52.7z"/>
		</g>
		<g>
			<path class="st3" d="M52.3,54.7c-0.4,0-0.8-0.3-0.8-0.8v-4c0-0.4,0.3-0.8,0.8-0.8S53,49.6,53,50v4C53,54.4,52.7,54.7,52.3,54.7z"
				/>
		</g>
		<g>
			<path class="st3" d="M23.3,55.7h-4c-0.4,0-0.8-0.3-0.8-0.8c0-0.4,0.3-0.8,0.8-0.8h4c0.4,0,0.8,0.3,0.8,0.8
				C24,55.4,23.7,55.7,23.3,55.7z"/>
		</g>
		<g>
			<path class="st3" d="M21.3,57.7c-0.4,0-0.8-0.3-0.8-0.8v-4c0-0.4,0.3-0.8,0.8-0.8c0.4,0,0.8,0.3,0.8,0.8v4
				C22,57.4,21.7,57.7,21.3,57.7z"/>
		</g>
	</g>
</g>
</svg>
