<?xml version="1.0" encoding="utf-8"?>
<!-- Generator: Adobe Illustrator 19.0.0, SVG Export Plug-In . SVG Version: 6.00 Build 0)  -->
<svg version="1.1" id="Layer_1" xmlns="http://www.w3.org/2000/svg" xmlns:xlink="http://www.w3.org/1999/xlink" x="0px" y="0px"
	 viewBox="0 0 78.9 78.5" style="enable-background:new 0 0 78.9 78.5;" xml:space="preserve">
<style type="text/css">
	.st0{fill:#E8EAEB;}
	.st1{fill:#c2e1ff;}
	.st2{fill:#FFFFFF;}
	.st3{fill:#0984e3;}
</style>
<g>
	<g>
		<circle class="st0" cx="48.9" cy="14" r="14"/>
	</g>
	<g>
		<circle class="st0" cx="12" cy="47.3" r="12"/>
	</g>
	<g>
		<circle class="st0" cx="58.9" cy="58.5" r="20"/>
	</g>
	<g>
		<g>
			<path class="st1" d="M54.2,71.8h-28c-9.9,0-18-8.1-18-18v-28c0-9.9,8.1-18,18-18h28c9.9,0,18,8.1,18,18v28
				C72.2,63.7,64.1,71.8,54.2,71.8z"/>
		</g>
		<g>
			<path class="st2" d="M50.2,64.8h-26c-8.8,0-16-7.2-16-16v-23c0-9.9,8.1-18,18-18h23c8.8,0,16,7.2,16,16v26
				C65.2,58.1,58.5,64.8,50.2,64.8z"/>
		</g>
		<g>
			<path class="st3" d="M54.2,72.5h-28c-10.3,0-18.8-8.4-18.8-18.8v-28C7.4,15.4,15.8,7,26.2,7h28c10.3,0,18.8,8.4,18.8,18.8v28
				C72.9,64.1,64.5,72.5,54.2,72.5z M26.2,8.5c-9.5,0-17.3,7.7-17.3,17.3v28c0,9.5,7.7,17.3,17.3,17.3h28c9.5,0,17.3-7.7,17.3-17.3
				v-28c0-9.5-7.7-17.3-17.3-17.3H26.2z"/>
		</g>
		<g>
			<circle class="st2" cx="40.2" cy="39.8" r="20"/>
		</g>
		<g>
			<path class="st1" d="M51.6,23.4c2.3,3.2,3.6,7.2,3.6,11.4c0,11-9,20-20,20c-4.2,0-8.2-1.3-11.4-3.6c3.6,5.2,9.6,8.6,16.4,8.6
				c11,0,20-9,20-20C60.2,33,56.8,27,51.6,23.4z"/>
		</g>
		<g>
			<path class="st3" d="M40.2,60.5c-11.4,0-20.8-9.3-20.8-20.8S28.7,19,40.2,19s20.8,9.3,20.8,20.8S51.6,60.5,40.2,60.5z M40.2,20.5
				c-10.6,0-19.3,8.6-19.3,19.3c0,10.6,8.6,19.3,19.3,19.3c10.6,0,19.3-8.6,19.3-19.3C59.4,29.2,50.8,20.5,40.2,20.5z"/>
		</g>
		<g>
			<circle class="st2" cx="50.4" cy="32.5" r="2"/>
		</g>
		<g>
			<path class="st3" d="M50.4,35.3c-1.5,0-2.8-1.2-2.8-2.8c0-1.5,1.2-2.8,2.8-2.8c1.5,0,2.8,1.2,2.8,2.8C53.2,34,52,35.3,50.4,35.3z
				 M50.4,31.3c-0.7,0-1.3,0.6-1.3,1.3c0,0.7,0.6,1.3,1.3,1.3c0.7,0,1.3-0.6,1.3-1.3C51.7,31.8,51.1,31.3,50.4,31.3z"/>
		</g>
		<g>
			<circle class="st2" cx="60.2" cy="39.3" r="2"/>
		</g>
		<g>
			<path class="st3" d="M60.2,42c-1.5,0-2.8-1.2-2.8-2.8c0-1.5,1.2-2.8,2.8-2.8c1.5,0,2.8,1.2,2.8,2.8C62.9,40.8,61.7,42,60.2,42z
				 M60.2,38c-0.7,0-1.3,0.6-1.3,1.3c0,0.7,0.6,1.3,1.3,1.3c0.7,0,1.3-0.6,1.3-1.3C61.4,38.6,60.9,38,60.2,38z"/>
		</g>
		<g>
			<circle class="st2" cx="50" cy="14.8" r="2"/>
		</g>
		<g>
			<path class="st3" d="M50,17.5c-1.5,0-2.8-1.2-2.8-2.8S48.5,12,50,12c1.5,0,2.8,1.2,2.8,2.8S51.5,17.5,50,17.5z M50,13.5
				c-0.7,0-1.3,0.6-1.3,1.3c0,0.7,0.6,1.3,1.3,1.3c0.7,0,1.3-0.6,1.3-1.3C51.3,14.1,50.7,13.5,50,13.5z"/>
		</g>
		<g>
			<circle class="st2" cx="65.5" cy="26" r="2"/>
		</g>
		<g>
			<path class="st3" d="M65.5,28.7c-1.5,0-2.8-1.2-2.8-2.8c0-1.5,1.2-2.8,2.8-2.8s2.8,1.2,2.8,2.8C68.3,27.5,67,28.7,65.5,28.7z
				 M65.5,24.7c-0.7,0-1.3,0.6-1.3,1.3c0,0.7,0.6,1.3,1.3,1.3c0.7,0,1.3-0.6,1.3-1.3C66.8,25.3,66.2,24.7,65.5,24.7z"/>
		</g>
		<g>
			<circle class="st2" cx="28.7" cy="65.3" r="2"/>
		</g>
		<g>
			<path class="st3" d="M28.7,68c-1.5,0-2.8-1.2-2.8-2.8s1.2-2.8,2.8-2.8s2.8,1.2,2.8,2.8S30.2,68,28.7,68z M28.7,64
				c-0.7,0-1.3,0.6-1.3,1.3c0,0.7,0.6,1.3,1.3,1.3c0.7,0,1.3-0.6,1.3-1.3C29.9,64.6,29.4,64,28.7,64z"/>
		</g>
		<g>
			<circle class="st2" cx="36.9" cy="50" r="2"/>
		</g>
		<g>
			<path class="st3" d="M36.9,52.8c-1.5,0-2.8-1.2-2.8-2.8c0-1.5,1.2-2.8,2.8-2.8c1.5,0,2.8,1.2,2.8,2.8
				C39.6,51.5,38.4,52.8,36.9,52.8z M36.9,48.8c-0.7,0-1.3,0.6-1.3,1.3c0,0.7,0.6,1.3,1.3,1.3c0.7,0,1.3-0.6,1.3-1.3
				C38.1,49.3,37.5,48.8,36.9,48.8z"/>
		</g>
		<g>
			<circle class="st2" cx="15.7" cy="50.7" r="2"/>
		</g>
		<g>
			<path class="st3" d="M15.7,53.4c-1.5,0-2.8-1.2-2.8-2.8s1.2-2.8,2.8-2.8s2.8,1.2,2.8,2.8S17.2,53.4,15.7,53.4z M15.7,49.4
				c-0.7,0-1.3,0.6-1.3,1.3c0,0.7,0.6,1.3,1.3,1.3c0.7,0,1.3-0.6,1.3-1.3C17,50,16.4,49.4,15.7,49.4z"/>
		</g>
		<g>
			<circle class="st2" cx="26.8" cy="54.8" r="2"/>
		</g>
		<g>
			<path class="st3" d="M26.8,57.5c-1.5,0-2.8-1.2-2.8-2.8s1.2-2.8,2.8-2.8c1.5,0,2.8,1.2,2.8,2.8S28.4,57.5,26.8,57.5z M26.8,53.5
				c-0.7,0-1.3,0.6-1.3,1.3c0,0.7,0.6,1.3,1.3,1.3c0.7,0,1.3-0.6,1.3-1.3C28.1,54.1,27.5,53.5,26.8,53.5z"/>
		</g>
		<g>
			<path class="st2" d="M61.9,60.3l-1.3,1.3c-1.2,1.2-3.2,1.2-4.3-0.1L29.9,33.1l3.7-3.7l28.4,26.5C63.1,57.1,63.1,59.1,61.9,60.3z"
				/>
		</g>
		<g>
			<path class="st1" d="M59.2,59c-0.4,0.4-1,0.4-1.4,0L31.2,31.8l-1.3,1.3l26.5,28.4c1.2,1.2,3.1,1.3,4.3,0.1l1.3-1.3
				c1.1-1.1,1.2-2.9,0.1-4.1L59.2,59z"/>
		</g>
		<g>
			<path class="st3" d="M58.6,63.2C58.5,63.2,58.5,63.2,58.6,63.2c-1.1,0-2-0.4-2.7-1.2L29.3,33.6c-0.3-0.3-0.3-0.8,0-1l3.7-3.7
				c0.3-0.3,0.7-0.3,1,0l28.4,26.5c0.8,0.7,1.2,1.7,1.2,2.7c0,1-0.4,2-1.1,2.7l0,0l-1.3,1.3C60.5,62.8,59.6,63.2,58.6,63.2z
				 M30.9,33.1l26,27.8c0.4,0.4,1,0.7,1.6,0.7c0.6,0,1.2-0.2,1.6-0.7l1.3-1.3c0.4-0.4,0.7-1,0.7-1.6c0-0.6-0.3-1.2-0.7-1.6l-27.8-26
				L30.9,33.1z M61.9,60.3L61.9,60.3L61.9,60.3z"/>
		</g>
		<g>
			<polygon class="st2" points="18.9,18.5 27.9,21.5 35.6,15.8 35.4,25.4 43.2,30.9 34.1,33.7 31.3,42.8 25.8,35 16.2,35.1 
				21.9,27.5 			"/>
		</g>
		<g>
			<path class="st1" d="M33.2,31c-0.6,0.2-1.1,0.7-1.3,1.3l-1.2,3.9c-0.1,0.4-0.6,0.5-0.9,0.1L27.4,33c-0.4-0.5-1-0.9-1.7-0.8
				l-7.3,0.1l-2.2,2.9l9.5-0.1l5.5,7.8l2.8-9.1l9.1-2.8l-2.9-2.1L33.2,31z"/>
		</g>
		<g>
			<path class="st3" d="M31.3,43.6c-0.2,0-0.5-0.1-0.6-0.3l-5.3-7.5l-9.1,0.1c0,0,0,0,0,0c-0.3,0-0.5-0.2-0.7-0.4
				c-0.1-0.3-0.1-0.6,0.1-0.8l5.5-7.3l-2.9-8.7c-0.1-0.3,0-0.6,0.2-0.8c0.2-0.2,0.5-0.3,0.8-0.2l8.7,2.9l7.3-5.5
				c0.2-0.2,0.5-0.2,0.8-0.1c0.3,0.1,0.4,0.4,0.4,0.7L36.2,25l7.5,5.3c0.2,0.2,0.4,0.4,0.3,0.7c0,0.3-0.2,0.5-0.5,0.6l-8.7,2.7
				L32,43c-0.1,0.3-0.3,0.5-0.6,0.5C31.4,43.6,31.3,43.6,31.3,43.6z M25.8,34.3c0.2,0,0.5,0.1,0.6,0.3l4.6,6.6l2.4-7.7
				c0.1-0.2,0.3-0.4,0.5-0.5l7.7-2.4L35,26c-0.2-0.1-0.3-0.4-0.3-0.6l0.1-8l-6.4,4.8c-0.2,0.1-0.5,0.2-0.7,0.1l-7.6-2.6l2.6,7.6
				c0.1,0.2,0,0.5-0.1,0.7l-4.8,6.4L25.8,34.3C25.8,34.3,25.8,34.3,25.8,34.3z"/>
		</g>
	</g>
</g>
</svg>
