<?xml version="1.0" encoding="utf-8"?>
<!-- Generator: Adobe Illustrator 19.0.0, SVG Export Plug-In . SVG Version: 6.00 Build 0)  -->
<svg version="1.1" id="Layer_1" xmlns="http://www.w3.org/2000/svg" xmlns:xlink="http://www.w3.org/1999/xlink" x="0px" y="0px"
	 viewBox="0 0 81 79.8" style="enable-background:new 0 0 81 79.8;" xml:space="preserve">
<style type="text/css">
	.st0{fill:#E8EAEB;}
	.st1{fill:#c2e1ff;}
	.st2{fill:#FFFFFF;}
	.st3{fill:#0984e3;}
</style>
<g>
	<g>
		<circle class="st0" cx="67" cy="35" r="14"/>
	</g>
	<g>
		<circle class="st0" cx="40.3" cy="12" r="12"/>
	</g>
	<g>
		<circle class="st0" cx="20" cy="59.8" r="20"/>
	</g>
	<g>
		<g>
			<rect x="12.3" y="28.8" class="st1" width="48" height="42"/>
		</g>
		<g>
			<path class="st2" d="M37.2,68.8h-25v-40h43v22C55.2,60.7,47.2,68.8,37.2,68.8z"/>
		</g>
		<g>
			<path class="st3" d="M60.3,71.5h-48c-0.4,0-0.8-0.3-0.8-0.8v-42c0-0.4,0.3-0.8,0.8-0.8h48c0.4,0,0.8,0.3,0.8,0.8v42
				C61,71.2,60.7,71.5,60.3,71.5z M13,70h46.5V29.5H13V70z"/>
		</g>
		<g>
			<polygon class="st1" points="10.3,20.8 24.3,6.8 74.3,6.8 60.3,20.8 			"/>
		</g>
		<g>
			<path class="st2" d="M13.3,17.8l11-11h46L59.8,17.2c-0.4,0.4-0.9,0.6-1.4,0.6H13.3z"/>
		</g>
		<g>
			<path class="st3" d="M60.3,21.5h-50c-0.3,0-0.6-0.2-0.7-0.5c-0.1-0.3-0.1-0.6,0.2-0.8l14-14C23.9,6.1,24.1,6,24.3,6h50
				c0.3,0,0.6,0.2,0.7,0.5c0.1,0.3,0.1,0.6-0.2,0.8l-14,14C60.6,21.4,60.4,21.5,60.3,21.5z M12.1,20h47.9L72.4,7.5H24.6L12.1,20z"/>
		</g>
		<g>
			<polygon class="st1" points="60.3,28.8 74.3,14.8 74.3,6.8 60.3,20.8 			"/>
		</g>
		<g>
			<path class="st2" d="M60.3,25.8l11.4-11.4c0.4-0.4,0.6-0.9,0.6-1.4V8.8l-12,12V25.8z"/>
		</g>
		<g>
			<path class="st3" d="M60.3,29.5c-0.1,0-0.2,0-0.3-0.1c-0.3-0.1-0.5-0.4-0.5-0.7v-8c0-0.2,0.1-0.4,0.2-0.5l14-14
				c0.2-0.2,0.5-0.3,0.8-0.2S75,6.4,75,6.8v8c0,0.2-0.1,0.4-0.2,0.5l-14,14C60.6,29.4,60.4,29.5,60.3,29.5z M61,21.1v5.9l12.5-12.5
				V8.6L61,21.1z"/>
		</g>
		<g>
			<polygon class="st1" points="60.3,70.8 73.3,57.8 73.3,15.8 60.3,28.8 			"/>
		</g>
		<g>
			<path class="st2" d="M60.3,64.8l9.4-9.4c0.4-0.4,0.6-0.9,0.6-1.4V18.8l-10,10V64.8z"/>
		</g>
		<g>
			<path class="st3" d="M60.3,71.5c-0.1,0-0.2,0-0.3-0.1c-0.3-0.1-0.5-0.4-0.5-0.7v-42c0-0.2,0.1-0.4,0.2-0.5l13-13
				c0.2-0.2,0.5-0.3,0.8-0.2c0.3,0.1,0.5,0.4,0.5,0.7v42c0,0.2-0.1,0.4-0.2,0.5l-13,13C60.6,71.4,60.4,71.5,60.3,71.5z M61,29.1
				v39.9l11.5-11.5V17.6L61,29.1z"/>
		</g>
		<g>
			<rect x="10.3" y="20.8" class="st1" width="50" height="8"/>
		</g>
		<g>
			<path class="st2" d="M55.2,26.8h-45v-6h47v4C57.2,25.9,56.4,26.8,55.2,26.8z"/>
		</g>
		<g>
			<path class="st3" d="M60.3,29.5h-50c-0.4,0-0.8-0.3-0.8-0.8v-8c0-0.4,0.3-0.8,0.8-0.8h50c0.4,0,0.8,0.3,0.8,0.8v8
				C61,29.2,60.7,29.5,60.3,29.5z M11,28h48.5v-6.5H11V28z"/>
		</g>
		<g>
			<path class="st3" d="M45.3,25.5c-0.2,0-0.4-0.1-0.5-0.2c-0.1-0.1-0.2-0.3-0.2-0.5c0-0.2,0.1-0.4,0.2-0.5c0.3-0.3,0.8-0.3,1.1,0
				c0.1,0.1,0.2,0.3,0.2,0.5c0,0.2-0.1,0.4-0.2,0.5C45.6,25.4,45.4,25.5,45.3,25.5z"/>
		</g>
		<g>
			<path class="st3" d="M49.5,24.7c0-0.4,0.3-0.8,0.8-0.8l0,0c0.4,0,0.8,0.3,0.8,0.8l0,0c0,0.4-0.3,0.8-0.8,0.8l0,0
				C49.8,25.5,49.5,25.2,49.5,24.7z"/>
		</g>
		<g>
			<path class="st3" d="M55.3,25.5c-0.2,0-0.4-0.1-0.5-0.2c-0.1-0.2-0.2-0.3-0.2-0.5c0-0.2,0.1-0.4,0.2-0.5c0.3-0.3,0.8-0.3,1.1,0
				c0.1,0.1,0.2,0.3,0.2,0.5c0,0.2-0.1,0.4-0.2,0.5C55.6,25.4,55.4,25.5,55.3,25.5z"/>
		</g>
		<g>
			<path class="st2" d="M51.5,47.8h-2.2c-0.1-1-0.4-1.9-0.8-2.8l1.9-1.1c0.4-0.2,0.5-0.7,0.3-1.1l-1.2-2.1c-0.2-0.4-0.7-0.5-1.1-0.3
				l-1.9,1.1c-0.6-0.8-1.3-1.4-2-2l1.1-1.9c0.2-0.4,0.1-0.9-0.3-1.1l-2.1-1.2c-0.4-0.2-0.9-0.1-1.1,0.3L41,37.5
				c-0.9-0.3-1.8-0.6-2.8-0.8v-2.2c0-0.4-0.4-0.8-0.8-0.8H35c-0.4,0-0.8,0.4-0.8,0.8v2.2c-1,0.1-1.9,0.4-2.8,0.8l-1.1-1.9
				c-0.2-0.4-0.7-0.5-1.1-0.3l-2.1,1.2c-0.4,0.2-0.5,0.7-0.3,1.1l1.1,1.9c-0.8,0.6-1.4,1.3-2,2l-1.9-1.1c-0.4-0.2-0.9-0.1-1.1,0.3
				l-1.2,2.1c-0.2,0.4-0.1,0.9,0.3,1.1L24,45c-0.3,0.9-0.6,1.8-0.7,2.8H21c-0.4,0-0.8,0.4-0.8,0.8V51c0,0.4,0.4,0.8,0.8,0.8h2.2
				c0.1,1,0.4,1.9,0.7,2.8l-1.9,1.1c-0.4,0.2-0.5,0.7-0.3,1.1l1.2,2.1c0.2,0.4,0.7,0.5,1.1,0.3L26,58c0.6,0.8,1.3,1.4,2,2l-1.1,1.9
				c-0.2,0.4-0.1,0.9,0.3,1.1l2.1,1.2c0.4,0.2,0.9,0.1,1.1-0.3l1.1-1.9c0.9,0.3,1.8,0.6,2.8,0.8V65c0,0.4,0.4,0.8,0.8,0.8h2.4
				c0.4,0,0.8-0.4,0.8-0.8v-2.2c1-0.1,1.9-0.4,2.8-0.8l1.1,1.9c0.2,0.4,0.7,0.5,1.1,0.3l2.1-1.2c0.4-0.2,0.5-0.7,0.3-1.1L44.5,60
				c0.8-0.6,1.4-1.3,2-2l1.9,1.1c0.4,0.2,0.9,0.1,1.1-0.3l1.2-2.1c0.2-0.4,0.1-0.9-0.3-1.1l-1.9-1.1c0.3-0.9,0.6-1.8,0.8-2.8h2.2
				c0.4,0,0.8-0.4,0.8-0.8v-2.4C52.3,48.1,51.9,47.8,51.5,47.8z"/>
		</g>
		<g>
			<path class="st1" d="M51.5,47.8h-2.2c-0.1-1-0.4-1.9-0.8-2.8l1.9-1.1c0.4-0.2,0.5-0.7,0.3-1.1l-1.2-2.1c-0.2-0.4-0.7-0.5-1.1-0.3
				l-1.9,1.1c-0.1-0.1-0.1-0.1-0.2-0.2c0.8,1.7,1.2,3.6,1.2,5.6c0,7.8-6.3,14.1-14.1,14.1c-2,0-3.9-0.4-5.6-1.2
				c0.1,0.1,0.1,0.1,0.2,0.2l-1.1,1.9c-0.2,0.4-0.1,0.9,0.3,1.1l2.1,1.2c0.4,0.2,0.9,0.1,1.1-0.3l1.1-1.9c0.9,0.3,1.8,0.6,2.8,0.8
				V65c0,0.4,0.4,0.8,0.8,0.8h2.4c0.4,0,0.8-0.4,0.8-0.8v-2.2c1-0.1,1.9-0.4,2.8-0.8l1.1,1.9c0.2,0.4,0.7,0.5,1.1,0.3l2.1-1.2
				c0.4-0.2,0.5-0.7,0.3-1.1L44.5,60c0.8-0.6,1.4-1.3,2-2l1.9,1.1c0.4,0.2,0.9,0.1,1.1-0.3l1.2-2.1c0.2-0.4,0.1-0.9-0.3-1.1
				l-1.9-1.1c0.3-0.9,0.6-1.8,0.8-2.8h2.2c0.4,0,0.8-0.4,0.8-0.8v-2.4C52.3,48.1,51.9,47.8,51.5,47.8z"/>
		</g>
		<g>
			<path class="st3" d="M37.5,66.5H35c-0.9,0-1.5-0.7-1.5-1.5v-1.5c-0.6-0.1-1.1-0.3-1.7-0.5L31,64.3c-0.2,0.4-0.5,0.6-0.9,0.7
				c-0.4,0.1-0.8,0.1-1.2-0.2l-2.1-1.2c-0.4-0.2-0.6-0.5-0.7-0.9c-0.1-0.4-0.1-0.8,0.2-1.2l0.8-1.3c-0.4-0.4-0.9-0.8-1.2-1.2
				l-1.3,0.8c-0.7,0.4-1.7,0.2-2.1-0.6l-1.2-2.1c-0.4-0.7-0.2-1.7,0.6-2.1l1.3-0.8c-0.2-0.6-0.3-1.1-0.5-1.7H21
				c-0.9,0-1.5-0.7-1.5-1.5v-2.4c0-0.9,0.7-1.6,1.5-1.6h1.5c0.1-0.6,0.3-1.1,0.5-1.7l-1.3-0.8c-0.4-0.2-0.6-0.5-0.7-0.9
				c-0.1-0.4-0.1-0.8,0.2-1.2l1.2-2.1c0.2-0.4,0.5-0.6,0.9-0.7c0.4-0.1,0.8-0.1,1.2,0.2l1.3,0.8c0.4-0.4,0.8-0.9,1.2-1.2L26.3,38
				c-0.4-0.7-0.2-1.7,0.6-2.1l2.1-1.2c0.4-0.2,0.8-0.3,1.2-0.2c0.4,0.1,0.7,0.4,0.9,0.7l0.8,1.3c0.6-0.2,1.1-0.3,1.7-0.5v-1.5
				c0-0.9,0.7-1.6,1.5-1.6h2.4c0.9,0,1.5,0.7,1.5,1.6v1.5c0.6,0.1,1.1,0.3,1.7,0.5l0.8-1.3c0.2-0.4,0.5-0.6,0.9-0.7
				c0.4-0.1,0.8-0.1,1.2,0.2l2.1,1.2c0.7,0.4,1,1.4,0.6,2.1l-0.8,1.3c0.4,0.4,0.9,0.8,1.2,1.2l1.3-0.8c0.7-0.4,1.7-0.2,2.1,0.6
				l1.2,2.1c0.2,0.4,0.3,0.8,0.2,1.2c-0.1,0.4-0.4,0.7-0.7,0.9l-1.3,0.8c0.2,0.6,0.3,1.1,0.5,1.7h1.5c0.9,0,1.5,0.7,1.5,1.6V51
				c0,0.9-0.7,1.5-1.5,1.5h-1.5c-0.1,0.6-0.3,1.1-0.5,1.7l1.3,0.8c0.4,0.2,0.6,0.5,0.7,0.9c0.1,0.4,0.1,0.8-0.2,1.2l-1.2,2.1
				c-0.4,0.7-1.4,1-2.1,0.6L46.7,59c-0.4,0.4-0.8,0.9-1.2,1.2l0.8,1.3c0.2,0.4,0.3,0.8,0.2,1.2c-0.1,0.4-0.4,0.7-0.7,0.9l-2.1,1.2
				c-0.4,0.2-0.8,0.3-1.2,0.2c-0.4-0.1-0.7-0.4-0.9-0.7L40.7,63c-0.6,0.2-1.1,0.3-1.7,0.5V65C39,65.8,38.3,66.5,37.5,66.5z
				 M31.5,61.3c0.1,0,0.2,0,0.3,0.1c0.9,0.3,1.7,0.6,2.6,0.7c0.4,0.1,0.6,0.4,0.6,0.7V65l2.5,0l0-2.2c0-0.4,0.3-0.7,0.6-0.7
				c0.9-0.1,1.8-0.4,2.6-0.7c0.3-0.1,0.7,0,0.9,0.3l1.1,1.9l2.1-1.2l-1.1-1.9c-0.2-0.3-0.1-0.7,0.2-1c0.7-0.6,1.4-1.2,1.9-1.9
				c0.2-0.3,0.6-0.4,1-0.2l1.9,1.1l1.3-2.1l-1.9-1.1c-0.3-0.2-0.5-0.6-0.3-0.9c0.3-0.9,0.6-1.7,0.7-2.6c0.1-0.4,0.4-0.6,0.7-0.6h2.2
				l0-2.4l0-0.1h-2.2c-0.4,0-0.7-0.3-0.7-0.6c-0.1-0.9-0.4-1.8-0.7-2.6c-0.1-0.3,0-0.7,0.3-0.9l1.9-1.1l-1.2-2.1l-1.9,1.1
				c-0.3,0.2-0.7,0.1-1-0.2c-0.6-0.7-1.2-1.4-1.9-1.9c-0.3-0.2-0.4-0.6-0.2-1l1.1-1.9l-2.1-1.3l-1.1,1.9c-0.2,0.3-0.6,0.5-0.9,0.3
				c-0.9-0.3-1.7-0.6-2.6-0.7c-0.4-0.1-0.6-0.4-0.6-0.7v-2.2L35,34.5l0,2.2c0,0.4-0.3,0.7-0.6,0.7c-0.9,0.1-1.8,0.4-2.6,0.7
				c-0.3,0.1-0.7,0-0.9-0.3L29.7,36l-2.1,1.2l1.1,1.9c0.2,0.3,0.1,0.7-0.2,1c-0.7,0.6-1.4,1.2-1.9,1.9c-0.2,0.3-0.6,0.4-1,0.2
				l-1.9-1.1l-1.3,2.1l1.9,1.1c0.3,0.2,0.5,0.6,0.3,0.9c-0.3,0.9-0.6,1.7-0.7,2.6c-0.1,0.4-0.4,0.6-0.7,0.6H21l0,2.5l2.2,0
				c0.4,0,0.7,0.3,0.7,0.6c0.1,0.9,0.4,1.8,0.7,2.6c0.1,0.3,0,0.7-0.3,0.9l-1.9,1.1l1.2,2.1l1.9-1.1c0.3-0.2,0.7-0.1,1,0.2
				c0.6,0.7,1.2,1.4,1.9,1.9c0.3,0.2,0.4,0.6,0.2,1l-1.1,1.9l2.1,1.3l1.1-1.9C30.9,61.4,31.2,61.3,31.5,61.3z"/>
		</g>
		<g>
			<circle class="st2" cx="36.3" cy="49.8" r="7.5"/>
		</g>
		<g>
			<path class="st1" d="M40.1,43.3c0.7,1.1,1,2.4,1,3.8c0,4.1-3.4,7.5-7.5,7.5c-1.4,0-2.7-0.4-3.8-1c1.3,2.2,3.7,3.7,6.5,3.7
				c4.1,0,7.5-3.4,7.5-7.5C43.8,47,42.3,44.6,40.1,43.3z"/>
		</g>
		<g>
			<path class="st3" d="M36.3,58c-4.5,0-8.3-3.7-8.3-8.3c0-4.5,3.7-8.3,8.3-8.3s8.3,3.7,8.3,8.3C44.5,54.3,40.8,58,36.3,58z
				 M36.3,43c-3.7,0-6.8,3-6.8,6.8c0,3.7,3,6.8,6.8,6.8c3.7,0,6.8-3,6.8-6.8C43,46,40,43,36.3,43z"/>
		</g>
		<g>
			<path class="st3" d="M66.8,65c-0.4,0-0.8-0.3-0.8-0.8V15H16.8c-0.4,0-0.8-0.3-0.8-0.8c0-0.4,0.3-0.8,0.8-0.8h50
				c0.4,0,0.8,0.3,0.8,0.8v50C67.5,64.7,67.2,65,66.8,65z"/>
		</g>
		<g>
			<path class="st3" d="M9.3,33.5h-4c-0.4,0-0.8-0.3-0.8-0.8c0-0.4,0.3-0.8,0.8-0.8h4c0.4,0,0.8,0.3,0.8,0.8
				C10,33.2,9.7,33.5,9.3,33.5z"/>
		</g>
		<g>
			<path class="st3" d="M7.3,35.5c-0.4,0-0.8-0.3-0.8-0.8v-4c0-0.4,0.3-0.8,0.8-0.8C7.7,30,8,30.4,8,30.8v4
				C8,35.2,7.7,35.5,7.3,35.5z"/>
		</g>
		<g>
			<circle class="st3" cx="7.2" cy="38.8" r="0.8"/>
		</g>
		<g>
			<circle class="st3" cx="7.2" cy="41.8" r="0.8"/>
		</g>
		<g>
			<circle class="st3" cx="7.2" cy="46.8" r="0.8"/>
		</g>
		<g>
			<circle class="st3" cx="7.2" cy="52.8" r="0.8"/>
		</g>
		<g>
			<path class="st3" d="M78.3,62.3h-4c-0.4,0-0.8-0.3-0.8-0.8c0-0.4,0.3-0.8,0.8-0.8h4c0.4,0,0.8,0.3,0.8,0.8
				C79,62,78.7,62.3,78.3,62.3z"/>
		</g>
		<g>
			<path class="st3" d="M76.3,64.3c-0.4,0-0.8-0.3-0.8-0.7v-4c0-0.4,0.3-0.8,0.8-0.8s0.8,0.3,0.8,0.8v4C77,64,76.7,64.3,76.3,64.3z"
				/>
		</g>
		<g>
			<circle class="st3" cx="76.3" cy="55.5" r="0.8"/>
		</g>
		<g>
			<circle class="st3" cx="76.3" cy="52.5" r="0.8"/>
		</g>
		<g>
			<circle class="st3" cx="76.3" cy="47.5" r="0.8"/>
		</g>
		<g>
			<circle class="st3" cx="76.3" cy="41.5" r="0.8"/>
		</g>
	</g>
</g>
</svg>
