<?xml version="1.0" encoding="utf-8"?>
<!-- Generator: Adobe Illustrator 19.0.0, SVG Export Plug-In . SVG Version: 6.00 Build 0)  -->
<svg version="1.1" id="Layer_1" xmlns="http://www.w3.org/2000/svg" xmlns:xlink="http://www.w3.org/1999/xlink" x="0px" y="0px"
	 viewBox="0 0 78.8 78.8" style="enable-background:new 0 0 78.8 78.8;" xml:space="preserve">
<style type="text/css">
	.st0{fill:#E8EAEB;}
	.st1{fill:#FFFFFF;}
	.st2{fill:#c2e1ff;}
	.st3{fill:#0984e3;}
</style>
<path class="st0" d="M42.6,76.3c-7.7,0-14-6.3-14-14c0-7.7,6.3-14,14-14c7.7,0,14,6.3,14,14C56.6,70,50.3,76.3,42.6,76.3"/>
<g>
	<circle class="st0" cx="12.6" cy="46.3" r="12"/>
</g>
<g>
	<circle class="st0" cx="58.7" cy="24.7" r="20"/>
</g>
<g>
	<g>
		<circle class="st1" cx="65.4" cy="65.4" r="6"/>
	</g>
	<g>
		<path class="st2" d="M69.2,60.8c0.2,0.5,0.2,1.1,0.2,1.7c0,3.3-2.7,6-6,6c-1.4,0-2.7-0.5-3.8-1.3c0.7,2.5,3,4.3,5.8,4.3
			c3.3,0,6-2.7,6-6C71.4,63.5,70.5,61.9,69.2,60.8z"/>
	</g>
	<g>
		<path class="st3" d="M65.4,72.2c-3.7,0-6.8-3-6.8-6.8c0-3.7,3-6.7,6.8-6.7c3.7,0,6.8,3,6.8,6.7C72.2,69.1,69.1,72.2,65.4,72.2z
			 M65.4,60.2c-2.9,0-5.3,2.4-5.3,5.2c0,2.9,2.4,5.3,5.3,5.3c2.9,0,5.3-2.4,5.3-5.3C70.7,62.5,68.3,60.2,65.4,60.2z"/>
	</g>
	<g>
		<circle class="st3" cx="65.4" cy="65.4" r="1"/>
	</g>
	<g>
		<circle class="st1" cx="13.4" cy="13.4" r="6"/>
	</g>
	<g>
		<path class="st2" d="M17.2,8.7c0.2,0.5,0.2,1.1,0.2,1.7c0,3.3-2.7,6-6,6c-1.4,0-2.7-0.5-3.8-1.3c0.7,2.5,3,4.3,5.8,4.3
			c3.3,0,6-2.7,6-6C19.4,11.5,18.5,9.8,17.2,8.7z"/>
	</g>
	<g>
		<path class="st3" d="M13.4,20.2c-3.7,0-6.8-3-6.8-6.7s3-6.8,6.8-6.8c3.7,0,6.8,3,6.8,6.8S17.1,20.2,13.4,20.2z M13.4,8.2
			c-2.9,0-5.3,2.4-5.3,5.3c0,2.9,2.4,5.2,5.3,5.2c2.9,0,5.3-2.4,5.3-5.2C18.7,10.5,16.3,8.2,13.4,8.2z"/>
	</g>
	<g>
		<circle class="st3" cx="13.4" cy="13.4" r="1"/>
	</g>
	<g>
		<path class="st3" d="M62.4,19.2h-4c-0.4,0-0.8-0.3-0.8-0.8c0-0.4,0.3-0.8,0.8-0.8h4c0.4,0,0.8,0.3,0.8,0.8
			C63.2,18.8,62.8,19.2,62.4,19.2z"/>
	</g>
	<g>
		<path class="st3" d="M60.4,21.2c-0.4,0-0.8-0.3-0.8-0.8v-4c0-0.4,0.3-0.8,0.8-0.8c0.4,0,0.8,0.3,0.8,0.8v4
			C61.2,20.8,60.8,21.2,60.4,21.2z"/>
	</g>
	<g>
		<path class="st3" d="M17.4,32.2h-4c-0.4,0-0.8-0.3-0.8-0.7c0-0.4,0.3-0.8,0.8-0.8h4c0.4,0,0.8,0.3,0.8,0.8
			C18.2,31.8,17.8,32.2,17.4,32.2z"/>
	</g>
	<g>
		<path class="st3" d="M15.4,34.2c-0.4,0-0.8-0.3-0.8-0.8v-4c0-0.4,0.3-0.8,0.8-0.8c0.4,0,0.8,0.3,0.8,0.8v4
			C16.2,33.8,15.8,34.2,15.4,34.2z"/>
	</g>
	<g>
		<path class="st3" d="M67.4,45.2h-4c-0.4,0-0.8-0.3-0.8-0.8c0-0.4,0.3-0.8,0.8-0.8h4c0.4,0,0.8,0.3,0.8,0.8
			C68.2,44.8,67.8,45.2,67.4,45.2z"/>
	</g>
	<g>
		<path class="st3" d="M65.4,47.2c-0.4,0-0.8-0.3-0.8-0.8v-4c0-0.4,0.3-0.8,0.8-0.8c0.4,0,0.8,0.3,0.8,0.8v4
			C66.2,46.8,65.8,47.2,65.4,47.2z"/>
	</g>
	<g>
		<path class="st3" d="M24.4,58.2h-4c-0.4,0-0.8-0.3-0.8-0.8c0-0.4,0.3-0.8,0.8-0.8h4c0.4,0,0.8,0.3,0.8,0.8
			C25.2,57.8,24.8,58.2,24.4,58.2z"/>
	</g>
	<g>
		<path class="st3" d="M22.4,60.2c-0.4,0-0.8-0.3-0.8-0.8v-4c0-0.4,0.3-0.8,0.8-0.8c0.4,0,0.8,0.3,0.8,0.8v4
			C23.2,59.8,22.8,60.2,22.4,60.2z"/>
	</g>
	<g>
		<path class="st3" d="M64.9,27.2h-5.7c-0.4,0-0.8-0.3-0.8-0.8c0-0.4,0.3-0.8,0.8-0.8h5.7c3.2,0,5.8-2.6,5.8-5.8
			c0-3.2-2.6-5.8-5.8-5.8H19.4c-0.4,0-0.8-0.3-0.8-0.8s0.3-0.8,0.8-0.8h45.5c4,0,7.3,3.3,7.3,7.3C72.2,23.9,68.9,27.2,64.9,27.2z"/>
	</g>
	<g>
		<path class="st3" d="M16.4,40.2h-2.4c-4,0-7.2-3.3-7.2-7.2c0-4,3.3-7.2,7.2-7.2h10.7c0.4,0,0.8,0.3,0.8,0.8c0,0.4-0.3,0.8-0.8,0.8
			H13.9c-3.2,0-5.7,2.6-5.7,5.7c0,3.2,2.6,5.7,5.7,5.7h2.4c0.4,0,0.8,0.3,0.8,0.8C17.1,39.8,16.8,40.2,16.4,40.2z"/>
	</g>
	<g>
		<path class="st3" d="M64.9,53.2h-7.5c-0.4,0-0.8-0.3-0.8-0.8c0-0.4,0.3-0.8,0.8-0.8h7.5c3.2,0,5.8-2.6,5.8-5.8
			c0-3.2-2.6-5.8-5.8-5.8h-6.5c-0.4,0-0.8-0.3-0.8-0.8c0-0.4,0.3-0.8,0.8-0.8h6.5c4,0,7.3,3.3,7.3,7.3
			C72.2,49.9,68.9,53.2,64.9,53.2z"/>
	</g>
	<g>
		<path class="st3" d="M39.4,66.2H13.9c-4,0-7.3-3.3-7.3-7.3c0-4,3.3-7.3,7.3-7.3h12.5c0.4,0,0.8,0.3,0.8,0.8c0,0.4-0.3,0.8-0.8,0.8
			H13.9c-3.2,0-5.8,2.6-5.8,5.8c0,3.2,2.6,5.8,5.8,5.8h25.5c0.4,0,0.8,0.3,0.8,0.8C40.2,65.8,39.8,66.2,39.4,66.2z"/>
	</g>
	<g>
		<path class="st3" d="M59.4,66.2h-15c-0.4,0-0.8-0.3-0.8-0.8c0-0.4,0.3-0.8,0.8-0.8h15c0.4,0,0.8,0.3,0.8,0.8
			C60.2,65.8,59.8,66.2,59.4,66.2z"/>
	</g>
	<g>
		<path class="st1" d="M52.9,25L52.9,25c-7.4-7.4-19.5-7.4-26.9,0l0,0c-7.4,7.4-7.4,19.5,0,26.9l13.5,13.5L52.9,52
			C60.3,44.5,60.3,32.4,52.9,25z"/>
	</g>
	<g>
		<path class="st2" d="M52.9,25L52.9,25c-4.4-4.4-10.3-6.1-16-5.4c4,0.5,7.9,2.3,11,5.4l0,0c7.4,7.4,7.4,19.5,0,26.9l-11,11l2.5,2.5
			L52.9,52C60.3,44.5,60.3,32.4,52.9,25z"/>
	</g>
	<g>
		<path class="st3" d="M39.4,66.2c-0.2,0-0.4-0.1-0.5-0.2L25.4,52.5c-7.7-7.7-7.7-20.3,0-28c7.7-7.7,20.3-7.7,28,0
			c7.7,7.7,7.7,20.3,0,28L40,66C39.8,66.1,39.6,66.2,39.4,66.2z M39.4,20.2c-4.7,0-9.4,1.8-12.9,5.4c-7.1,7.1-7.1,18.7,0,25.9
			l12.9,12.9l12.9-12.9c7.1-7.1,7.1-18.7,0-25.9C48.8,22,44.1,20.2,39.4,20.2z"/>
	</g>
	<g>
		<polygon class="st2" points="39.4,28.4 29.4,32.6 39.4,36.8 49.4,32.6 		"/>
	</g>
	<g>
		<path class="st1" d="M36.4,29.7l-7,2.9l7,2.9l6.6-2.7c0.2-0.1,0.2-0.3,0-0.4L36.4,29.7z"/>
	</g>
	<g>
		<path class="st3" d="M39.4,37.5c-0.1,0-0.2,0-0.3-0.1l-10-4.2c-0.3-0.1-0.5-0.4-0.5-0.7c0-0.3,0.2-0.6,0.5-0.7l10-4.2
			c0.2-0.1,0.4-0.1,0.6,0l10,4.2c0.3,0.1,0.5,0.4,0.5,0.7c0,0.3-0.2,0.6-0.5,0.7l-10,4.2C39.6,37.5,39.5,37.5,39.4,37.5z M31.4,32.6
			l8,3.4l8-3.4l-8-3.4L31.4,32.6z"/>
	</g>
	<g>
		<polygon class="st2" points="39.4,36.8 39.4,48.4 49.4,44.3 49.4,32.6 		"/>
	</g>
	<g>
		<path class="st1" d="M39.4,36.8v8.4l6.4-2.7c0.4-0.2,0.6-0.5,0.6-0.9v-7.7L39.4,36.8z"/>
	</g>
	<g>
		<path class="st3" d="M39.4,49.2c-0.1,0-0.3,0-0.4-0.1c-0.2-0.1-0.3-0.4-0.3-0.6V36.8c0-0.3,0.2-0.6,0.5-0.7l10-4.2
			c0.2-0.1,0.5-0.1,0.7,0.1c0.2,0.1,0.3,0.4,0.3,0.6v11.7c0,0.3-0.2,0.6-0.5,0.7l-10,4.2C39.6,49.2,39.5,49.2,39.4,49.2z M40.2,37.3
			v10l8.5-3.5v-10L40.2,37.3z"/>
	</g>
	<g>
		<polygon class="st2" points="29.4,32.6 29.4,44.3 39.4,48.4 39.4,36.8 		"/>
	</g>
	<g>
		<path class="st1" d="M29.4,32.6v8.9l6.3,2.6c0.3,0.1,0.7-0.1,0.7-0.5v-8.2L29.4,32.6z"/>
	</g>
	<g>
		<path class="st3" d="M39.4,49.2c-0.1,0-0.2,0-0.3-0.1l-10-4.2c-0.3-0.1-0.5-0.4-0.5-0.7V32.6c0-0.3,0.1-0.5,0.3-0.6
			c0.2-0.1,0.5-0.2,0.7-0.1l10,4.2c0.3,0.1,0.5,0.4,0.5,0.7v11.7c0,0.3-0.1,0.5-0.3,0.6C39.7,49.1,39.6,49.2,39.4,49.2z M30.2,43.8
			l8.5,3.5v-10l-8.5-3.5V43.8z"/>
	</g>
</g>
</svg>
