<?xml version="1.0" encoding="utf-8"?>
<!-- Generator: Adobe Illustrator 19.0.0, SVG Export Plug-In . SVG Version: 6.00 Build 0)  -->
<svg version="1.1" id="Layer_1" xmlns="http://www.w3.org/2000/svg" xmlns:xlink="http://www.w3.org/1999/xlink" x="0px" y="0px"
	 viewBox="0 0 76 76.6" style="enable-background:new 0 0 76 76.6;" xml:space="preserve">
<style type="text/css">
	.st0{fill:#E8EAEB;}
	.st1{fill:#c2e1ff;}
	.st2{fill:#FFFFFF;}
	.st3{fill:#0984e3;}
</style>
<g>
	<g>
		<circle class="st0" cx="35" cy="14" r="14"/>
	</g>
	<g>
		<circle class="st0" cx="64" cy="37.7" r="12"/>
	</g>
	<g>
		<circle class="st0" cx="20" cy="56.6" r="20"/>
	</g>
	<g>
		<g>
			<rect x="25" y="64.6" class="st1" width="26" height="6"/>
		</g>
		<g>
			<path class="st2" d="M47,64.6H25v4h21c0.6,0,1-0.4,1-1V64.6z"/>
		</g>
		<g>
			<path class="st3" d="M51,71.4H25c-0.4,0-0.8-0.3-0.8-0.8v-6c0-0.4,0.3-0.8,0.8-0.8h26c0.4,0,0.8,0.3,0.8,0.8v6
				C51.8,71,51.4,71.4,51,71.4z M25.8,69.9h24.5v-4.5H25.8V69.9z"/>
		</g>
		<g>
			<path class="st3" d="M58,71.4H18c-0.4,0-0.8-0.3-0.8-0.8c0-0.4,0.3-0.8,0.8-0.8h40c0.4,0,0.8,0.3,0.8,0.8
				C58.8,71,58.4,71.4,58,71.4z"/>
		</g>
		<g>
			<path class="st1" d="M67,64.6H9c-1.7,0-3-1.3-3-3v-3h64v3C70,63.3,68.7,64.6,67,64.6z"/>
		</g>
		<g>
			<path class="st2" d="M65,62.6H6v-4h60v3C66,62.2,65.6,62.6,65,62.6z"/>
		</g>
		<g>
			<path class="st3" d="M67,65.4H9c-2.1,0-3.8-1.7-3.8-3.8v-3c0-0.4,0.3-0.8,0.8-0.8h64c0.4,0,0.8,0.3,0.8,0.8v3
				C70.8,63.7,69.1,65.4,67,65.4z M6.8,59.4v2.3c0,1.2,1,2.3,2.3,2.3h58c1.2,0,2.3-1,2.3-2.3v-2.3H6.8z"/>
		</g>
		<g>
			<circle class="st3" cx="38" cy="61.6" r="1"/>
		</g>
		<g>
			<path class="st1" d="M70,58.6H6v-37c0-1.7,1.3-3,3-3h58c1.7,0,3,1.3,3,3V58.6z"/>
		</g>
		<g>
			<path class="st2" d="M66,55.6H6v-34c0-1.7,1.3-3,3-3h58v36C67,55.2,66.6,55.6,66,55.6z"/>
		</g>
		<g>
			<path class="st3" d="M70,59.4H6c-0.4,0-0.8-0.3-0.8-0.8v-37c0-2.1,1.7-3.8,3.8-3.8h58c2.1,0,3.8,1.7,3.8,3.8v37
				C70.8,59,70.4,59.4,70,59.4z M6.8,57.9h62.5V21.6c0-1.2-1-2.3-2.3-2.3H9c-1.2,0-2.3,1-2.3,2.3V57.9z"/>
		</g>
		<g>
			<rect x="14" y="14.6" class="st1" width="48" height="44"/>
		</g>
		<g>
			<path class="st2" d="M58,14.6H14v40h43c0.6,0,1-0.4,1-1V14.6z"/>
		</g>
		<g>
			<path class="st3" d="M62,59.4H14c-0.4,0-0.8-0.3-0.8-0.8v-44c0-0.4,0.3-0.8,0.8-0.8h48c0.4,0,0.8,0.3,0.8,0.8v44
				C62.8,59,62.4,59.4,62,59.4z M14.8,57.9h46.5V15.4H14.8V57.9z"/>
		</g>
		<g>
			<path class="st1" d="M60,6.6H16c-1.1,0-2,0.9-2,2v6h48v-6C62,7.5,61.1,6.6,60,6.6z"/>
		</g>
		<g>
			<path class="st2" d="M59,6.6H16c-1.1,0-2,0.9-2,2v4h43c1.1,0,2-0.9,2-2V6.6z"/>
		</g>
		<g>
			<path class="st3" d="M62,15.4H14c-0.4,0-0.8-0.3-0.8-0.8v-6c0-1.5,1.2-2.8,2.7-2.8h44c1.5,0,2.8,1.2,2.8,2.8v6
				C62.8,15,62.4,15.4,62,15.4z M14.8,13.9h46.5V8.6c0-0.7-0.6-1.3-1.3-1.3H16c-0.7,0-1.2,0.6-1.2,1.3V13.9z"/>
		</g>
		<g>
			<path class="st3" d="M57,11.4c-0.2,0-0.4-0.1-0.5-0.2c-0.1-0.1-0.2-0.3-0.2-0.5s0.1-0.4,0.2-0.5c0.3-0.3,0.8-0.3,1.1,0
				c0.1,0.1,0.2,0.3,0.2,0.5s-0.1,0.4-0.2,0.5C57.4,11.3,57.2,11.4,57,11.4z"/>
		</g>
		<g>
			<path class="st3" d="M51.8,10.6c0-0.4,0.3-0.8,0.7-0.8l0,0c0.4,0,0.8,0.3,0.8,0.8l0,0c0,0.4-0.3,0.8-0.8,0.8l0,0
				C52.1,11.4,51.8,11,51.8,10.6z"/>
		</g>
		<g>
			<path class="st3" d="M48,11.4c-0.2,0-0.4-0.1-0.5-0.2c-0.1-0.1-0.2-0.3-0.2-0.5s0.1-0.4,0.2-0.5c0.3-0.3,0.8-0.3,1.1,0
				c0.1,0.1,0.2,0.3,0.2,0.5s-0.1,0.4-0.2,0.5C48.4,11.3,48.2,11.4,48,11.4z"/>
		</g>
		<g>
			<path class="st1" d="M33,30.6h-6c-1.1,0-2-0.9-2-2v-6c0-1.1,0.9-2,2-2h6c1.1,0,2,0.9,2,2v6C35,29.7,34.1,30.6,33,30.6z"/>
		</g>
		<g>
			<path class="st2" d="M31,27.6h-6v-5c0-1.1,0.9-2,2-2h5v6C32,27.2,31.6,27.6,31,27.6z"/>
		</g>
		<g>
			<path class="st3" d="M33,31.4h-6c-1.5,0-2.8-1.2-2.8-2.8v-6c0-1.5,1.2-2.8,2.8-2.8h6c1.5,0,2.8,1.2,2.8,2.8v6
				C35.8,30.1,34.5,31.4,33,31.4z M27,21.4c-0.7,0-1.3,0.6-1.3,1.3v6c0,0.7,0.6,1.3,1.3,1.3h6c0.7,0,1.3-0.6,1.3-1.3v-6
				c0-0.7-0.6-1.3-1.3-1.3H27z"/>
		</g>
		<g>
			<path class="st1" d="M49,30.6h-6c-1.1,0-2-0.9-2-2v-6c0-1.1,0.9-2,2-2h6c1.1,0,2,0.9,2,2v6C51,29.7,50.1,30.6,49,30.6z"/>
		</g>
		<g>
			<path class="st2" d="M47,27.6h-6v-5c0-1.1,0.9-2,2-2h5v6C48,27.2,47.6,27.6,47,27.6z"/>
		</g>
		<g>
			<path class="st3" d="M49,31.4h-6c-1.5,0-2.8-1.2-2.8-2.8v-6c0-1.5,1.2-2.8,2.8-2.8h6c1.5,0,2.8,1.2,2.8,2.8v6
				C51.8,30.1,50.5,31.4,49,31.4z M43,21.4c-0.7,0-1.3,0.6-1.3,1.3v6c0,0.7,0.6,1.3,1.3,1.3h6c0.7,0,1.3-0.6,1.3-1.3v-6
				c0-0.7-0.6-1.3-1.3-1.3H43z"/>
		</g>
		<g>
			<path class="st1" d="M33,46.6h-6c-1.1,0-2-0.9-2-2v-6c0-1.1,0.9-2,2-2h6c1.1,0,2,0.9,2,2v6C35,45.7,34.1,46.6,33,46.6z"/>
		</g>
		<g>
			<path class="st2" d="M31,43.6h-6v-5c0-1.1,0.9-2,2-2h5v6C32,43.2,31.6,43.6,31,43.6z"/>
		</g>
		<g>
			<path class="st3" d="M33,47.4h-6c-1.5,0-2.8-1.2-2.8-2.8v-6c0-1.5,1.2-2.8,2.8-2.8h6c1.5,0,2.8,1.2,2.8,2.8v6
				C35.8,46.1,34.5,47.4,33,47.4z M27,37.4c-0.7,0-1.3,0.6-1.3,1.3v6c0,0.7,0.6,1.3,1.3,1.3h6c0.7,0,1.3-0.6,1.3-1.3v-6
				c0-0.7-0.6-1.3-1.3-1.3H27z"/>
		</g>
		<g>
			<path class="st1" d="M49,46.6h-6c-1.1,0-2-0.9-2-2v-6c0-1.1,0.9-2,2-2h6c1.1,0,2,0.9,2,2v6C51,45.7,50.1,46.6,49,46.6z"/>
		</g>
		<g>
			<path class="st2" d="M47,43.6h-6v-5c0-1.1,0.9-2,2-2h5v6C48,43.2,47.6,43.6,47,43.6z"/>
		</g>
		<g>
			<path class="st3" d="M49,47.4h-6c-1.5,0-2.8-1.2-2.8-2.8v-6c0-1.5,1.2-2.8,2.8-2.8h6c1.5,0,2.8,1.2,2.8,2.8v6
				C51.8,46.1,50.5,47.4,49,47.4z M43,37.4c-0.7,0-1.3,0.6-1.3,1.3v6c0,0.7,0.6,1.3,1.3,1.3h6c0.7,0,1.3-0.6,1.3-1.3v-6
				c0-0.7-0.6-1.3-1.3-1.3H43z"/>
		</g>
		<g>
			<polygon class="st1" points="45.5,41.1 59.5,45.9 53.1,48.8 50.3,55.1 			"/>
		</g>
		<g>
			<polygon class="st2" points="45.5,41.1 53.1,48.8 50.3,55.1 			"/>
		</g>
		<g>
			<path class="st3" d="M50.3,55.9C50.3,55.9,50.3,55.9,50.3,55.9c-0.3,0-0.6-0.2-0.7-0.5l-4.8-14c-0.1-0.3,0-0.6,0.2-0.8
				c0.2-0.2,0.5-0.3,0.8-0.2l14,4.8c0.3,0.1,0.5,0.4,0.5,0.7c0,0.3-0.2,0.6-0.4,0.7l-6.1,2.7L51,55.4C50.9,55.7,50.6,55.9,50.3,55.9
				z M46.7,42.3l3.7,10.7l2.1-4.6c0.1-0.2,0.2-0.3,0.4-0.4l4.6-2.1L46.7,42.3z"/>
		</g>
		<g>
			<path class="st3" d="M18,52.4c-0.4,0-0.8-0.3-0.8-0.8V40.9c0-0.4,0.3-0.8,0.8-0.8c0.4,0,0.8,0.3,0.8,0.8v10.7
				C18.8,52,18.4,52.4,18,52.4z"/>
		</g>
		<g>
			<path class="st3" d="M18,37.7c-0.4,0-0.8-0.3-0.8-0.8v-2.3c0-0.4,0.3-0.8,0.8-0.8c0.4,0,0.8,0.3,0.8,0.8v2.3
				C18.8,37.3,18.4,37.7,18,37.7z"/>
		</g>
		<g>
			<path class="st3" d="M58,36.4c-0.4,0-0.8-0.3-0.8-0.8V24.9c0-0.4,0.3-0.8,0.8-0.8s0.8,0.3,0.8,0.8v10.7
				C58.8,36,58.4,36.4,58,36.4z"/>
		</g>
		<g>
			<path class="st3" d="M58,21.7c-0.4,0-0.8-0.3-0.8-0.8v-2.3c0-0.4,0.3-0.8,0.8-0.8s0.8,0.3,0.8,0.8v2.3
				C58.8,21.3,58.4,21.7,58,21.7z"/>
		</g>
	</g>
</g>
</svg>
