<?xml version="1.0" encoding="utf-8"?>
<!-- Generator: Adobe Illustrator 19.0.0, SVG Export Plug-In . SVG Version: 6.00 Build 0)  -->
<svg version="1.1" id="Layer_1" xmlns="http://www.w3.org/2000/svg" xmlns:xlink="http://www.w3.org/1999/xlink" x="0px" y="0px"
	 viewBox="0 0 83 77.5" style="enable-background:new 0 0 83 77.5;" xml:space="preserve">
<style type="text/css">
	.st0{fill:#E8EAEB;}
	.st1{fill:#c2e1ff;}
	.st2{fill:#FFFFFF;}
	.st3{fill:#0984e3;}
</style>
<g>
	<g>
		<circle class="st0" cx="69" cy="40.9" r="14"/>
	</g>
	<g>
		<circle class="st0" cx="52.1" cy="12" r="12"/>
	</g>
	<g>
		<circle class="st0" cx="20" cy="57.5" r="20"/>
	</g>
	<g>
		<g>
			<rect x="30.7" y="63.8" class="st1" width="26" height="6"/>
		</g>
		<g>
			<path class="st2" d="M53.7,63.8h-23v4h21c1.1,0,2-0.9,2-2V63.8z"/>
		</g>
		<g>
			<path class="st3" d="M56.7,70.5h-26c-0.4,0-0.8-0.3-0.8-0.8v-6c0-0.4,0.3-0.8,0.8-0.8h26c0.4,0,0.8,0.3,0.8,0.8v6
				C57.5,70.2,57.2,70.5,56.7,70.5z M31.5,69H56v-4.5H31.5V69z"/>
		</g>
		<g>
			<path class="st1" d="M72.7,63.8h-58c-1.7,0-3-1.3-3-3v-3h64v3C75.7,62.4,74.4,63.8,72.7,63.8z"/>
		</g>
		<g>
			<path class="st2" d="M70.7,61.8h-59v-4h61v2C72.7,60.9,71.9,61.8,70.7,61.8z"/>
		</g>
		<g>
			<path class="st3" d="M72.7,64.5h-58c-2.1,0-3.8-1.7-3.8-3.8v-3c0-0.4,0.3-0.8,0.8-0.8h64c0.4,0,0.8,0.3,0.8,0.8v3
				C76.5,62.8,74.8,64.5,72.7,64.5z M12.5,58.5v2.3c0,1.2,1,2.3,2.3,2.3h58c1.2,0,2.3-1,2.3-2.3v-2.3H12.5z"/>
		</g>
		<g>
			<path class="st3" d="M63.7,70.5h-40c-0.4,0-0.8-0.3-0.8-0.8c0-0.4,0.3-0.8,0.8-0.8h40c0.4,0,0.8,0.3,0.8,0.8
				C64.5,70.2,64.2,70.5,63.7,70.5z"/>
		</g>
		<g>
			<circle class="st3" cx="43.7" cy="60.8" r="0.8"/>
		</g>
		<g>
			<path class="st1" d="M75.7,57.8h-64v-37c0-1.7,1.3-3,3-3h58c1.7,0,3,1.3,3,3V57.8z"/>
		</g>
		<g>
			<path class="st2" d="M70.7,50.8h-59v-30c0-1.7,1.3-3,3-3h58v31C72.7,49.9,71.9,50.8,70.7,50.8z"/>
		</g>
		<g>
			<path class="st3" d="M75.7,58.5h-64c-0.4,0-0.8-0.3-0.8-0.8v-37c0-2.1,1.7-3.8,3.8-3.8h58c2.1,0,3.8,1.7,3.8,3.8v37
				C76.5,58.2,76.2,58.5,75.7,58.5z M12.5,57H75V20.8c0-1.2-1-2.3-2.3-2.3h-58c-1.2,0-2.3,1-2.3,2.3V57z"/>
		</g>
		<g>
			<rect x="17.7" y="13.7" class="st1" width="52" height="44"/>
		</g>
		<g>
			<path class="st2" d="M65.7,13.8h-48v41h42c3.3,0,6-2.7,6-6V13.8z"/>
		</g>
		<g>
			<path class="st3" d="M69.7,58.5h-52c-0.4,0-0.8-0.3-0.8-0.8v-44c0-0.4,0.3-0.8,0.8-0.8h52c0.4,0,0.8,0.3,0.8,0.8v44
				C70.5,58.2,70.2,58.5,69.7,58.5z M18.5,57H69V14.5H18.5V57z"/>
		</g>
		<g>
			<path class="st1" d="M67.7,5.8h-48c-1.1,0-2,0.9-2,2v6h52v-6C69.7,6.6,68.9,5.8,67.7,5.8z"/>
		</g>
		<g>
			<path class="st2" d="M66.7,5.8h-47c-1.1,0-2,0.9-2,2v4h47c1.1,0,2-0.9,2-2V5.8z"/>
		</g>
		<g>
			<path class="st3" d="M69.7,14.5h-52c-0.4,0-0.8-0.3-0.8-0.8v-6C17,6.2,18.2,5,19.7,5h48c1.5,0,2.8,1.2,2.8,2.8v6
				C70.5,14.2,70.2,14.5,69.7,14.5z M18.5,13H69V7.7c0-0.7-0.6-1.3-1.3-1.3h-48c-0.7,0-1.3,0.6-1.3,1.3V13z"/>
		</g>
		<g>
			<path class="st3" d="M64.8,10.5c-0.2,0-0.4-0.1-0.5-0.2C64.1,10.1,64,9.9,64,9.7c0-0.2,0.1-0.4,0.2-0.5c0.3-0.3,0.8-0.3,1.1,0
				c0.1,0.1,0.2,0.3,0.2,0.5c0,0.2-0.1,0.4-0.2,0.5C65.1,10.4,64.9,10.5,64.8,10.5z"/>
		</g>
		<g>
			<path class="st3" d="M59,9.7C59,9.3,59.3,9,59.8,9l0,0c0.4,0,0.8,0.3,0.8,0.8l0,0c0,0.4-0.3,0.8-0.8,0.8l0,0
				C59.3,10.5,59,10.2,59,9.7z"/>
		</g>
		<g>
			<path class="st3" d="M54.8,10.5c-0.2,0-0.4-0.1-0.5-0.2C54.1,10.1,54,10,54,9.7c0-0.2,0.1-0.4,0.2-0.5c0.3-0.3,0.8-0.3,1.1,0
				c0.1,0.1,0.2,0.3,0.2,0.5c0,0.2-0.1,0.4-0.2,0.5C55.1,10.4,54.9,10.5,54.8,10.5z"/>
		</g>
		<g>
			<polygon class="st2" points="38.8,31.8 33.8,25.8 28.7,31.8 			"/>
		</g>
		<g>
			<polygon class="st1" points="38.8,31.8 33.8,25.8 34.7,31.8 			"/>
		</g>
		<g>
			<path class="st3" d="M38.8,32.5h-10c-0.3,0-0.6-0.2-0.7-0.4c-0.1-0.3-0.1-0.6,0.1-0.8l5-6c0.3-0.3,0.9-0.3,1.2,0l5,6
				c0.2,0.2,0.2,0.5,0.1,0.8C39.3,32.3,39.1,32.5,38.8,32.5z M30.4,31h6.8l-3.4-4.1L30.4,31z"/>
		</g>
		<g>
			<polygon class="st2" points="48.7,31.8 43.7,25.8 38.7,31.8 			"/>
		</g>
		<g>
			<polygon class="st1" points="48.7,31.8 43.7,25.8 44.7,31.8 			"/>
		</g>
		<g>
			<path class="st3" d="M48.7,32.5h-10c-0.3,0-0.6-0.2-0.7-0.4c-0.1-0.3-0.1-0.6,0.1-0.8l5-6c0.3-0.3,0.9-0.3,1.2,0l5,6
				c0.2,0.2,0.2,0.5,0.1,0.8C49.3,32.3,49,32.5,48.7,32.5z M40.3,31h6.8l-3.4-4.1L40.3,31z"/>
		</g>
		<g>
			<polygon class="st2" points="58.7,31.8 53.7,25.8 48.7,31.8 			"/>
		</g>
		<g>
			<polygon class="st1" points="58.7,31.8 53.7,25.8 54.7,31.8 			"/>
		</g>
		<g>
			<path class="st3" d="M58.7,32.5h-10c-0.3,0-0.6-0.2-0.7-0.4c-0.1-0.3-0.1-0.6,0.1-0.8l5-6c0.1-0.2,0.4-0.3,0.6-0.3l0,0
				c0.2,0,0.4,0.1,0.6,0.3l5,6c0.2,0.2,0.2,0.5,0.1,0.8C59.3,32.3,59,32.5,58.7,32.5z M50.3,31h6.8l-3.4-4.1L50.3,31z"/>
		</g>
		<g>
			<polygon class="st2" points="43.7,25.8 48.7,31.8 53.7,25.8 			"/>
		</g>
		<g>
			<polygon class="st1" points="49.7,25.8 48.7,31.8 53.7,25.8 			"/>
		</g>
		<g>
			<path class="st3" d="M48.7,32.5L48.7,32.5c-0.2,0-0.4-0.1-0.6-0.3l-5-6c-0.2-0.2-0.2-0.5-0.1-0.8c0.1-0.3,0.4-0.4,0.7-0.4h10
				c0.3,0,0.6,0.2,0.7,0.4c0.1,0.3,0.1,0.6-0.1,0.8l-5,6C49.2,32.4,49,32.5,48.7,32.5z M45.3,26.5l3.4,4.1l3.4-4.1H45.3z"/>
		</g>
		<g>
			<polygon class="st2" points="33.7,25.8 38.7,31.8 43.7,25.8 			"/>
		</g>
		<g>
			<polygon class="st1" points="39.7,25.8 38.7,31.8 43.7,25.8 			"/>
		</g>
		<g>
			<path class="st3" d="M38.7,32.5c-0.2,0-0.4-0.1-0.6-0.3l-5-6C33,26,32.9,25.7,33,25.4c0.1-0.3,0.4-0.4,0.7-0.4h10
				c0.3,0,0.6,0.2,0.7,0.4c0.1,0.3,0.1,0.6-0.1,0.8l-5,6C39.2,32.4,39,32.5,38.7,32.5z M35.3,26.5l3.4,4.1l3.4-4.1H35.3z"/>
		</g>
		<g>
			<polygon class="st2" points="28.7,31.8 38.7,31.8 43.7,49.8 			"/>
		</g>
		<g>
			<polygon class="st1" points="34.7,31.8 38.7,31.8 43.7,49.8 			"/>
		</g>
		<g>
			<path class="st3" d="M43.7,50.5c-0.2,0-0.4-0.1-0.6-0.3l-15-18c-0.2-0.2-0.2-0.5-0.1-0.8c0.1-0.3,0.4-0.4,0.7-0.4h10
				c0.3,0,0.6,0.2,0.7,0.5l5,18c0.1,0.3-0.1,0.7-0.4,0.9C44,50.5,43.9,50.5,43.7,50.5z M30.4,32.5l11.7,14.1l-3.9-14.1H30.4z"/>
		</g>
		<g>
			<polygon class="st2" points="58.7,31.8 48.7,31.8 43.7,49.8 			"/>
		</g>
		<g>
			<polygon class="st1" points="58.7,31.8 54.7,31.8 43.7,49.8 			"/>
		</g>
		<g>
			<path class="st3" d="M43.7,50.5c-0.1,0-0.2,0-0.3-0.1c-0.3-0.2-0.5-0.5-0.4-0.9l5-18c0.1-0.3,0.4-0.5,0.7-0.5h10
				c0.3,0,0.6,0.2,0.7,0.4c0.1,0.3,0.1,0.6-0.1,0.8l-15,18C44.2,50.4,44,50.5,43.7,50.5z M49.3,32.5l-3.9,14.1l11.7-14.1H49.3z"/>
		</g>
		<g>
			<polygon class="st2" points="43.7,49.8 38.7,31.8 48.7,31.8 			"/>
		</g>
		<g>
			<polygon class="st1" points="43.7,49.8 44.7,31.8 48.7,31.8 			"/>
		</g>
		<g>
			<path class="st3" d="M43.7,50.5c-0.3,0-0.6-0.2-0.7-0.5l-5-18c-0.1-0.2,0-0.5,0.1-0.7c0.1-0.2,0.4-0.3,0.6-0.3h10
				c0.2,0,0.5,0.1,0.6,0.3c0.1,0.2,0.2,0.4,0.1,0.7l-5,18C44.4,50.3,44.1,50.5,43.7,50.5L43.7,50.5z M39.7,32.5l4,14.4l4-14.4H39.7z
				"/>
		</g>
		<g>
			<path class="st3" d="M60.2,52.9h-1.5c-0.4,0-0.8-0.3-0.8-0.8s0.3-0.8,0.8-0.8h1.5c0.8,0,1.4-0.6,1.4-1.4v-9.8
				c0-1.8,1-3.5,2.5-4.4c-1.5-0.9-2.5-2.5-2.5-4.4v-9.8c0-0.8-0.6-1.4-1.4-1.4h-1.5c-0.4,0-0.8-0.3-0.8-0.8c0-0.4,0.3-0.8,0.8-0.8
				h1.5c1.6,0,2.9,1.3,2.9,2.9v9.8c0,2,1.6,3.6,3.6,3.6c0.4,0,0.8,0.3,0.8,0.8c0,0.4-0.3,0.8-0.8,0.8c-2,0-3.6,1.6-3.6,3.6v9.8
				C63.1,51.5,61.8,52.9,60.2,52.9z"/>
		</g>
		<g>
			<path class="st3" d="M28.7,52.9h-1.5c-1.6,0-2.9-1.3-2.9-2.9v-9.8c0-2-1.6-3.6-3.6-3.6c-0.4,0-0.8-0.3-0.8-0.8
				c0-0.4,0.3-0.8,0.8-0.8c2,0,3.6-1.6,3.6-3.6v-9.8c0-1.6,1.3-2.9,2.9-2.9h1.5c0.4,0,0.8,0.3,0.8,0.8c0,0.4-0.3,0.8-0.8,0.8h-1.5
				c-0.8,0-1.4,0.6-1.4,1.4v9.8c0,1.8-1,3.5-2.5,4.4c1.5,0.9,2.5,2.5,2.5,4.4v9.8c0,0.8,0.6,1.4,1.4,1.4h1.5c0.4,0,0.8,0.3,0.8,0.8
				S29.2,52.9,28.7,52.9z"/>
		</g>
		<g>
			<path class="st3" d="M10.7,67.5h-4c-0.4,0-0.8-0.3-0.8-0.8C6,66.3,6.3,66,6.7,66h4c0.4,0,0.8,0.3,0.8,0.8
				C11.5,67.2,11.2,67.5,10.7,67.5z"/>
		</g>
		<g>
			<path class="st3" d="M8.7,69.5c-0.4,0-0.7-0.3-0.7-0.8v-4C8,64.3,8.3,64,8.7,64c0.4,0,0.8,0.3,0.8,0.8v4
				C9.5,69.2,9.2,69.5,8.7,69.5z"/>
		</g>
		<g>
			<circle class="st3" cx="8.7" cy="60.8" r="0.8"/>
		</g>
		<g>
			<circle class="st3" cx="8.7" cy="57.8" r="0.8"/>
		</g>
		<g>
			<circle class="st3" cx="8.7" cy="52.7" r="0.8"/>
		</g>
		<g>
			<circle class="st3" cx="8.7" cy="46.7" r="0.8"/>
		</g>
		<g>
			<path class="st3" d="M80.7,15.5h-4c-0.4,0-0.8-0.3-0.8-0.8c0-0.4,0.3-0.8,0.8-0.8h4c0.4,0,0.8,0.3,0.8,0.8
				C81.5,15.2,81.2,15.5,80.7,15.5z"/>
		</g>
		<g>
			<path class="st3" d="M78.7,17.5c-0.4,0-0.8-0.3-0.8-0.8v-4c0-0.4,0.3-0.8,0.8-0.8c0.4,0,0.8,0.3,0.8,0.8v4
				C79.5,17.2,79.2,17.5,78.7,17.5z"/>
		</g>
		<g>
			<circle class="st3" cx="78.7" cy="20.8" r="0.8"/>
		</g>
		<g>
			<circle class="st3" cx="78.7" cy="23.8" r="0.8"/>
		</g>
		<g>
			<circle class="st3" cx="78.7" cy="28.8" r="0.8"/>
		</g>
		<g>
			<circle class="st3" cx="78.7" cy="34.8" r="0.8"/>
		</g>
	</g>
</g>
</svg>
